<?xml version="1.0" standalone="no"?>
<!DOCTYPE svg PUBLIC "-//W3C//DTD SVG 20010904//EN"
 "http://www.w3.org/TR/2001/REC-SVG-20010904/DTD/svg10.dtd">
<svg version="1.0" xmlns="http://www.w3.org/2000/svg"
 width="300.000000pt" height="346.000000pt" viewBox="0 0 300.000000 346.000000"
 preserveAspectRatio="xMidYMid meet">
<metadata>
Created by potrace 1.10, written by Peter Selinger 2001-2011
</metadata>
<g transform="translate(0.000000,346.000000) scale(0.100000,-0.100000)"
fill="#000000" stroke="none">
<path d="M1478 3207 c-71 -14 -59 -30 17 -23 43 4 66 2 71 -6 5 -8 1 -9 -12
-4 -14 5 -16 4 -8 -4 6 -6 18 -8 28 -4 13 5 14 9 5 20 -16 19 -5 18 39 -6 31
-17 37 -18 40 -5 4 16 47 21 57 6 3 -5 -5 -12 -17 -14 -14 -3 -9 -4 12 -4 19
0 50 -4 68 -8 36 -8 42 3 15 26 -28 22 -65 41 -70 36 -3 -3 5 -11 17 -17 33
-18 17 -23 -21 -7 -19 7 -56 15 -84 16 -27 1 -63 3 -80 4 -16 2 -51 -1 -77 -6z"/>
<path d="M1230 3189 c-136 -20 -189 -40 -295 -112 -60 -40 -185 -160 -185
-177 0 -5 10 -11 23 -13 22 -4 22 -4 1 -12 -17 -5 -25 -21 -34 -67 -8 -34 -13
-68 -13 -77 1 -9 -4 -36 -9 -61 -6 -25 -11 -72 -12 -105 -1 -33 -5 -66 -10
-73 -4 -7 -5 -25 -1 -41 5 -22 11 -28 25 -24 16 4 17 8 7 23 -9 15 -8 23 4 37
8 10 16 32 17 48 2 24 1 27 -8 15 -9 -11 -9 -7 -4 20 4 19 8 44 8 55 1 11 5
25 9 32 4 6 2 13 -4 15 -15 5 10 55 40 82 12 11 21 24 21 30 0 6 -5 3 -11 -7
-6 -9 -14 -15 -19 -12 -4 3 -10 -2 -14 -10 -3 -8 -10 -15 -16 -15 -6 0 -2 12
9 26 23 29 28 49 10 38 -6 -3 -3 5 6 20 10 14 22 26 29 26 6 0 4 4 -4 10 -12
8 -12 10 4 16 13 5 14 9 5 15 -9 5 -4 16 18 38 17 16 33 37 36 46 4 8 18 20
32 27 14 6 25 15 25 20 0 4 8 8 19 8 29 0 82 21 76 30 -3 5 3 13 12 19 15 9
14 11 -12 12 -29 1 -29 1 -5 8 14 5 31 3 38 -2 8 -6 26 -11 41 -12 15 -1 32
-5 39 -9 18 -11 53 -18 97 -20 42 -1 44 -3 113 -65 45 -41 55 -67 23 -58 -13
3 -18 0 -15 -8 3 -7 14 -11 25 -8 27 7 18 48 -17 75 -13 11 -22 24 -18 29 3 5
2 9 -3 8 -18 -3 -36 1 -30 8 11 10 -42 33 -77 33 -17 0 -38 5 -46 11 -12 9
-11 10 7 6 13 -3 26 -1 29 4 3 5 2 9 -3 7 -4 -1 -23 2 -41 6 -23 5 -38 4 -49
-6 -15 -11 -16 -11 -10 5 5 13 1 17 -18 17 -26 0 -33 14 -13 26 7 4 8 3 4 -4
-4 -7 -2 -12 4 -12 6 0 13 7 16 15 5 11 13 13 28 9 11 -4 28 -7 37 -8 8 -1 24
-9 33 -19 10 -10 23 -16 30 -14 6 2 23 -9 39 -24 27 -29 47 -37 47 -20 0 11
-20 25 -35 26 -5 0 -9 8 -9 17 1 12 -10 19 -37 23 -52 9 -42 35 13 35 35 0 39
-2 28 -15 -7 -8 -9 -15 -5 -15 4 0 13 7 19 15 8 11 19 13 41 7 38 -10 118 1
93 12 -10 5 -15 12 -12 17 6 11 -110 10 -186 -2z"/>
<path d="M1473 3153 c-7 -2 -13 -8 -13 -13 0 -11 49 -19 56 -9 3 5 15 9 27 9
18 0 19 2 7 10 -16 10 -56 12 -77 3z"/>
<path d="M1820 3141 c0 -4 -11 -6 -25 -3 -32 6 -32 -3 5 -44 19 -23 27 -40 23
-51 -6 -16 -5 -16 10 -4 23 18 21 38 -3 46 -22 7 -24 13 -11 34 7 10 13 11 31
1 17 -9 19 -14 10 -20 -7 -4 -9 -13 -5 -20 6 -9 9 -9 16 1 7 11 9 11 9 -2 0
-20 39 -70 40 -51 0 7 -7 20 -15 28 -26 26 -16 36 14 15 36 -26 49 -27 29 -3
-23 26 -33 46 -20 38 6 -4 24 0 40 8 16 8 39 12 50 9 12 -3 22 -1 22 5 0 11
-23 22 -46 22 -20 0 -94 -33 -94 -42 0 -5 -5 -8 -11 -8 -6 0 -9 6 -6 14 4 10
-5 18 -25 25 -37 13 -38 13 -38 2z"/>
<path d="M1608 3127 c12 -7 20 -16 17 -19 -4 -3 16 -16 44 -29 51 -25 60 -34
39 -42 -7 -2 -5 -3 5 -2 9 2 17 -3 17 -11 0 -7 14 -20 30 -29 17 -9 30 -12 30
-8 0 14 -71 83 -85 83 -7 0 -15 4 -17 9 -4 12 -78 61 -92 61 -6 -1 -1 -6 12
-13z"/>
<path d="M1670 3132 c0 -4 15 -16 34 -26 19 -10 37 -25 40 -32 3 -8 10 -14 17
-14 6 0 19 -10 30 -22 15 -18 18 -19 13 -5 -9 26 -50 65 -91 88 -37 21 -43 23
-43 11z"/>
<path d="M2030 3110 c-44 -7 -62 -18 -54 -31 3 -6 12 -3 20 8 11 15 13 15 8 2
-7 -21 37 -66 71 -75 19 -5 25 -2 25 11 0 12 -5 15 -17 11 -19 -8 -47 19 -51
49 -2 12 0 16 5 9 4 -6 35 -14 69 -18 59 -6 94 -1 94 14 0 11 -130 26 -170 20z"/>
<path d="M1400 3106 c0 -7 74 -50 83 -48 4 1 7 -4 7 -11 0 -7 9 -18 20 -25 11
-7 20 -8 20 -3 0 5 -7 12 -17 15 -14 6 -14 8 3 21 18 14 18 14 -5 15 -14 0
-32 7 -41 15 -16 15 -70 31 -70 21z"/>
<path d="M1375 3057 c13 -7 19 -19 17 -31 -3 -14 0 -17 12 -13 14 6 15 3 6
-13 -8 -14 -8 -20 0 -20 6 0 13 7 16 15 5 11 10 10 27 -8 12 -13 19 -18 15
-13 -5 6 -8 18 -8 28 0 16 -23 24 -54 19 -5 -1 -6 5 -3 13 4 10 -1 20 -13 26
-26 14 -39 12 -15 -3z"/>
<path d="M1566 3046 c3 -9 17 -16 30 -16 16 0 25 -7 28 -22 3 -13 7 -32 9 -43
3 -14 5 -11 6 9 1 24 3 27 16 16 25 -21 17 -1 -10 24 -13 13 -23 25 -20 28 3
2 -5 4 -18 3 -12 -1 -28 2 -35 8 -9 7 -11 6 -6 -7z"/>
<path d="M1106 3041 c-4 -7 9 -13 36 -17 33 -6 38 -9 23 -15 -19 -7 -18 -8 3
-8 12 -1 22 4 22 10 0 8 5 8 15 -1 9 -7 15 -8 15 -2 0 13 -24 22 -59 22 -15 0
-32 5 -38 11 -8 8 -13 8 -17 0z"/>
<path d="M1975 3040 c3 -5 0 -10 -5 -12 -7 -2 -5 -11 5 -23 11 -14 15 -16 14
-5 -1 8 -1 22 0 30 1 13 3 13 10 1 5 -8 6 -24 1 -36 -5 -12 -4 -28 1 -36 7
-11 9 -8 9 9 0 13 4 21 9 17 13 -7 5 35 -9 49 -12 12 -42 17 -35 6z"/>
<path d="M2158 3033 c-14 -2 -32 -11 -39 -19 -10 -12 -9 -13 5 -8 9 3 22 1 29
-5 10 -8 23 -7 48 1 19 6 40 13 47 14 7 2 10 8 7 14 -6 10 -44 11 -97 3z"/>
<path d="M1834 3015 c-5 -12 30 -85 40 -85 2 0 -2 18 -7 40 -6 22 -15 40 -20
40 -4 0 -5 5 -2 10 3 6 4 10 0 10 -3 0 -8 -7 -11 -15z"/>
<path d="M1707 2999 c5 -17 3 -20 -8 -14 -10 6 -9 2 2 -11 9 -10 20 -29 24
-42 4 -13 10 -21 13 -17 11 10 8 59 -3 67 -5 4 -10 13 -10 19 0 7 -5 14 -12
16 -7 3 -9 -4 -6 -18z"/>
<path d="M1470 3000 c0 -5 7 -10 16 -10 8 0 13 -4 10 -9 -3 -5 2 -17 12 -28 9
-10 14 -14 10 -9 -12 15 -10 26 4 24 7 -2 27 -25 45 -53 18 -27 33 -45 33 -40
0 6 4 4 9 -4 6 -10 9 4 8 42 -1 42 -4 53 -11 40 -14 -27 -14 -27 -31 -13 -8 7
-12 17 -8 23 3 6 1 7 -6 3 -6 -4 -14 0 -17 8 -3 9 -10 13 -15 10 -5 -3 -9 0
-9 7 0 7 -3 9 -6 6 -4 -3 -15 -2 -25 4 -13 6 -19 6 -19 -1z"/>
<path d="M1890 3004 c1 -5 9 -26 19 -48 19 -40 38 -35 22 6 -9 25 -41 57 -41
42z"/>
<path d="M2240 2990 c-8 -5 -24 -7 -35 -4 -16 4 -17 3 -5 -5 10 -7 11 -11 3
-11 -7 0 -13 -5 -13 -11 0 -8 4 -8 14 0 8 7 26 13 40 15 15 1 27 7 27 12 1 13
-14 15 -31 4z"/>
<path d="M1280 2984 c0 -7 12 -19 26 -29 25 -16 26 -16 22 2 -2 10 -10 18 -18
18 -8 0 -18 5 -22 10 -5 6 -8 6 -8 -1z"/>
<path d="M1785 2960 c-4 -6 -2 -17 4 -23 6 -6 11 -7 11 -1 1 5 7 -2 16 -16
l15 -25 -7 25 c-9 35 -29 56 -39 40z"/>
<path d="M2263 2944 c-12 -13 -19 -24 -15 -24 4 0 0 -5 -8 -10 -13 -8 -13 -10
0 -10 11 0 11 -3 2 -12 -16 -16 -15 -28 3 -28 9 0 15 -9 15 -25 0 -14 4 -33 9
-43 5 -9 13 -26 17 -37 7 -15 9 -10 12 23 2 31 -3 54 -18 79 -11 19 -18 38
-15 41 3 3 5 -1 5 -9 1 -18 30 48 30 67 0 20 -11 16 -37 -12z"/>
<path d="M2022 2934 c2 -15 8 -29 14 -31 7 -2 10 6 6 22 -6 35 -24 44 -20 9z"/>
<path d="M1070 2930 c0 -5 3 -9 8 -8 13 4 69 -31 75 -46 3 -8 21 -22 39 -31
28 -14 30 -14 14 -1 -11 9 -21 26 -23 38 -2 21 -2 21 10 6 9 -11 17 -14 23 -8
5 5 27 7 49 3 29 -5 34 -8 20 -13 -18 -6 -17 -7 3 -12 14 -4 20 -2 16 4 -5 7
4 9 25 6 20 -3 30 -1 28 6 -3 6 -10 10 -16 8 -7 -1 -35 4 -64 13 -36 11 -53
12 -58 4 -9 -15 -51 12 -45 28 3 7 -1 10 -9 6 -8 -3 -12 -9 -9 -14 7 -12 -47
0 -60 12 -13 12 -26 11 -26 -1z"/>
<path d="M2069 2894 c2 -26 6 -42 10 -35 8 13 2 81 -8 81 -3 0 -4 -21 -2 -46z"/>
<path d="M1647 2906 c-7 -18 2 -56 14 -56 8 0 4 58 -4 67 -3 2 -7 -3 -10 -11z"/>
<path d="M2142 2910 c5 -17 37 -22 57 -10 14 8 14 9 1 10 -8 0 -26 3 -39 7
-17 4 -22 2 -19 -7z"/>
<path d="M2166 2860 l-29 -28 21 -39 c11 -21 25 -37 32 -35 6 1 9 -1 7 -5 -3
-5 3 -24 14 -43 16 -31 18 -32 19 -12 0 13 -5 32 -10 43 -6 11 -7 19 -1 19 8
0 19 -28 27 -72 2 -10 0 -18 -4 -18 -4 0 -8 -25 -8 -55 0 -30 4 -55 8 -55 8 0
12 36 8 79 -1 13 2 21 7 18 5 -3 10 -20 11 -38 1 -18 5 -35 8 -38 4 -4 4 24 1
61 -6 69 -40 142 -64 134 -6 -3 -17 2 -23 10 -7 8 -9 14 -4 14 4 0 -1 7 -12
15 -18 14 -18 16 14 45 18 16 27 30 20 29 -7 -1 -26 -14 -42 -29z"/>
<path d="M1119 2848 c12 -16 11 -18 -5 -19 -14 0 -11 -4 9 -11 15 -5 24 -14
21 -20 -4 -6 2 -6 14 1 11 6 28 8 38 4 12 -4 15 -3 10 6 -5 7 -17 10 -28 8
-23 -7 -50 2 -43 13 3 4 -3 14 -13 21 -15 13 -16 12 -3 -3z"/>
<path d="M1745 2803 c9 -32 -3 -47 -23 -31 -13 11 -14 11 -11 -1 3 -8 16 -21
30 -30 15 -9 20 -10 12 -2 -8 10 -9 18 -1 31 8 12 7 22 -1 36 -11 18 -12 17
-6 -3z"/>
<path d="M1203 2777 c2 -6 9 -13 15 -13 25 -3 27 -5 13 -13 -12 -8 -9 -11 13
-17 19 -4 31 -2 36 6 4 7 15 10 24 7 9 -4 16 -2 16 3 0 13 -37 13 -45 0 -3 -5
-13 -10 -22 -10 -12 0 -13 3 -4 14 9 11 6 16 -19 25 -24 8 -31 8 -27 -2z"/>
<path d="M1650 2780 c-24 -7 -24 -8 -5 -16 11 -4 29 -16 39 -26 11 -10 22 -16
25 -13 2 3 -5 14 -17 26 -13 11 -20 24 -17 30 4 5 5 9 3 8 -2 -1 -14 -4 -28
-9z"/>
<path d="M1485 2763 c-45 -7 -51 -20 -8 -18 60 3 65 4 58 15 -3 6 -9 9 -13 9
-4 -1 -20 -4 -37 -6z"/>
<path d="M1777 2733 c3 -7 9 -13 14 -13 14 0 11 -28 -3 -33 -8 -3 -6 -6 5 -6
9 -1 17 -5 17 -11 0 -5 5 -10 11 -10 8 0 8 4 0 14 -6 8 -13 27 -14 43 -1 19
-7 29 -18 29 -10 0 -15 -6 -12 -13z"/>
<path d="M1390 2732 c0 -4 -16 -14 -35 -21 -19 -7 -42 -19 -51 -28 -14 -15
-19 -15 -51 1 -20 9 -38 15 -41 12 -3 -3 3 -8 12 -12 26 -10 -1 -34 -38 -33
-25 0 -27 2 -12 8 14 5 16 10 8 15 -7 4 -26 0 -44 -8 -36 -18 -41 -19 -34 -7
4 5 -3 7 -14 4 -14 -4 -36 7 -67 31 -32 25 -49 33 -54 25 -9 -15 14 -39 36
-39 9 0 22 -6 29 -12 11 -11 11 -15 -3 -25 -9 -7 -11 -12 -4 -13 6 0 14 4 18
9 9 16 84 2 136 -25 27 -13 52 -24 56 -24 4 1 -9 10 -30 21 -22 11 -37 22 -35
25 3 2 25 4 51 5 25 1 44 6 41 11 -3 4 5 8 19 8 13 0 33 9 44 19 12 11 23 18
26 15 3 -3 19 3 36 14 17 10 28 22 24 25 -9 10 -23 9 -23 -1z"/>
<path d="M1029 2711 c17 -16 27 -18 36 -11 10 8 15 6 19 -7 3 -10 16 -19 27
-20 20 -2 20 0 -6 28 -28 28 -46 37 -44 22 3 -21 -3 -22 -28 -7 l-28 16 24
-21z"/>
<path d="M1596 2716 c3 -7 21 -10 45 -8 49 5 47 8 -8 14 -28 4 -40 2 -37 -6z"/>
<path d="M1407 2695 c-9 -8 -22 -15 -29 -15 -14 -1 -48 -23 -48 -32 0 -12 89
25 95 39 8 23 0 26 -18 8z"/>
<path d="M766 2644 c-9 -24 -7 -46 4 -39 6 4 9 -3 7 -16 -1 -14 4 -23 16 -24
9 -2 17 1 17 6 0 5 -7 9 -15 9 -8 0 -12 6 -9 14 3 8 0 17 -6 21 -6 4 -8 15 -5
26 8 23 0 26 -9 3z"/>
<path d="M1770 2620 c0 -4 15 -11 34 -18 27 -10 38 -10 62 3 16 8 22 15 14 16
-83 3 -110 3 -110 -1z"/>
<path d="M2170 2628 c0 -4 4 -18 10 -32 6 -17 6 -26 0 -26 -17 0 -12 -87 5
-94 8 -3 12 -12 9 -21 -3 -8 -10 -13 -14 -10 -5 3 -6 -4 -3 -15 3 -11 9 -17
14 -14 10 6 12 -9 3 -19 -11 -11 -34 5 -34 23 0 10 -6 21 -12 23 -10 4 -10 7
0 15 7 5 10 16 6 25 -9 25 -23 20 -16 -5 5 -21 4 -22 -11 -9 -14 11 -17 11
-17 0 0 -8 9 -20 21 -27 11 -7 19 -18 17 -24 -3 -7 4 -20 14 -30 10 -10 18
-27 18 -37 0 -24 21 -32 38 -14 15 15 9 43 -9 43 -8 0 -8 4 1 15 6 8 9 18 6
24 -3 5 -1 11 4 13 7 2 6 17 -4 44 -8 23 -13 59 -12 80 1 26 -4 46 -16 58 -10
11 -18 17 -18 14z"/>
<path d="M950 2589 c0 -5 -4 -8 -9 -5 -5 3 -14 -1 -21 -9 -11 -13 -10 -14 4
-9 13 5 15 2 9 -12 -6 -16 -4 -17 9 -7 8 7 17 10 20 8 3 -3 3 6 1 20 -5 25
-13 34 -13 14z"/>
<path d="M1866 2581 c-4 -6 -23 -11 -42 -11 -23 0 -33 -4 -28 -11 4 -7 23 -9
52 -5 25 3 50 2 56 -3 7 -6 17 -6 26 -1 13 8 12 10 -2 10 -10 0 -18 5 -18 11
0 5 -5 7 -11 3 -6 -3 -15 -1 -19 6 -5 9 -9 9 -14 1z"/>
<path d="M831 2533 c3 -45 0 -65 -11 -58 -5 3 -10 2 -10 -4 0 -5 -3 -16 -6
-25 -12 -31 11 -15 29 20 19 39 23 94 6 94 -5 0 -9 -12 -8 -27z"/>
<path d="M1933 2533 c-17 -13 -17 -13 3 -4 18 8 23 6 34 -15 9 -16 16 -20 21
-13 4 7 13 -2 24 -25 9 -20 21 -34 25 -31 5 3 14 -3 20 -12 10 -16 11 -16 4 2
-3 11 -9 30 -11 42 -3 13 -9 20 -14 17 -5 -3 -9 5 -9 18 0 19 -2 20 -10 8 -9
-13 -12 -12 -25 4 -19 25 -39 28 -62 9z"/>
<path d="M973 2522 c-6 -4 -15 -20 -19 -36 -9 -36 12 -27 27 11 11 29 9 35 -8
25z"/>
<path d="M918 2438 c-27 -23 -68 -106 -74 -152 -4 -25 -11 -43 -15 -40 -5 3
-9 -8 -9 -24 0 -34 25 -99 32 -86 3 5 9 49 13 97 6 73 11 92 31 114 28 30 30
37 8 29 -9 -3 -2 11 16 34 31 39 30 53 -2 28z"/>
<path d="M1987 2438 c-2 -7 6 -40 18 -73 30 -80 45 -153 51 -249 3 -44 9 -100
13 -125 13 -83 4 -239 -19 -323 -5 -21 -14 -54 -19 -73 -5 -20 -15 -42 -21
-51 -7 -8 -10 -17 -7 -21 4 -3 2 -12 -4 -19 -22 -26 -48 -87 -42 -97 4 -6 1
-7 -7 -2 -10 6 -12 4 -7 -8 3 -9 1 -22 -6 -29 -7 -8 -13 -20 -15 -28 -4 -26
-98 -104 -177 -148 -101 -56 -185 -76 -284 -65 l-76 8 105 5 c77 5 118 12 154
28 27 12 47 25 44 28 -3 3 -23 -2 -44 -12 -23 -10 -78 -18 -136 -21 -103 -6
-162 4 -228 39 -32 17 -33 17 -14 1 12 -10 30 -24 40 -31 17 -11 17 -12 -5 -6
-40 11 -204 114 -243 154 -20 20 -41 54 -47 76 -6 21 -18 49 -26 62 -9 12 -13
27 -9 34 5 7 3 8 -6 3 -8 -5 -11 -3 -8 6 3 8 0 25 -8 39 -7 14 -26 59 -43 100
-28 71 -35 75 -43 25 -4 -25 -68 -36 -68 -11 0 8 -6 16 -12 18 -9 3 -8 12 5
31 16 25 15 32 -6 28 -4 -1 -7 4 -6 11 2 7 -5 31 -15 53 -13 30 -16 54 -11 95
9 78 14 92 32 86 9 -4 -1 12 -21 35 -36 39 -37 42 -20 60 15 17 16 19 1 19
-27 0 -47 -53 -47 -122 0 -44 9 -89 30 -148 17 -46 30 -101 30 -121 0 -38 31
-89 54 -89 7 0 25 10 40 21 15 12 28 20 30 18 2 -2 11 -29 21 -59 10 -30 35
-89 56 -130 49 -97 57 -138 60 -292 1 -71 5 -128 9 -128 20 0 28 172 11 230
-6 19 -11 36 -11 37 0 1 7 0 15 -3 8 -4 15 -13 15 -21 0 -8 4 -11 10 -8 5 3
15 1 22 -5 7 -5 29 -23 48 -40 66 -56 172 -101 274 -118 87 -14 103 -14 175 0
89 18 180 60 257 119 28 21 53 39 57 39 6 0 3 -43 -5 -56 -3 -5 -2 -33 1 -61
5 -34 4 -54 -3 -57 -7 -3 -6 -5 1 -5 7 -1 20 -15 28 -32 10 -18 22 -28 29 -26
8 3 19 0 25 -6 23 -23 10 8 -15 34 -34 35 -45 87 -38 178 5 62 14 91 55 176
26 56 55 128 64 160 8 32 16 60 18 62 2 2 17 -3 32 -11 20 -11 34 -12 47 -5
18 10 22 21 33 94 3 22 16 69 28 105 29 85 30 213 4 254 -20 30 -36 29 -19 -1
9 -15 4 -25 -25 -55 -29 -30 -32 -36 -14 -31 11 3 21 9 21 14 0 4 9 13 20 19
19 10 20 9 15 -32 -14 -99 -20 -107 -36 -46 l-8 33 4 -35 c3 -19 8 -51 11 -70
8 -46 -36 -156 -61 -154 -9 1 -14 -3 -12 -9 2 -7 12 -12 23 -12 12 0 20 -8 22
-22 3 -17 -3 -24 -22 -29 -14 -3 -33 -3 -42 0 -24 9 -10 95 19 119 16 12 17
16 5 11 -16 -5 -17 -1 -12 42 4 27 10 69 14 94 6 31 4 54 -4 75 -8 17 -14 41
-15 55 -1 14 -3 31 -3 38 -1 6 -4 12 -7 12 -3 0 -7 48 -8 106 -1 62 -7 112
-14 120 -6 8 -9 21 -5 29 3 9 2 13 -4 10 -6 -3 -10 5 -10 19 0 27 -15 35 -23
14 -3 -7 -6 1 -6 19 -1 33 -16 52 -24 31z m-1239 -431 c15 -16 18 -27 12 -37
-5 -8 -10 -27 -10 -42 0 -16 -4 -28 -9 -28 -5 0 -11 -6 -14 -12 -2 -7 -2 1 0
17 2 17 1 25 -4 18 -5 -6 -8 14 -8 48 0 32 3 59 6 59 3 0 15 -10 27 -23z"/>
<path d="M707 2412 c-15 -3 -17 -9 -12 -30 4 -15 12 -30 18 -34 9 -5 9 -12 1
-25 -8 -13 -6 -31 7 -73 10 -30 23 -74 29 -98 10 -38 13 -42 27 -30 14 12 14
10 0 -19 -10 -18 -17 -42 -16 -55 0 -13 3 -17 6 -10 2 6 9 9 15 6 6 -4 8 2 3
16 -5 15 -4 20 4 16 6 -4 11 -2 11 4 0 6 5 8 10 5 6 -4 10 10 10 34 0 23 -3
40 -7 40 -21 -3 -33 2 -30 14 1 6 -3 11 -9 10 -9 -2 -8 9 1 40 10 35 10 44 -1
55 -19 17 -24 15 -25 -10 -1 -15 -4 -10 -8 12 -8 39 6 71 20 48 14 -22 10 -2
-6 28 -13 25 -15 26 -16 9 -1 -11 -5 -4 -8 15 -5 28 -10 35 -24 32z"/>
<path d="M2170 2300 c24 -47 24 -51 6 -44 -11 4 -13 -1 -6 -29 10 -45 -5 -73
-19 -37 -6 17 -10 19 -10 8 -1 -9 4 -20 9 -23 6 -3 10 -11 10 -16 0 -6 -4 -8
-9 -5 -4 3 -6 -6 -3 -19 2 -14 7 -25 11 -25 19 1 29 23 41 93 8 42 18 77 22
77 4 0 8 7 8 15 0 13 -18 20 -42 16 -5 0 -8 3 -8 8 0 5 -7 11 -15 15 -12 4
-11 -3 5 -34z"/>
<path d="M1643 2313 c-7 -2 -13 -9 -13 -14 0 -4 7 -6 15 -3 18 7 19 -4 3 -26
-7 -9 -3 -6 9 7 17 17 22 19 27 8 3 -8 12 -12 21 -9 8 3 15 1 15 -4 0 -17 -20
-25 -33 -14 -8 6 -18 3 -32 -10 -20 -20 -20 -20 0 -15 11 3 47 8 80 12 33 4
66 12 72 17 9 7 23 5 47 -6 19 -9 39 -16 44 -16 6 0 17 -6 24 -14 8 -7 24 -17
36 -20 18 -6 22 -3 22 12 0 11 -9 30 -20 43 -19 23 -21 23 -31 6 -10 -17 -12
-17 -30 4 -10 12 -19 19 -19 14 0 -4 -11 0 -25 9 -27 18 -75 22 -75 6 0 -5 8
-10 17 -10 13 0 14 -3 6 -11 -14 -14 -86 -3 -77 12 3 6 12 8 20 5 7 -3 16 -1
19 4 4 6 -3 10 -14 10 -11 0 -23 -4 -26 -10 -3 -5 -11 -10 -17 -10 -7 0 -6 6
2 15 11 13 8 15 -21 14 -19 0 -40 -3 -46 -6z"/>
<path d="M987 2281 c-24 -25 -53 -89 -43 -98 8 -8 33 10 53 39 15 21 19 34 12
39 -8 4 -7 9 2 15 7 4 14 3 17 -4 2 -7 18 -12 35 -12 30 1 31 1 13 15 -11 8
-15 15 -9 15 7 0 15 -4 18 -10 3 -5 13 -10 22 -10 9 0 24 -7 33 -15 10 -9 40
-16 76 -18 57 -2 59 -1 56 23 -3 31 -10 37 -47 45 -28 6 -29 5 -11 -9 10 -8
23 -13 27 -10 4 2 13 -5 20 -17 10 -20 9 -21 -7 -14 -34 14 -71 17 -78 6 -7
-11 -36 -4 -36 10 0 5 3 8 8 8 18 -3 35 2 28 8 -3 4 -31 7 -62 8 -40 1 -58 -3
-65 -15 -7 -12 -10 -11 -15 8 -8 28 -13 28 -47 -7z"/>
<path d="M1295 2286 c0 -13 3 -22 8 -19 4 2 7 -3 7 -12 0 -9 5 -13 10 -10 14
9 12 20 -7 44 l-18 22 0 -25z"/>
<path d="M1597 2303 c-11 -10 -8 -35 2 -28 5 3 11 -3 14 -12 2 -10 4 -3 4 15
0 31 -7 39 -20 25z"/>
<path d="M1081 2253 c-14 -3 -40 -15 -59 -28 -33 -22 -33 -23 -8 -21 14 0 26
5 26 9 0 5 5 5 10 2 6 -3 10 -2 10 4 0 5 14 12 30 16 17 4 30 11 30 16 0 5 -3
8 -7 8 -5 -1 -19 -4 -32 -6z"/>
<path d="M1113 2156 c-38 -13 -91 -53 -105 -80 -9 -16 -7 -18 10 -14 14 4 24
-1 33 -18 9 -18 15 -21 26 -13 8 7 13 7 13 2 0 -6 11 -8 25 -5 38 7 30 19 -16
25 -61 8 -70 22 -34 52 38 31 45 31 45 0 0 -18 7 -28 26 -36 35 -13 74 11 74
46 0 30 4 31 42 4 34 -24 28 -36 -24 -53 -19 -7 -33 -18 -34 -29 -1 -9 0 -11
2 -4 6 16 106 43 123 33 22 -14 11 11 -16 36 -54 50 -135 73 -190 54z"/>
<path d="M1704 2147 c-37 -12 -81 -43 -93 -65 -7 -14 -4 -17 17 -19 15 -1 43
-4 62 -7 31 -5 30 -4 -9 9 -24 8 -46 16 -48 18 -2 2 14 16 36 30 36 24 62 23
46 -3 -8 -13 31 -50 53 -50 27 0 42 14 50 45 l8 28 29 -25 c35 -30 27 -46 -26
-54 -46 -8 -55 -17 -34 -34 9 -7 15 -8 15 -2 0 17 50 21 59 4 6 -10 10 -11 15
-3 4 6 2 11 -5 11 -8 0 -8 4 1 15 7 8 21 15 31 15 33 0 22 23 -26 56 -65 44
-114 52 -181 31z"/>
<path d="M2130 2106 c0 -14 -4 -27 -9 -30 -5 -3 -11 -19 -13 -36 l-5 -30 21
22 c38 40 44 61 24 81 -17 16 -18 16 -18 -7z"/>
<path d="M846 2095 c-3 -9 -4 -21 0 -26 3 -5 0 -9 -6 -9 -6 0 -9 -8 -6 -17 3
-10 2 -24 -3 -31 -6 -10 -10 -6 -15 14 -6 21 -10 24 -16 14 -5 -8 -3 -22 5
-34 8 -12 16 -37 18 -56 2 -19 10 -45 18 -58 12 -20 12 -24 -1 -32 -10 -6 -11
-10 -2 -10 6 0 12 -10 12 -22 0 -19 -2 -20 -11 -8 -8 12 -9 11 -6 -5 2 -11 9
-19 16 -17 9 2 10 -4 5 -20 -6 -21 -6 -21 11 -4 13 13 15 23 8 39 -5 12 -10
83 -12 157 -2 74 -4 136 -6 138 -1 2 -5 -4 -9 -13z"/>
<path d="M1331 1844 c-24 -30 -29 -102 -9 -122 15 -15 48 -16 48 -2 0 15 28
12 55 -6 13 -9 30 -14 36 -12 7 2 -5 14 -26 27 -33 19 -42 21 -62 10 -35 -19
-58 7 -49 54 8 41 33 57 39 24 3 -13 5 -7 6 16 1 44 -10 47 -38 11z"/>
<path d="M1610 1850 c0 -6 7 -22 16 -35 8 -13 14 -36 12 -52 -3 -31 -9 -32
-85 -15 -23 5 -40 5 -37 1 3 -5 -2 -12 -10 -15 -9 -3 -16 -14 -16 -23 0 -14 2
-14 10 -1 12 20 89 23 97 4 13 -35 53 4 53 52 0 19 -7 48 -15 64 -16 31 -25
38 -25 20z"/>
<path d="M1373 1673 c-7 -2 -13 -9 -13 -15 0 -6 -8 -17 -17 -24 -16 -11 -14
-12 14 -10 37 2 38 3 47 34 7 22 -3 27 -31 15z"/>
<path d="M1540 1656 c0 -24 23 -46 48 -45 24 2 25 2 4 6 -20 4 -21 7 -10 21
11 13 11 15 -3 10 -9 -4 -22 -1 -28 5 -6 6 -11 8 -11 3z"/>
<path d="M1430 1629 c0 -11 43 -19 67 -13 37 10 26 19 -22 19 -25 0 -45 -2
-45 -6z"/>
<path d="M1253 1623 c-21 -7 -76 -63 -69 -70 3 -3 6 0 6 8 0 11 2 11 10 -1 6
-10 10 -11 10 -2 0 6 6 11 13 10 7 -2 11 5 9 16 -2 10 1 16 5 13 12 -8 36 8
32 20 -2 6 -10 8 -16 6z"/>
<path d="M1276 1541 c-16 -3 -31 -12 -34 -19 -4 -12 12 -11 78 3 8 2 17 4 20
4 3 1 -2 6 -10 11 -8 5 -17 9 -20 9 -3 -1 -18 -4 -34 -8z"/>
<path d="M1355 1542 c13 -13 136 -30 160 -22 17 6 60 2 153 -15 53 -10 58 9 5
21 -21 4 -44 8 -50 7 -7 0 -11 2 -9 6 2 3 -25 6 -60 6 -35 0 -64 -3 -64 -7 0
-4 -10 -5 -22 -2 -62 13 -123 16 -113 6z"/>
<path d="M1345 1410 c21 -23 36 -25 82 -8 25 9 43 9 82 -1 36 -9 55 -10 68 -2
10 6 16 11 13 12 -77 17 -190 23 -190 9 0 -7 -6 -8 -19 0 -11 5 -27 10 -37 10
-16 0 -16 -1 1 -20z"/>
<path d="M2010 1041 c0 -5 33 -22 73 -37 39 -15 83 -35 98 -45 14 -10 43 -19
65 -21 24 -2 38 -8 37 -15 -2 -9 4 -10 21 -3 19 7 28 4 46 -17 13 -15 25 -21
29 -16 4 7 15 7 29 2 13 -5 21 -13 17 -19 -3 -6 1 -7 9 -4 9 4 16 1 16 -6 0
-7 7 -10 15 -7 8 4 17 1 21 -4 4 -6 19 -8 36 -5 20 4 46 -1 77 -15 25 -11 70
-23 100 -25 30 -2 59 -8 65 -13 6 -4 24 -11 41 -15 16 -4 48 -16 70 -26 22
-10 53 -22 68 -25 15 -4 24 -11 21 -16 -3 -5 4 -9 15 -9 36 0 23 16 -36 48
-72 37 -126 56 -273 93 -199 51 -361 108 -421 149 -43 29 -72 40 -127 49 -86
13 -112 14 -112 2z"/>
<path d="M900 1022 c-19 -10 -54 -30 -78 -46 -24 -16 -51 -30 -61 -31 -10 0
-81 -33 -157 -72 -143 -73 -160 -80 -402 -164 -79 -27 -157 -56 -173 -64 -73
-38 3 -31 96 9 57 25 95 34 114 29 10 -3 22 1 26 7 5 9 1 10 -16 5 -17 -4 -20
-4 -10 4 8 5 32 8 53 6 21 -2 36 0 33 4 -2 5 15 14 38 20 24 6 54 19 68 29 30
23 59 34 59 23 0 -5 18 0 40 10 22 11 40 24 40 29 0 5 7 7 15 4 8 -4 15 -1 15
5 0 6 3 10 8 9 14 -3 77 30 96 51 11 11 27 21 38 21 10 0 18 5 18 10 0 15 50
12 51 -2 1 -7 4 -2 8 11 4 14 13 27 20 29 10 3 12 0 8 -12 -8 -20 7 -21 24 0
7 8 33 26 58 39 25 13 55 30 66 39 19 15 18 15 -20 15 -22 0 -56 -8 -75 -17z"/>
<path d="M2210 903 c-1 -112 -74 -229 -254 -406 -119 -116 -140 -132 -226
-174 -52 -25 -102 -49 -110 -53 -9 -4 -46 9 -100 38 -47 25 -116 58 -153 73
-37 16 -80 37 -95 47 -15 11 -49 31 -77 47 -62 34 -187 135 -240 193 -58 64
-94 135 -101 197 -4 30 -11 52 -16 49 -4 -3 -6 -10 -3 -15 4 -5 1 -9 -6 -9 -8
0 -8 -4 -1 -12 5 -7 13 -34 16 -60 4 -26 11 -50 17 -53 5 -4 9 -18 9 -33 0
-19 3 -23 9 -14 6 11 10 10 15 -5 4 -10 7 -19 6 -21 -1 -2 8 -12 19 -21 21
-19 29 -37 11 -26 -5 3 -10 1 -10 -4 0 -6 7 -11 16 -11 9 0 12 -5 8 -12 -4 -7
-3 -8 5 -4 10 6 102 -60 122 -87 4 -5 17 -14 30 -21 13 -6 28 -20 34 -31 6
-12 18 -19 30 -17 11 1 36 -11 55 -28 34 -30 134 -85 124 -68 -3 4 2 8 10 8 9
0 16 -3 16 -7 0 -5 33 -24 74 -43 54 -26 76 -43 87 -65 10 -24 14 -26 17 -12
3 17 5 17 22 -3 16 -19 22 -19 71 -9 30 7 61 20 71 30 9 11 21 19 27 19 6 0
11 3 11 8 0 15 67 52 87 48 15 -3 20 0 17 8 -3 7 7 18 21 24 14 6 25 16 25 22
0 5 45 54 100 109 55 55 100 104 100 110 0 6 7 11 15 11 8 0 15 8 15 18 0 11
11 32 25 48 14 16 35 54 47 84 22 59 34 160 18 160 -6 0 -10 -12 -10 -27z"/>
<path d="M2260 732 c0 -5 -18 -37 -40 -70 -22 -34 -36 -62 -31 -62 5 0 20 17
32 38 13 20 25 39 28 42 8 7 31 48 31 55 0 3 -4 5 -10 5 -5 0 -10 -4 -10 -8z"/>
<path d="M1270 310 c19 -11 44 -19 55 -19 13 0 7 7 -20 20 -52 24 -80 24 -35
-1z"/>
</g>
</svg>
