<svg xmlns="http://www.w3.org/2000/svg" version="1.0" preserveAspectRatio="xMidYMid meet" viewBox="622 199.54 1296 1496.46">

<g transform="translate(0.000000,1696.000000) scale(0.100000,-0.100000)" fill="#000000" stroke="none">
<path d="M12575 14954 c-16 -8 -40 -12 -52 -9 -13 3 -34 -1 -48 -11 -13 -9 -39 -17 -57 -19 -51 -5 -92 -16 -108 -31 -21 -17 -31 -18 -41 -2 -7 10 -11 9 -21 -5 -10 -13 -27 -18 -58 -19 -25 0 -54 -5 -64 -10 -39 -21 -130 -37 -144 -26 -9 8 -19 7 -37 -2 -13 -7 -31 -10 -39 -7 -9 4 -27 -6 -45 -23 -30 -31 -53 -42 -31 -15 10 12 10 15 -3 15 -9 0 -19 -5 -22 -10 -4 -6 -10 -8 -15 -5 -5 3 -15 -3 -21 -13 -8 -13 -20 -17 -36 -14 -15 3 -42 -7 -74 -27 -55 -34 -64 -37 -52 -18 4 6 -5 4 -20 -5 -14 -10 -35 -18 -45 -18 -12 0 -22 -9 -25 -21 -5 -17 -11 -20 -31 -17 -14 3 -26 2 -26 -3 0 -16 -68 -60 -99 -64 -17 -2 -36 -7 -43 -12 -28 -17 -78 -30 -84 -21 -3 5 -12 4 -21 -4 -8 -6 -24 -13 -35 -15 -12 -2 -33 -10 -47 -18 -35 -19 -74 -37 -86 -39 -5 -1 -37 -14 -69 -30 -56 -27 -85 -35 -131 -39 -11 0 -28 -11 -38 -24 -10 -13 -25 -23 -34 -23 -8 0 -24 -12 -35 -26 -12 -15 -28 -24 -37 -21 -19 5 -41 -15 -41 -36 0 -8 -7 -20 -15 -27 -8 -7 -15 -23 -15 -36 0 -13 -8 -25 -19 -29 -21 -6 -37 -35 -20 -35 6 0 7 -5 4 -10 -4 -6 -14 -8 -23 -6 -22 7 -31 0 -66 -51 -16 -24 -33 -43 -37 -43 -5 0 -9 -7 -9 -15 0 -9 -9 -15 -25 -15 -26 0 -33 14 -14 26 8 4 7 9 -2 15 -11 8 -11 12 4 23 9 7 17 18 17 25 0 6 5 20 12 31 19 30 3 35 -32 10 -21 -15 -30 -29 -27 -41 3 -9 -4 -32 -16 -51 l-20 -33 -9 25 c-6 16 -5 33 1 47 15 34 -1 28 -21 -7 -11 -20 -22 -28 -32 -24 -12 5 -16 -1 -16 -24 0 -17 -5 -34 -11 -37 -6 -4 -8 -14 -5 -22 3 -8 -2 -26 -11 -40 -10 -15 -18 -31 -18 -37 -3 -37 -18 -116 -23 -116 -2 0 -11 8 -19 18 -13 15 -14 14 -7 -13 9 -39 7 -71 -7 -96 -9 -17 -13 -18 -26 -8 -8 7 -13 23 -10 36 2 14 -1 23 -8 23 -8 0 -12 -16 -11 -47 1 -29 -4 -48 -11 -50 -19 -7 -16 -78 3 -94 9 -7 14 -22 11 -36 -2 -13 0 -23 4 -23 12 0 11 -31 -1 -50 -5 -8 -12 -11 -17 -7 -4 5 -1 12 6 16 7 5 10 14 7 20 -8 12 -35 -7 -33 -23 5 -24 -23 -13 -42 17 -24 39 -62 57 -54 26 3 -11 9 -19 13 -19 4 0 11 -11 14 -25 4 -14 13 -25 21 -25 8 0 12 -6 9 -14 -3 -8 -1 -17 4 -20 12 -7 4 -46 -9 -46 -5 0 -16 11 -25 25 -9 14 -19 24 -21 21 -6 -6 28 -78 46 -96 13 -13 13 -15 -2 -18 -9 -2 -14 -9 -10 -18 3 -7 10 -11 17 -7 7 4 7 2 -1 -7 -9 -10 -15 -10 -28 4 -18 18 -35 21 -35 6 0 -5 5 -10 10 -10 6 0 10 -7 10 -15 0 -22 19 -54 67 -114 l28 -34 -28 7 c-35 8 -34 -3 3 -45 35 -40 18 -53 -28 -20 -19 13 -33 17 -42 11 -8 -5 -12 -11 -10 -13 3 -2 20 -14 38 -26 17 -12 32 -31 32 -41 0 -11 17 -33 39 -50 30 -24 37 -36 33 -55 -3 -18 0 -25 11 -25 26 0 40 -26 22 -43 -8 -9 -15 -23 -15 -32 0 -8 -7 -27 -16 -40 -9 -13 -13 -33 -10 -43 5 -13 -2 -30 -19 -50 -30 -35 -31 -44 -7 -40 14 3 16 -3 13 -37 -1 -22 -12 -61 -22 -88 -23 -57 -24 -103 -4 -148 12 -29 20 -32 16 -6 0 4 4 7 9 7 6 0 10 -24 11 -52 1 -94 9 -161 19 -173 12 -14 12 -127 -1 -229 -11 -87 -6 -125 13 -92 10 18 13 15 24 -24 10 -32 10 -46 2 -51 -8 -5 -8 -15 1 -37 9 -22 10 -40 3 -64 -13 -45 -13 -78 0 -78 7 0 9 -17 5 -47 -6 -46 -5 -47 10 -25 21 29 30 28 31 -5 0 -16 5 -53 11 -83 5 -30 12 -110 14 -178 2 -75 8 -127 15 -134 28 -28 -3 -104 -37 -93 -42 13 -46 -15 -43 -259 4 -233 14 -330 47 -416 9 -25 24 -70 31 -100 8 -30 23 -71 33 -90 12 -23 19 -60 20 -110 2 -89 34 -218 45 -183 4 12 2 30 -6 42 -14 23 -4 41 14 23 18 -18 46 -14 58 7 5 11 15 42 21 70 9 42 15 52 35 57 14 4 27 4 30 2 2 -3 -8 -28 -23 -56 -25 -48 -26 -54 -14 -88 11 -31 11 -38 -2 -51 -10 -11 -13 -23 -8 -37 5 -11 9 -49 9 -84 0 -49 -3 -62 -13 -58 -8 3 -15 0 -18 -7 -2 -6 -18 -10 -35 -9 -21 2 -34 -3 -38 -13 -11 -26 36 -84 89 -111 45 -23 57 -25 115 -19 36 4 81 14 100 23 32 16 35 16 48 -3 8 -10 14 -26 14 -35 0 -13 19 -90 59 -235 4 -16 29 -74 54 -129 26 -54 47 -107 47 -117 0 -11 4 -19 10 -19 10 0 54 -61 89 -122 11 -21 41 -63 67 -95 64 -79 73 -105 80 -240 3 -65 9 -161 13 -213 4 -52 9 -169 10 -260 l2 -165 -56 -29 c-78 -40 -174 -156 -245 -296 -13 -25 -40 -71 -61 -102 -22 -31 -39 -59 -39 -62 0 -3 -24 -45 -53 -93 -29 -48 -77 -132 -106 -185 -30 -54 -62 -105 -72 -114 -10 -9 -64 -33 -121 -54 -124 -46 -449 -187 -462 -200 -6 -6 -16 -10 -24 -10 -13 0 -461 -214 -512 -246 -28 -17 -531 -266 -655 -324 -95 -44 -268 -127 -380 -180 -44 -21 -107 -51 -140 -65 -33 -15 -125 -63 -205 -108 -80 -44 -188 -103 -240 -132 -52 -29 -133 -72 -180 -95 -132 -65 -240 -132 -252 -154 -6 -12 -59 -95 -116 -186 -129 -201 -172 -282 -252 -470 -152 -354 -240 -656 -395 -1355 -153 -688 -221 -1079 -277 -1595 -8 -75 -13 -288 -13 -610 l-1 -495 -37 -215 c-56 -324 -67 -391 -67 -422 l0 -28 6480 0 c3564 0 6480 4 6480 8 0 5 -9 73 -20 153 -24 170 -37 396 -45 794 -10 479 -44 919 -116 1515 -135 1124 -254 1673 -495 2288 -99 253 -187 414 -303 557 -23 28 -41 59 -41 69 0 32 -90 111 -141 124 -24 6 -227 103 -449 214 -223 112 -494 241 -602 286 -108 45 -292 129 -410 186 -235 113 -254 122 -348 161 -36 15 -103 46 -150 70 -47 23 -119 57 -160 75 -41 18 -127 57 -190 87 -129 61 -330 149 -555 243 -82 35 -156 68 -164 74 -13 10 -84 105 -191 254 -16 23 -76 134 -132 245 -152 304 -216 390 -328 447 -32 16 -61 34 -65 40 -13 22 -16 197 -7 450 12 304 15 318 100 410 51 55 132 196 132 229 0 9 17 53 39 96 35 73 61 145 89 250 6 22 15 51 19 65 4 14 7 30 8 35 6 54 18 124 25 134 5 10 22 5 65 -18 48 -26 69 -31 124 -31 36 1 75 6 87 13 32 19 74 54 74 62 0 5 -8 1 -17 -7 -37 -32 -157 -54 -171 -31 -4 5 -20 13 -37 17 -16 4 -43 21 -58 38 -26 28 -27 34 -22 97 7 84 24 160 40 186 10 17 10 24 -1 40 -12 16 -11 20 6 32 11 8 20 22 20 32 0 10 3 21 7 25 10 10 12 36 3 36 -5 0 -12 -4 -15 -10 -3 -5 -13 -10 -22 -10 -13 0 -13 3 -3 16 8 8 14 36 16 62 8 141 16 248 19 260 6 18 25 15 25 -4 0 -14 3 -14 15 -4 12 10 18 10 30 0 8 -6 18 -9 22 -7 13 8 7 205 -6 221 -8 10 -8 21 -1 40 5 15 10 39 10 53 0 16 16 42 49 75 58 59 86 60 97 2 8 -43 16 -43 32 -1 l12 32 14 -27 c17 -32 36 -117 36 -158 0 -38 18 -39 26 -2 3 15 11 45 17 67 6 22 12 47 12 55 3 27 17 65 27 71 13 9 29 136 22 176 -3 18 -19 51 -35 73 -29 40 -37 70 -19 70 5 0 7 13 4 30 -4 17 -2 30 3 30 5 0 10 25 11 56 1 31 6 62 11 68 5 6 13 40 17 76 6 59 8 76 12 137 2 15 7 20 20 16 16 -4 20 6 29 64 7 45 7 90 1 128 -6 38 -5 67 1 80 5 11 12 38 15 59 3 22 9 42 14 45 5 3 8 20 8 36 -1 24 4 31 22 33 25 4 26 10 13 45 -6 16 -6 38 0 61 7 25 6 42 -2 58 -9 17 -9 24 5 33 9 7 16 19 16 28 0 11 5 14 17 10 13 -5 15 -2 11 15 -4 16 -2 22 9 22 14 0 15 12 10 81 -4 44 -10 85 -14 92 -4 7 -9 30 -10 52 -3 69 -10 122 -17 134 -4 6 -5 15 -2 20 3 5 -1 30 -9 57 -8 27 -15 87 -16 134 -2 62 -7 94 -21 119 -11 19 -21 60 -23 90 -2 31 -8 69 -14 85 -8 19 -8 40 -2 62 7 25 6 42 -4 61 -7 14 -12 31 -9 37 6 17 -23 157 -35 169 -6 6 -11 22 -11 36 0 13 -7 33 -16 43 -14 14 -14 20 -4 33 10 13 10 19 -3 33 -16 18 -77 134 -77 147 0 5 -6 16 -14 24 -15 17 -86 154 -86 165 0 4 5 4 10 1 24 -15 6 16 -45 75 -31 36 -62 80 -70 98 -8 17 -18 32 -22 32 -4 0 -35 26 -68 56 -155 145 -235 212 -288 243 -32 18 -65 43 -73 56 -10 15 -53 38 -122 66 -59 23 -136 57 -172 74 -36 18 -82 35 -102 39 -21 4 -38 11 -38 16 0 9 -99 32 -138 32 -31 1 -37 15 -12 30 11 7 20 16 20 20 0 12 -38 10 -45 -2 -3 -5 -21 -10 -38 -9 -28 1 -29 2 -9 7 45 13 26 27 -40 30 -52 2 -68 6 -68 17 0 16 -1 16 -38 20 -23 2 -45 11 -113 46 -20 11 -57 19 -82 19 -27 0 -49 6 -57 15 -8 9 -21 13 -36 9 -13 -4 -30 -1 -38 5 -7 6 -33 10 -57 8 -24 -2 -57 2 -74 8 -20 8 -54 10 -105 5 -41 -4 -83 -4 -92 1 -9 5 -32 9 -52 9 -19 0 -38 5 -42 11 -3 6 -17 8 -29 5 -13 -3 -26 -2 -29 3 -9 15 -97 21 -139 10 -27 -7 -42 -7 -46 0 -4 6 -12 7 -21 1 -20 -13 -57 -13 -62 0 -2 6 -15 3 -33 -6z m-2170 -974 c-3 -5 -18 -10 -33 -9 -24 0 -25 1 -7 9 28 12 47 12 40 0z m-165 -290 c0 -5 -4 -10 -10 -10 -5 0 -10 5 -10 10 0 6 5 10 10 10 6 0 10 -4 10 -10z m-82 -89 c-4 -48 -23 -42 -23 8 -1 28 3 37 13 34 8 -4 12 -18 10 -42z m79 -103 c-3 -8 -6 -5 -6 6 -1 11 2 17 5 13 3 -3 4 -12 1 -19z m-112 -107 c3 -5 1 -12 -5 -16 -5 -3 -10 1 -10 9 0 18 6 21 15 7z m-22 -90 c4 -18 22 -42 47 -62 41 -33 50 -49 27 -49 -23 0 -107 92 -107 117 0 33 26 28 33 -6z m-18 -159 c-8 -8 -55 40 -55 57 0 9 11 2 30 -19 16 -18 28 -36 25 -38z m3071 -45 c4 -4 -5 -7 -19 -7 -15 0 -27 4 -27 10 0 11 35 8 46 -3z m366 -29 c2 -6 26 -12 54 -13 60 -2 81 -11 115 -48 17 -19 28 -24 31 -16 6 18 55 3 83 -25 13 -13 30 -26 39 -29 9 -4 16 -11 16 -16 0 -7 -8 -7 -23 -2 -13 5 -29 6 -36 2 -15 -10 8 -21 40 -21 11 0 30 -11 42 -23 12 -13 32 -29 44 -36 18 -9 22 -18 19 -43 -6 -47 2 -58 40 -58 36 0 60 -18 89 -67 9 -16 30 -38 45 -48 16 -11 26 -23 24 -27 -3 -5 8 -28 25 -52 18 -27 27 -52 24 -64 -4 -16 2 -21 25 -27 26 -5 30 -10 26 -33 -6 -32 -22 -52 -40 -52 -8 0 -14 -7 -14 -16 0 -10 5 -14 15 -10 21 8 31 -22 17 -45 -7 -10 -12 -33 -12 -49 0 -21 -4 -29 -12 -24 -7 4 -8 3 -4 -5 4 -6 12 -8 18 -5 6 4 17 -1 24 -11 11 -15 10 -22 -8 -46 -15 -20 -28 -27 -40 -23 -10 3 -18 0 -18 -6 0 -7 9 -14 20 -17 11 -3 18 -9 15 -13 -3 -4 11 -10 31 -12 46 -5 53 7 14 27 -25 13 -28 18 -18 29 7 8 15 10 18 6 8 -12 33 -14 54 -5 13 6 21 4 24 -3 2 -7 8 -12 13 -12 5 0 3 11 -3 25 -6 14 -15 25 -21 25 -5 0 -22 11 -39 25 -25 21 -26 25 -10 25 10 0 26 -8 36 -18 9 -11 34 -24 56 -31 22 -6 40 -17 41 -24 0 -7 7 2 14 18 8 17 14 24 15 17 0 -7 14 -18 30 -23 19 -7 30 -18 30 -29 0 -10 5 -20 12 -22 6 -2 12 -13 13 -24 1 -10 7 -29 13 -41 7 -12 11 -26 11 -30 -1 -4 3 -21 9 -36 7 -16 12 -33 12 -38 0 -5 4 -9 8 -9 5 0 13 -20 19 -45 6 -27 6 -45 1 -45 -5 0 -6 -5 -2 -12 4 -7 9 -24 10 -37 2 -14 8 -27 14 -29 5 -2 10 -8 10 -13 0 -6 -4 -7 -10 -4 -20 13 -54 14 -67 3 -16 -13 -28 -4 -28 20 0 9 -5 16 -11 15 -6 -1 -11 5 -11 13 0 8 4 14 8 14 4 0 5 9 2 21 -4 13 -9 17 -16 10 -6 -6 -18 -6 -32 -1 -17 7 -25 5 -29 -6 -3 -8 -1 -14 4 -14 6 0 10 -7 10 -15 0 -7 8 -18 17 -23 15 -9 15 -11 -2 -28 -18 -19 -18 -18 -13 4 5 17 3 22 -6 19 -18 -7 -46 13 -28 20 6 2 12 9 12 14 0 6 -4 8 -8 5 -5 -3 -8 4 -8 16 1 29 -20 34 -34 9 -9 -17 -8 -21 5 -21 8 0 15 -9 15 -20 0 -11 -4 -20 -10 -20 -5 0 -10 -5 -10 -11 0 -8 4 -9 13 0 14 11 27 5 27 -11 0 -5 -5 -6 -12 -2 -8 5 -9 2 -5 -9 9 -24 -7 -29 -31 -9 -11 9 -38 28 -61 42 -22 14 -43 32 -46 41 -3 9 -17 22 -30 29 -14 7 -25 17 -25 22 0 5 -4 6 -10 3 -5 -3 -10 -1 -10 4 0 16 -26 13 -41 -5 -7 -8 -21 -13 -31 -11 -20 6 -34 -8 -18 -18 15 -10 0 -27 -17 -21 -9 4 -21 3 -27 -2 -6 -4 -23 -13 -38 -19 -22 -10 -26 -9 -23 5 1 9 -3 20 -9 24 -16 11 -48 10 -41 -2 14 -22 -7 -30 -38 -13 -44 23 -158 43 -179 32 -9 -5 -43 -9 -74 -9 -32 0 -73 -6 -92 -12 -28 -10 -36 -10 -39 0 -3 6 -13 12 -23 12 -31 0 -120 -33 -120 -44 0 -6 -7 -2 -15 8 -15 20 -15 20 -42 0 -40 -29 -64 -36 -78 -24 -11 9 -12 7 -8 -9 3 -12 1 -21 -6 -21 -6 0 -11 5 -11 10 0 6 -4 10 -10 10 -9 0 -13 -3 -49 -48 -10 -12 -23 -21 -29 -20 -11 4 -62 -48 -62 -64 0 -5 -7 -8 -15 -4 -9 3 -20 -2 -27 -13 -6 -11 -17 -17 -23 -15 -7 3 -9 -10 -7 -37 3 -22 -1 -46 -7 -52 -6 -6 -11 -24 -11 -39 0 -15 -3 -27 -7 -27 -32 5 -53 -3 -53 -20 0 -13 8 -21 23 -23 16 -2 21 -9 20 -25 -2 -14 4 -24 17 -28 11 -4 20 -13 20 -21 0 -8 5 -14 12 -14 6 0 8 -3 5 -7 -4 -3 4 -21 18 -39 16 -21 21 -34 13 -36 -7 -3 -4 -12 10 -26 19 -19 20 -23 7 -28 -8 -4 -15 -13 -15 -21 0 -8 4 -12 9 -9 5 4 7 -4 3 -16 -4 -17 -2 -20 11 -15 11 4 17 1 17 -8 0 -8 -4 -15 -10 -15 -5 0 -10 -7 -10 -15 0 -8 4 -15 9 -15 5 0 14 7 21 15 7 8 22 15 34 15 12 0 27 5 33 11 6 6 21 9 34 7 20 -2 24 -9 27 -46 3 -36 8 -45 30 -54 15 -6 35 -10 44 -9 10 1 24 -2 33 -6 13 -8 13 -11 -1 -31 -8 -12 -19 -20 -23 -18 -4 3 -13 1 -20 -3 -9 -6 -4 -16 21 -40 18 -17 38 -31 45 -31 6 0 24 -10 40 -23 39 -32 79 -51 91 -43 6 3 17 -1 25 -9 9 -8 24 -15 34 -15 10 0 32 -7 48 -16 17 -9 40 -16 52 -16 12 1 25 -3 28 -8 3 -6 48 -10 99 -10 51 0 108 -5 126 -12 25 -8 35 -8 38 0 2 6 19 14 38 18 31 6 52 7 157 13 31 1 28 21 -4 21 -33 0 -21 17 19 26 20 4 40 7 44 6 4 -1 5 5 1 13 -3 9 2 24 12 35 10 11 15 26 11 35 -4 11 10 24 49 46 30 17 52 35 49 40 -3 5 10 7 30 3 38 -6 42 0 37 54 -1 12 3 22 9 22 6 0 8 5 4 11 -3 6 0 15 7 20 10 6 11 9 2 9 -23 0 -14 18 12 24 18 5 26 15 30 39 4 19 13 34 21 34 10 0 11 -4 3 -13 -6 -7 -9 -19 -6 -26 4 -8 6 -7 6 5 1 10 9 17 21 17 22 0 25 7 11 29 -6 9 -18 11 -36 7 -23 -6 -26 -4 -20 13 5 16 2 18 -15 14 -15 -4 -18 -8 -10 -13 7 -4 9 -13 6 -19 -9 -14 -46 -14 -46 0 0 5 5 7 12 3 8 -5 9 0 3 17 -4 13 -8 36 -8 51 0 20 -5 26 -18 25 -11 -1 -19 -5 -19 -9 0 -15 -28 -8 -34 8 -3 8 -2 13 2 10 4 -2 8 4 8 14 0 10 -6 16 -13 13 -7 -3 -13 -13 -13 -22 0 -9 -3 -12 -8 -6 -11 16 -54 18 -64 3 -7 -9 -8 -7 -5 10 3 13 1 20 -5 16 -6 -4 -14 -1 -18 6 -4 7 -21 12 -36 12 -16 -1 -40 -2 -54 -3 -90 -4 -313 32 -335 55 -9 9 -20 14 -24 12 -4 -3 -8 5 -8 16 -2 15 3 19 18 15 24 -6 72 16 61 29 -4 4 1 2 10 -5 10 -7 28 -11 40 -8 12 4 28 1 35 -5 8 -7 13 -7 13 0 0 18 32 23 69 11 33 -11 50 -14 92 -18 9 0 16 -9 15 -18 -1 -14 5 -17 27 -15 32 4 36 -11 6 -24 -18 -9 -19 -11 -6 -22 12 -10 18 -10 31 3 9 9 13 21 10 27 -5 7 11 8 49 4 39 -5 62 -3 77 6 18 11 22 11 31 -5 7 -12 17 -16 30 -12 14 5 17 3 13 -10 -4 -10 1 -22 15 -31 11 -8 21 -23 21 -33 0 -17 70 -90 70 -74 0 5 5 1 10 -7 7 -11 12 -12 21 -3 6 6 18 9 25 6 10 -4 14 3 14 23 0 23 2 26 10 14 7 -11 10 -11 10 -2 0 7 4 11 9 8 5 -4 7 4 3 16 -5 21 -4 22 11 9 9 -7 17 -21 17 -31 0 -25 26 -45 33 -26 3 8 -1 20 -9 26 -16 14 -19 70 -4 70 6 0 10 -14 10 -31 0 -16 4 -28 9 -24 9 5 6 49 -5 66 -2 4 0 10 6 14 19 12 10 25 -19 25 -25 0 -28 -3 -23 -25 3 -18 0 -25 -12 -25 -10 0 -14 6 -10 18 12 35 27 61 35 57 9 -6 6 16 -6 35 -5 8 -8 27 -7 42 2 20 -2 28 -13 28 -9 0 -14 4 -11 9 3 5 17 9 32 9 15 0 32 9 41 22 15 22 17 22 30 5 7 -11 13 -30 13 -43 0 -13 5 -33 12 -45 15 -28 20 -117 6 -117 -6 0 -8 -11 -6 -25 3 -14 2 -28 -2 -30 -7 -4 -6 -17 4 -80 3 -16 3 -24 0 -17 -3 6 -10 12 -16 12 -6 0 -3 -12 7 -26 9 -15 13 -24 7 -20 -12 7 -11 -72 1 -91 5 -8 4 -13 -2 -13 -6 0 -11 -9 -11 -20 0 -11 4 -20 9 -20 5 0 9 -17 8 -37 0 -21 6 -51 12 -66 6 -16 11 -41 11 -55 0 -51 8 -153 14 -167 3 -8 1 -17 -4 -20 -6 -4 -7 -40 0 -40 8 0 7 -86 -1 -90 -7 -5 -6 -12 3 -23 11 -13 10 -15 -14 -9 -26 7 -47 -7 -33 -21 3 -3 10 0 14 7 7 10 11 8 16 -9 7 -23 -6 -40 -32 -40 -13 0 -14 -3 -18 -50 -2 -14 -6 -41 -9 -60 -8 -44 -8 -49 0 -82 4 -18 2 -28 -5 -28 -7 0 -9 -9 -5 -24 4 -19 -1 -32 -20 -51 -30 -30 -32 -43 -11 -71 17 -22 20 -60 5 -69 -8 -5 -7 -11 0 -20 7 -8 9 -19 5 -24 -3 -6 -1 -21 5 -33 10 -21 10 -21 -3 -6 -13 17 -15 17 -36 -1 -20 -17 -31 -68 -12 -57 5 3 11 0 14 -7 3 -8 -4 -19 -14 -26 -11 -6 -17 -16 -14 -21 3 -6 -1 -10 -11 -10 -13 0 -14 -3 -4 -15 12 -14 35 -11 26 4 -3 4 -1 13 5 21 6 11 9 8 9 -13 0 -21 -6 -30 -20 -34 -11 -3 -20 -14 -20 -24 0 -11 -5 -19 -11 -19 -5 0 -15 -14 -21 -30 -5 -17 -15 -29 -22 -27 -17 6 -7 78 15 108 10 15 19 30 19 33 0 11 -39 6 -46 -5 -4 -7 -21 -9 -40 -6 -33 6 -57 -7 -66 -34 -2 -6 -19 -11 -38 -12 -19 -1 -38 -6 -41 -11 -4 -4 -21 -10 -39 -12 -17 -2 -35 -6 -40 -9 -4 -3 -13 2 -20 10 -7 8 -23 15 -37 15 -13 0 -33 5 -43 10 -14 8 -21 6 -27 -5 -8 -13 -16 -12 -58 10 -28 14 -55 25 -62 25 -7 0 -17 9 -23 20 -6 11 -17 20 -24 20 -8 0 -16 7 -20 15 -3 8 -11 15 -18 15 -7 0 -18 10 -23 22 -7 14 -25 25 -55 32 -35 9 -44 15 -42 30 3 18 -24 56 -40 56 -8 0 -79 51 -98 70 -3 3 -24 20 -48 38 -36 28 -43 31 -49 17 -3 -10 -2 -20 3 -24 19 -13 34 -62 25 -79 -6 -10 -4 -23 6 -38 8 -13 12 -28 8 -34 -3 -5 7 -27 24 -47 35 -42 39 -55 15 -46 -14 5 -14 2 1 -28 10 -19 31 -49 46 -67 35 -39 39 -77 9 -69 -14 3 -24 -1 -31 -15 -8 -16 -8 -19 1 -13 8 5 11 3 8 -6 -3 -8 -17 -13 -32 -12 -29 2 -36 -23 -13 -46 6 -7 -5 -3 -25 9 -21 12 -38 26 -38 31 0 4 -7 6 -16 2 -9 -3 -19 -1 -23 4 -4 7 -11 6 -19 -3 -7 -8 -8 -14 -2 -14 13 0 13 -27 1 -35 -6 -3 -20 5 -32 17 -15 16 -23 19 -26 11 -3 -7 -11 -13 -18 -13 -7 0 -15 -6 -18 -12 -2 -7 -2 -3 0 10 4 23 -12 31 -21 10 -3 -9 -8 -8 -16 5 -17 27 -33 21 -25 -10 l6 -28 -23 23 c-14 14 -19 25 -13 30 14 10 17 32 5 32 -6 0 -10 -7 -10 -15 0 -8 -4 -15 -9 -15 -5 0 -11 -9 -14 -21 -3 -12 -10 -18 -16 -14 -8 4 -6 11 4 21 11 11 12 20 5 34 -6 10 -10 29 -10 41 0 12 -3 19 -7 15 -5 -4 -8 -19 -8 -33 0 -15 -6 -28 -12 -30 -8 -3 -13 4 -13 19 0 17 -3 19 -9 9 -5 -7 -6 -22 -4 -32 3 -11 -1 -21 -11 -25 -9 -3 -16 -10 -16 -16 0 -5 4 -7 9 -3 5 3 13 0 17 -6 3 -6 1 -14 -5 -18 -7 -5 -3 -12 13 -20 21 -12 28 -11 54 8 l30 21 14 -31 c13 -26 17 -28 28 -14 13 16 45 22 36 6 -3 -5 2 -15 11 -22 12 -10 14 -10 9 -1 -4 6 -4 17 -1 22 13 21 35 -12 35 -50 0 -42 -18 -63 -52 -59 -13 1 -30 -1 -38 -4 -8 -3 -36 -8 -62 -10 -25 -3 -51 -8 -57 -11 -5 -4 -12 -2 -16 4 -4 6 -16 3 -33 -8 -20 -13 -24 -14 -17 -2 8 13 7 13 -8 1 -10 -8 -47 -15 -85 -17 -37 -2 -88 -5 -114 -7 -40 -3 -48 0 -59 19 -7 13 -16 21 -20 18 -5 -3 -6 2 -3 10 7 17 -35 32 -62 22 -9 -4 -22 -2 -28 2 -6 5 -24 12 -39 16 -44 11 -26 30 34 38 31 4 75 14 100 22 24 9 60 16 80 16 31 0 38 5 49 30 12 28 40 42 40 20 0 -5 6 -7 14 -4 11 4 13 0 9 -15 -6 -24 5 -26 44 -8 44 19 62 43 69 89 4 32 3 39 -5 28 -9 -13 -11 -13 -11 3 0 9 7 17 15 17 20 0 37 35 30 62 -4 18 3 29 36 53 22 16 52 45 66 64 l26 34 -24 -8 c-41 -14 -142 -13 -171 1 -15 8 -35 14 -45 14 -10 0 -29 8 -43 17 -30 21 -58 24 -64 6 -3 -7 -12 -10 -21 -7 -10 4 -15 0 -15 -10 0 -45 -125 -43 -166 1 -14 15 -24 20 -24 12 0 -10 -3 -10 -12 -1 -7 7 -20 12 -30 12 -10 0 -18 6 -18 14 0 8 -9 18 -20 21 -11 3 -20 12 -20 18 0 7 -11 21 -25 31 -14 10 -25 24 -25 31 0 6 -9 20 -21 31 -18 17 -19 19 -4 30 20 15 21 24 3 35 -10 7 -10 12 -1 28 7 10 10 36 7 57 -3 22 -7 49 -8 62 -4 27 14 83 34 108 8 10 10 15 4 11 -7 -4 -11 7 -11 31 -1 28 1 31 6 14 9 -33 26 -23 24 13 -4 53 -3 87 4 99 14 21 11 36 -10 51 -18 13 -21 25 -22 102 0 49 3 93 8 100 5 6 4 20 -1 30 -8 15 -8 43 -1 133 1 8 7 22 14 30 21 26 48 104 50 147 3 43 16 64 48 76 9 3 17 15 17 26 0 21 34 46 49 37 5 -3 11 1 14 9 4 9 1 12 -7 9 -13 -5 -15 4 -19 63 -2 30 -29 62 -52 63 -5 0 -3 -5 5 -10 8 -5 10 -10 4 -10 -11 0 -34 20 -34 31 0 4 7 14 15 22 12 13 12 16 -6 20 -15 4 -19 2 -15 -9 7 -17 -3 -13 -52 23 -18 14 -41 23 -51 20 -10 -2 -26 2 -36 9 -10 8 -29 14 -41 14 -12 0 -27 7 -35 16 -7 9 -21 13 -34 10 -15 -4 -23 1 -31 17 -5 12 -16 21 -23 19 -7 -1 -10 2 -6 8 3 5 1 10 -4 10 -6 0 -11 7 -11 16 0 9 -6 14 -12 12 -7 -3 -18 5 -23 16 -6 12 -17 21 -25 21 -8 0 -36 22 -62 48 -26 26 -52 47 -57 47 -5 0 -11 10 -14 21 -4 14 -11 20 -20 16 -8 -3 -20 0 -27 6 -10 9 -11 9 -6 0 7 -13 -76 25 -85 40 -4 5 -14 7 -24 4 -9 -4 -14 -3 -11 2 3 5 -1 14 -8 20 -8 7 -13 24 -12 39 2 15 -4 37 -12 50 -8 13 -10 22 -4 20 6 -2 18 6 26 17 9 11 16 14 16 8 0 -21 20 -15 20 6 0 10 6 21 14 24 18 7 40 -18 33 -37 -4 -10 -1 -13 9 -9 7 3 14 9 14 14 0 5 8 9 18 9 14 0 15 2 2 10 -8 5 -11 12 -7 16 4 4 1 17 -7 29 -15 22 -4 60 12 40 9 -12 33 -18 30 -7 -1 4 3 17 10 30 13 22 14 22 30 5 9 -11 16 -17 15 -15 -1 3 3 14 8 25 8 14 8 26 -2 44 -9 17 -10 29 -3 41 6 9 9 40 7 69 -2 44 1 53 17 58 23 7 27 35 5 35 -8 0 -15 4 -15 9 0 5 7 14 15 21 12 10 15 9 15 -5 0 -10 8 -24 18 -32 12 -11 14 -16 4 -20 -28 -11 -41 -34 -33 -56 4 -12 6 -28 4 -34 -3 -8 4 -13 16 -13 12 0 21 5 21 12 0 9 3 9 12 0 8 -8 8 -15 -2 -27 -7 -8 -10 -18 -7 -21 10 -11 38 57 32 77 -6 19 -8 19 -24 5 -26 -23 -36 -19 -18 7 22 33 31 85 17 102 -7 8 -7 15 -1 19 13 9 -14 72 -29 68 -8 -2 -10 7 -5 28 4 20 3 30 -5 30 -6 0 -8 -4 -5 -10 3 -5 3 -15 0 -20 -10 -17 -36 16 -28 37 3 10 3 15 -2 11 -15 -14 -65 21 -65 45 l1 22 18 -21 c13 -16 22 -19 34 -12 10 5 22 6 27 3 16 -10 12 5 -6 23 -15 14 -15 17 0 27 20 15 21 31 1 39 -11 4 -15 0 -13 -12 2 -12 -5 -18 -24 -20 -22 -3 -27 0 -22 12 3 9 2 16 -4 16 -5 0 -12 -9 -15 -20 -3 -11 -13 -20 -22 -20 -13 0 -15 5 -9 18 4 9 7 30 6 46 -1 27 0 28 17 12 20 -18 31 -12 31 15 0 13 5 16 16 12 11 -4 14 -14 11 -31 -5 -24 -5 -24 18 4 22 28 24 28 42 11 24 -21 33 -22 33 -2 0 17 21 20 37 4 8 -8 13 -8 17 0 4 6 2 11 -5 11 -7 0 -10 3 -7 6 4 3 15 1 26 -5 17 -9 19 -8 15 9 -6 23 21 28 34 8 4 -7 16 -14 25 -14 10 -1 16 2 13 6 -4 7 20 19 50 24 6 1 18 -6 28 -16 19 -19 47 -24 47 -8 0 6 -4 10 -10 10 -5 0 -7 7 -4 15 4 8 -1 17 -10 21 -9 3 -16 12 -16 20 0 16 16 19 25 4 8 -12 85 -13 85 -1 0 5 14 11 31 13 22 3 33 0 40 -13 6 -12 15 -16 26 -12 12 5 14 3 8 -7 -6 -9 -4 -11 4 -6 7 5 10 14 7 22 -5 13 6 18 27 15 4 0 7 4 7 10 0 5 5 7 10 4 6 -4 8 -16 4 -27 -9 -28 14 -13 26 17 5 12 18 25 29 28 12 3 19 1 15 -4 -9 -15 13 -10 30 6 8 8 19 15 25 15 10 0 15 14 12 32 -2 17 92 31 202 31 106 0 153 -8 120 -20 -7 -3 -13 -13 -13 -24 0 -10 -4 -19 -10 -19 -5 0 -7 -7 -4 -15 5 -12 13 -8 34 17 16 18 32 30 35 26 4 -3 38 2 75 13 38 10 76 16 84 13 9 -3 16 -1 16 6 0 6 5 8 10 5 6 -3 10 -1 10 4 0 15 17 14 22 -1z m-612 -23 c-7 -9 -15 -13 -17 -11 -7 7 7 26 19 26 6 0 6 -6 -2 -15z m-2781 -4 c7 -5 12 -14 9 -21 -2 -7 -10 -4 -22 9 -19 21 -12 28 13 12z m2721 -17 c0 -9 -32 -33 -44 -34 -5 0 -1 9 10 19 19 20 34 26 34 15z m885 -4 c3 -5 -3 -10 -14 -10 -12 0 -21 5 -21 10 0 6 6 10 14 10 8 0 18 -4 21 -10z m-1119 -36 c-3 -9 -6 -18 -6 -20 0 -2 -7 -4 -15 -4 -18 0 -19 12 -3 28 17 17 31 15 24 -4z m118 -6 c-5 -8 -2 -9 9 -5 10 3 17 2 17 -3 0 -14 -19 -22 -37 -16 -12 5 -13 9 -3 21 15 18 24 20 14 3z m-287 -34 c1 -5 -1 -15 -6 -23 -7 -10 -13 -11 -27 -2 -11 6 -13 11 -6 11 6 0 12 7 12 16 0 16 21 15 27 -2z m-2252 -4 c-3 -5 -10 -10 -16 -10 -5 0 -9 5 -9 10 0 6 7 10 16 10 8 0 12 -4 9 -10z m-39 -31 c8 -14 -10 -11 -32 6 -18 13 -18 14 4 8 12 -3 25 -9 28 -14z m2354 12 c0 -17 -18 -21 -24 -6 -3 9 0 15 9 15 8 0 15 -4 15 -9z m-2290 -11 c0 -5 -5 -10 -11 -10 -5 0 -7 5 -4 10 3 6 8 10 11 10 2 0 4 -4 4 -10z m3805 -119 c18 -7 17 -8 -6 -13 -30 -5 -51 0 -43 13 6 11 21 11 49 0z m115 -131 c0 -5 -4 -10 -10 -10 -5 0 -10 5 -10 10 0 6 5 10 10 10 6 0 10 -4 10 -10z m-1942 -28 c6 -18 -15 -14 -22 4 -4 10 -1 14 6 12 6 -2 14 -10 16 -16z m62 -63 c0 -5 -7 -9 -15 -9 -15 0 -20 12 -9 23 8 8 24 -1 24 -14z m-52 -1 c8 -10 4 -13 -14 -14 -25 -2 -33 11 -11 19 6 3 13 6 13 6 1 1 6 -5 12 -11z m-44 -149 c-6 -11 -24 -2 -24 11 0 5 7 7 15 4 8 -4 12 -10 9 -15z m2096 -60 c0 -4 -7 -6 -15 -3 -8 4 -15 10 -15 15 0 4 7 6 15 3 8 -4 15 -10 15 -15z m-2100 -103 c0 -2 -7 -7 -16 -10 -8 -3 -12 -2 -9 4 6 10 25 14 25 6z m-142 -114 c2 -7 -1 -12 -7 -12 -6 0 -11 5 -11 11 0 5 -5 7 -12 3 -7 -4 -8 -3 -4 5 9 14 28 10 34 -7z m-79 -175 c4 1 8 -4 8 -12 0 -9 -9 -14 -23 -13 -17 2 -20 5 -12 15 6 8 6 13 1 13 -5 0 -10 7 -10 16 0 14 2 14 14 -2 8 -11 18 -18 22 -17z m51 -27 c0 -5 -7 -10 -15 -10 -8 0 -15 5 -15 10 0 6 7 10 15 10 8 0 15 -4 15 -10z m-648 -8 c11 -3 -46 -62 -59 -62 -7 0 -13 -8 -13 -18 0 -12 -26 -37 -70 -67 -59 -41 -68 -50 -57 -63 10 -13 9 -15 -12 -9 -19 5 -34 -5 -83 -55 -62 -64 -89 -72 -44 -14 14 19 26 40 26 46 0 6 7 13 15 16 18 7 20 31 3 36 -17 6 14 38 36 38 14 0 20 13 19 47 0 6 5 9 12 7 6 -3 18 2 25 11 7 8 19 15 26 15 8 0 14 10 14 23 0 14 3 18 8 10 5 -7 13 -9 21 -3 8 4 20 6 28 3 7 -3 13 2 13 10 0 27 44 40 92 29z m-227 -72 c3 -5 1 -10 -4 -10 -6 0 -11 5 -11 10 0 6 2 10 4 10 3 0 8 -4 11 -10z m3055 -16 c0 -8 -10 -14 -25 -14 -22 0 -24 3 -15 20 11 21 40 17 40 -6z m-415 6 c3 -5 -1 -10 -10 -10 -9 0 -13 5 -10 10 3 6 8 10 10 10 2 0 7 -4 10 -10z m62 -26 c-7 -7 -37 7 -37 17 0 6 9 5 21 -1 11 -7 19 -14 16 -16z m-2727 -2 c0 -10 -41 -35 -47 -28 -7 7 20 35 35 36 6 0 12 -3 12 -8z m3493 -112 c-5 -20 4 -24 47 -21 10 0 11 -1 3 -5 -18 -8 -16 -35 1 -28 33 13 29 -33 -5 -54 -18 -11 -21 -10 -30 18 -6 16 -16 30 -22 30 -7 0 -12 17 -13 40 -1 26 3 40 12 40 7 0 10 -8 7 -20z m-1556 -112 c-3 -8 -6 -5 -6 6 -1 11 2 17 5 13 3 -3 4 -12 1 -19z m1517 -80 c-3 -4 -9 -8 -15 -8 -5 0 -9 4 -9 8 0 5 7 9 15 9 8 0 12 -4 9 -9z m-3607 -25 c8 -16 9 -29 4 -33 -8 -5 -9 -72 -1 -105 6 -24 -1 -27 -20 -10 -21 19 -28 7 -8 -13 9 -9 6 -17 -12 -37 -13 -14 -18 -25 -11 -25 7 0 9 -5 5 -12 -6 -9 -9 -9 -12 0 -2 7 -13 12 -24 12 -20 0 -20 -1 -5 -18 29 -32 18 -57 -13 -29 -12 10 -12 9 -2 -4 6 -9 9 -19 5 -22 -6 -7 11 -11 35 -8 6 1 12 -3 12 -9 0 -5 -7 -10 -15 -10 -8 0 -15 -4 -15 -10 0 -5 5 -10 10 -10 6 0 10 -7 10 -16 0 -11 -6 -14 -22 -8 l-23 6 24 -20 c22 -20 24 -52 3 -52 -17 0 10 -114 31 -127 7 -4 18 -16 26 -26 13 -16 13 -20 1 -27 -12 -8 -12 -10 2 -15 9 -4 14 -14 11 -24 -4 -14 1 -16 30 -13 39 4 62 -16 28 -25 -30 -8 -26 -18 7 -19 69 -2 106 -25 61 -37 -24 -7 -16 -29 9 -25 11 2 18 -5 20 -19 2 -13 -1 -23 -7 -23 -6 0 -11 -7 -11 -15 0 -8 7 -15 15 -15 8 0 19 -9 25 -20 9 -16 8 -20 -5 -20 -8 0 -15 -7 -15 -16 0 -14 1 -14 16 0 10 11 21 13 32 7 9 -5 26 -5 37 0 32 12 40 10 19 -5 -14 -11 -16 -18 -8 -26 8 -8 16 -7 28 5 9 9 24 14 32 11 14 -5 14 -9 3 -24 -13 -15 -12 -16 3 -3 10 7 16 17 13 21 -9 15 14 21 34 11 14 -8 21 -8 24 2 4 7 6 6 6 -4 1 -20 28 -33 37 -18 7 12 234 11 249 -1 6 -4 16 -2 23 6 7 8 8 14 2 14 -5 0 -10 5 -10 10 0 6 14 10 31 10 18 0 28 4 24 10 -8 14 46 2 60 -13 7 -7 5 -7 -4 -2 -9 5 -12 4 -7 -3 9 -15 37 -16 33 -1 -3 15 36 21 44 7 11 -17 42 -19 35 -3 -2 7 1 12 9 11 20 -3 32 -16 15 -16 -7 0 -10 -3 -7 -7 9 -8 67 -10 67 -2 0 16 31 17 45 2 20 -19 11 -31 -10 -13 -14 11 -15 9 -13 -19 1 -17 7 -31 12 -31 6 0 5 -5 -2 -12 -17 -17 -15 -24 11 -49 16 -16 18 -20 5 -16 -10 3 -20 2 -23 -3 -4 -6 5 -10 18 -10 16 0 28 -8 35 -26 7 -14 8 -23 2 -19 -14 9 -12 -8 3 -24 10 -11 7 -12 -18 -7 -19 4 -25 3 -16 -2 10 -7 11 -14 2 -31 -7 -12 -9 -26 -5 -32 4 -6 3 -14 -2 -18 -5 -3 -15 -16 -22 -28 -10 -19 -10 -23 0 -23 8 0 6 -5 -4 -10 -9 -6 -20 -24 -23 -41 -4 -17 -22 -45 -41 -61 -19 -17 -34 -37 -34 -45 0 -9 -6 -13 -14 -10 -10 4 -14 0 -11 -14 4 -19 -8 -23 -67 -22 -24 0 -23 -14 3 -28 21 -11 21 -11 2 -28 -27 -26 -106 -36 -123 -16 -7 8 -17 12 -22 9 -6 -4 -13 -2 -17 3 -3 5 -21 19 -39 32 -18 12 -29 27 -26 33 4 7 2 8 -4 4 -7 -4 -12 -2 -12 3 0 16 -16 13 -34 -5 -15 -14 -16 -14 -17 3 -1 10 -1 21 -1 24 1 4 -12 12 -27 19 -16 6 -35 25 -41 41 -7 16 -16 26 -21 23 -11 -6 -23 41 -16 60 3 8 -1 17 -9 20 -10 4 -12 2 -8 -6 4 -7 3 -8 -4 -4 -7 4 -12 14 -12 22 0 8 5 12 10 9 6 -4 9 -1 8 7 -2 7 -14 18 -28 25 -14 7 -19 12 -12 13 20 0 14 16 -7 17 -14 1 -18 -3 -14 -14 4 -11 2 -14 -5 -9 -17 10 -52 -3 -52 -20 0 -14 -12 -18 -38 -15 -8 1 -29 -14 -48 -33 -19 -20 -41 -36 -49 -36 -8 0 -19 -8 -24 -17 -9 -16 -12 -16 -21 -3 -8 12 -13 13 -29 3 -13 -8 -22 -9 -26 -3 -11 18 -23 11 -18 -10 4 -14 0 -20 -12 -20 -13 0 -16 6 -11 25 5 19 3 23 -9 19 -8 -4 -15 -1 -15 6 0 7 8 10 20 7 28 -7 62 40 39 54 -8 5 -15 4 -17 -1 -5 -14 -22 -2 -22 15 0 9 12 12 48 9 42 -3 45 -2 28 10 -10 8 -15 19 -11 25 3 6 1 11 -4 11 -6 0 -11 -7 -11 -15 0 -21 -9 -19 -30 7 -19 24 -12 38 23 51 20 7 14 27 -8 27 -7 0 -16 6 -19 13 -5 10 -7 10 -12 0 -3 -7 -10 -13 -15 -13 -5 0 -2 12 7 26 12 17 19 21 24 13 5 -8 13 -8 25 -2 12 7 14 13 6 17 -6 4 -11 2 -11 -5 0 -8 -3 -9 -13 0 -8 6 -17 8 -20 5 -3 -3 -10 -3 -16 0 -11 7 22 46 39 46 6 0 10 5 10 10 0 6 -5 10 -10 10 -13 0 -53 -22 -62 -35 -5 -6 -8 -5 -8 3 0 6 -7 12 -15 12 -9 0 -18 6 -21 13 -2 7 -17 12 -34 11 -17 -1 -30 3 -31 9 0 7 -4 2 -9 -10 -5 -12 -19 -27 -31 -33 -20 -11 -21 -11 -14 11 14 44 5 106 -14 102 -6 -2 -11 4 -11 13 0 8 -4 13 -9 9 -5 -3 -16 7 -23 22 -16 32 -14 156 2 161 5 2 10 10 10 18 0 9 -4 12 -10 9 -14 -9 -12 19 3 34 9 11 9 14 0 18 -19 7 12 35 34 31 25 -4 32 61 8 78 -21 15 -11 36 13 27 15 -6 15 -5 3 10 -7 9 -19 17 -27 17 -18 0 -28 20 -17 31 6 6 29 12 53 14 54 5 60 12 30 35 -14 11 -26 15 -28 10 -2 -6 -12 -10 -23 -10 -18 0 -19 1 -3 24 8 14 21 23 27 20 7 -2 17 8 24 22 10 21 9 26 -5 31 -9 4 -20 11 -24 17 -4 6 -13 11 -19 11 -7 0 -14 6 -16 13 -3 7 4 12 16 12 26 0 27 15 4 30 -15 9 -12 10 15 6 18 -3 32 -1 32 4 0 6 -7 10 -16 10 -22 0 -12 23 14 35 12 5 22 13 22 18 0 11 22 33 40 39 19 6 21 56 3 62 -20 8 -15 26 7 26 11 0 20 -7 20 -15 0 -8 5 -15 10 -15 10 0 14 21 11 48 -3 22 14 13 26 -15z m43 7 c0 -5 -2 -10 -4 -10 -3 0 -8 5 -11 10 -3 6 -1 10 4 10 6 0 11 -4 11 -10z m3210 -30 c0 -5 -8 -10 -17 -10 -15 0 -16 2 -3 10 19 12 20 12 20 0z m-3351 -66 c-14 -18 -59 -37 -67 -30 -5 5 58 46 72 46 5 0 2 -7 -5 -16z m3113 -61 c31 -8 65 -23 75 -32 10 -9 26 -20 36 -24 32 -12 18 -27 -20 -21 -21 3 -46 5 -55 5 -10 0 -18 3 -18 7 0 9 -10 11 -123 17 -92 4 -111 10 -101 27 5 7 -4 9 -25 6 -40 -6 -40 5 1 25 38 19 142 14 230 -10z m468 -3 c0 -5 -2 -10 -4 -10 -3 0 -8 5 -11 10 -3 6 -1 10 4 10 6 0 11 -4 11 -10z m46 -9 c-4 -5 0 -12 6 -14 7 -3 8 -6 2 -6 -5 -1 -19 6 -30 14 -18 14 -18 14 4 15 13 0 21 -4 18 -9z m-2620 -46 c10 -2 20 -4 22 -5 1 -2 6 -3 11 -4 5 0 13 -4 17 -8 4 -5 18 -8 31 -8 13 0 23 -4 23 -9 0 -4 15 -13 33 -19 31 -11 31 -11 -13 -7 -164 16 -214 25 -228 39 -16 16 -18 15 28 29 8 3 24 3 36 0 11 -2 29 -6 40 -8z m2284 -57 c35 -25 40 -44 8 -26 -26 15 -48 34 -48 42 0 11 10 6 40 -16z m-322 -31 c5 -25 -26 -33 -43 -11 -7 10 -11 22 -8 27 9 14 48 3 51 -16z m-3048 -6 c0 -12 -20 -25 -27 -18 -7 7 6 27 18 27 5 0 9 -4 9 -9z m1052 -34 c4 -7 -1 -15 -14 -20 -33 -12 -51 -5 -55 22 -3 22 -1 23 29 17 18 -3 35 -12 40 -19z m177 -56 c10 -10 18 -32 19 -49 1 -35 -1 -36 -97 -47 -49 -5 -53 -4 -46 12 4 10 12 40 18 66 l12 49 38 -6 c20 -4 46 -15 56 -25z m2031 10 c13 -26 3 -51 -21 -51 -10 0 -19 -4 -19 -10 0 -5 -16 -12 -35 -16 -34 -6 -59 -24 -34 -24 7 0 10 -2 7 -5 -8 -8 -38 6 -38 18 0 6 3 7 7 4 4 -4 12 6 19 23 7 16 20 30 29 30 8 0 20 11 25 25 11 30 45 33 60 6z m350 -7 c0 -2 -7 -4 -15 -4 -8 0 -15 4 -15 10 0 5 7 7 15 4 8 -4 15 -8 15 -10z m-864 -13 c-4 -5 0 -12 6 -14 8 -3 6 -6 -4 -6 -10 -1 -18 6 -18 14 0 8 5 15 11 15 5 0 8 -4 5 -9z m-156 -43 c0 -12 -14 -10 -35 5 -10 8 -15 19 -11 26 6 9 13 8 27 -5 10 -9 19 -21 19 -26z m536 -73 c3 -7 28 -11 72 -10 52 2 73 -2 95 -17 15 -11 25 -24 22 -29 -4 -5 2 -6 12 -2 16 6 17 5 3 -12 -36 -47 -51 -53 -135 -51 -44 2 -85 -1 -90 -5 -6 -4 -17 -4 -25 1 -11 7 -11 11 -1 24 7 9 10 23 7 32 -4 9 -1 23 5 31 7 7 9 17 5 21 -4 4 -14 -1 -21 -11 -13 -18 -14 -18 -24 2 -15 27 -14 30 11 40 26 10 58 3 64 -14z m-196 5 c0 -5 -2 -10 -4 -10 -3 0 -8 5 -11 10 -3 6 -1 10 4 10 6 0 11 -4 11 -10z m90 1 c0 -6 -4 -12 -9 -15 -13 -8 -42 4 -35 15 7 12 44 12 44 0z m-1760 -11 c0 -5 -11 -10 -24 -10 -14 0 -28 -4 -31 -10 -3 -5 -16 -10 -27 -10 -27 0 -16 11 25 26 42 15 57 16 57 4z m-120 -10 c17 -11 13 -15 -22 -24 -32 -7 -46 8 -21 23 22 13 24 13 43 1z m180 0 c0 -5 -4 -10 -10 -10 -5 0 -10 5 -10 10 0 6 5 10 10 10 6 0 10 -4 10 -10z m2073 -46 c3 -4 -1 -13 -9 -22 -17 -16 -42 -2 -30 17 8 12 29 15 39 5z m-2553 -314 c0 -5 -5 -10 -11 -10 -5 0 -7 5 -4 10 3 6 8 10 11 10 2 0 4 -4 4 -10z m-890 -30 c0 -5 -5 -10 -11 -10 -5 0 -7 5 -4 10 3 6 8 10 11 10 2 0 4 -4 4 -10z m-314 -34 c-5 -29 -47 -146 -52 -146 -6 0 6 61 23 118 16 52 37 73 29 28z m469 -65 c3 -5 1 -12 -5 -16 -5 -3 -10 1 -10 9 0 18 6 21 15 7z m-245 -200 c0 -19 -26 -48 -36 -39 -7 7 17 58 28 58 4 0 8 -8 8 -19z m674 -17 c5 -14 4 -15 -8 -5 -12 10 -14 9 -9 -7 6 -25 -11 -36 -27 -17 -10 12 -10 18 0 30 16 20 36 19 44 -1z m1022 -106 c10 -20 11 -28 3 -23 -8 6 -10 4 -3 -6 12 -20 14 -39 3 -39 -5 0 -9 -8 -10 -17 0 -16 -2 -15 -10 2 -12 24 -84 51 -75 28 3 -8 1 -11 -4 -8 -6 3 -10 1 -10 -5 0 -18 -29 15 -40 46 -6 15 -9 28 -8 30 2 1 27 4 57 6 31 2 56 8 58 15 7 18 20 7 39 -29z m-46 -78 c0 -5 -5 -10 -11 -10 -5 0 -7 5 -4 10 3 6 8 10 11 10 2 0 4 -4 4 -10z m2365 -160 c3 -5 1 -10 -4 -10 -6 0 -11 5 -11 10 0 6 2 10 4 10 3 0 8 -4 11 -10z m-3965 -45 c0 -8 -7 -15 -15 -15 -16 0 -20 12 -8 23 11 12 23 8 23 -8z m-10 -133 c0 -38 -123 -136 -144 -115 -9 9 27 63 42 63 8 0 32 16 53 35 45 40 49 42 49 17z m3927 -22 c-1 -11 -4 -20 -8 -20 -4 0 -9 -10 -13 -22 -5 -22 -6 -22 -20 -3 -19 25 -20 39 -3 32 8 -3 20 3 28 14 17 24 18 24 16 -1z m-103 -25 c-4 -8 -8 -15 -10 -15 -2 0 -4 7 -4 15 0 8 4 15 10 15 5 0 7 -7 4 -15z m56 -36 c0 -11 -4 -18 -10 -14 -5 3 -7 12 -3 20 7 21 13 19 13 -6z m50 -34 c-5 -14 -14 -23 -20 -20 -5 3 -10 1 -10 -5 0 -6 -6 -8 -12 -4 -10 5 -10 4 -1 -6 7 -8 9 -20 3 -35 -5 -13 -6 -26 -3 -29 4 -3 -2 -6 -11 -6 -11 0 -22 -12 -29 -30 -10 -26 -29 -43 -26 -22 3 20 -2 32 -16 32 -26 0 -16 20 13 26 25 5 27 10 30 57 2 28 5 53 7 55 2 2 12 -1 24 -7 14 -8 22 -8 27 1 4 7 3 8 -4 4 -18 -11 -14 5 5 26 14 16 18 17 25 4 4 -8 4 -26 -2 -41z m-1040 10 c0 -8 -4 -15 -10 -15 -5 0 -10 7 -10 15 0 8 5 15 10 15 6 0 10 -7 10 -15z m925 -32 c-7 -17 -8 -17 -15 2 -5 11 -9 27 -9 35 -1 12 2 11 15 -2 11 -11 14 -23 9 -35z m-974 30 c0 -5 2 -16 4 -25 2 -10 -1 -18 -6 -18 -11 0 -30 36 -22 44 9 8 23 8 24 -1z m946 -47 c-3 -8 1 -17 10 -20 9 -4 13 -9 10 -13 -9 -8 -37 17 -37 33 0 8 5 14 11 14 6 0 9 -6 6 -14z m-923 -53 c47 -43 49 -47 28 -54 -12 -5 -38 -6 -59 -4 -21 2 -42 4 -46 4 -5 1 -6 18 -3 39 3 20 5 43 6 50 0 23 25 12 74 -35z m31 27 c3 -5 1 -10 -4 -10 -6 0 -11 5 -11 10 0 6 2 10 4 10 3 0 8 -4 11 -10z m480 -50 c3 -5 2 -10 -4 -10 -5 0 -13 5 -16 10 -3 6 -2 10 4 10 5 0 13 -4 16 -10z m0 -50 c3 -5 1 -10 -4 -10 -6 0 -11 5 -11 10 0 6 2 10 4 10 3 0 8 -4 11 -10z m401 -22 c0 -18 3 -40 6 -48 2 -8 3 -12 1 -9 -6 11 -43 -2 -43 -15 0 -8 -3 -8 -8 0 -4 6 -15 13 -25 17 -18 7 -15 27 4 27 6 0 7 -4 4 -10 -3 -5 3 -10 14 -10 24 0 27 10 9 29 -10 11 -10 13 0 7 8 -5 12 1 12 18 0 15 6 26 13 26 8 0 13 -13 13 -32z m-410 -13 c-3 -8 -1 -16 4 -16 6 -1 16 -2 23 -3 6 -1 15 2 18 7 4 5 12 7 17 3 13 -8 6 -80 -8 -84 -15 -5 -12 -32 3 -32 6 0 -1 -11 -17 -25 -16 -14 -25 -25 -20 -25 4 0 -2 -7 -14 -16 -13 -9 -30 -13 -39 -10 -14 6 -14 9 1 31 10 15 12 26 6 30 -6 3 -8 16 -4 29 3 12 1 34 -5 48 -9 24 -8 26 15 23 28 -3 30 1 9 22 -16 15 -12 33 7 33 5 0 8 -7 4 -15z m118 -40 c-4 -8 -10 -12 -15 -9 -11 6 -2 24 11 24 5 0 7 -7 4 -15z m280 -40 c-4 -8 -8 -15 -10 -15 -2 0 -4 7 -4 15 0 8 4 15 10 15 5 0 7 -7 4 -15z m-1107 -10 c4 -12 17 -15 52 -13 l46 3 -3 -70 c-2 -47 0 -65 7 -56 5 8 6 21 3 30 -5 14 -3 14 18 0 14 -10 24 -24 22 -32 -1 -8 5 -20 13 -27 13 -11 14 -10 9 4 -4 11 -2 15 8 11 8 -3 23 3 33 15 10 11 24 20 31 20 7 0 23 12 36 28 13 15 34 35 46 46 19 17 22 17 37 2 9 -9 24 -16 33 -16 13 0 12 -4 -7 -19 l-24 -19 32 -7 c25 -5 32 -11 28 -25 -5 -19 9 -50 23 -50 6 0 10 8 11 18 0 14 2 14 9 -3 4 -11 4 -24 0 -29 -5 -5 -6 -15 -3 -24 4 -8 2 -13 -3 -10 -22 14 -11 -49 13 -74 l25 -26 -22 -12 c-16 -9 -20 -19 -18 -43 2 -18 8 -32 15 -32 20 0 27 -14 9 -21 -9 -3 -22 -1 -30 5 -11 9 -15 6 -21 -16 -5 -16 -7 -34 -6 -42 1 -7 -2 -10 -8 -6 -17 10 -1 -28 18 -43 14 -11 14 -14 1 -22 -8 -5 -18 -6 -22 -4 -4 3 -8 0 -8 -6 0 -7 7 -9 18 -5 14 5 15 4 5 -6 -15 -15 -17 -33 -4 -24 6 3 9 -4 8 -15 -1 -11 -5 -20 -10 -20 -5 0 -4 -6 2 -14 13 -15 12 -65 -2 -83 -5 -7 -7 -19 -4 -27 3 -8 -1 -17 -9 -20 -8 -3 -14 0 -14 6 0 14 -10 5 -15 -14 -9 -40 -18 -57 -27 -52 -5 3 -16 3 -24 0 -12 -4 -13 -10 -4 -26 8 -15 8 -24 -2 -34 -7 -7 -20 -23 -28 -35 -8 -11 -20 -21 -27 -21 -7 0 -13 -8 -13 -19 0 -10 -7 -24 -15 -31 -8 -7 -12 -16 -9 -21 3 -5 2 -9 -3 -8 -22 4 -33 -4 -48 -34 -15 -33 -67 -72 -79 -60 -3 3 -6 -1 -6 -10 0 -18 -55 -48 -74 -41 -7 3 -16 -3 -18 -13 -4 -14 -14 -18 -41 -17 -19 1 -40 5 -46 9 -6 3 -11 2 -11 -3 0 -10 -41 -24 -49 -17 -2 3 4 11 14 19 17 12 13 13 -36 14 -77 0 -81 1 -74 12 6 9 -16 15 -40 10 -5 -1 -4 4 3 11 19 20 15 26 -24 27 -24 1 -42 8 -50 21 -16 22 -51 33 -57 17 -3 -7 -11 -3 -23 9 -17 19 -24 20 -69 10 -41 -9 -55 -8 -77 4 -16 9 -28 22 -28 29 0 7 -9 23 -20 34 l-20 22 -30 -32 c-29 -32 -45 -39 -54 -23 -8 12 28 43 45 39 8 -2 13 3 12 10 -2 6 2 12 7 12 16 0 11 30 -5 32 -8 0 -21 1 -27 2 -21 2 -46 39 -50 75 -2 28 1 35 20 42 13 5 22 5 22 -2 0 -6 6 -6 18 0 12 7 26 6 43 -3 20 -10 30 -9 69 10 32 16 49 20 62 13 10 -6 24 -6 31 -2 18 11 33 13 145 16 71 3 106 8 112 17 4 7 19 13 34 13 14 0 26 3 26 8 0 5 6 8 13 7 7 -2 11 6 9 19 -2 12 2 24 8 28 5 3 10 14 10 24 0 10 7 24 15 31 8 7 12 16 9 21 -3 5 5 18 17 28 31 25 17 40 -30 34 -33 -5 -44 -1 -63 19 -19 20 -28 23 -51 17 -16 -4 -55 -10 -87 -13 -49 -4 -62 -2 -70 12 -8 12 -13 14 -16 5 -3 -7 -10 -13 -15 -13 -6 0 -8 4 -5 9 8 13 -40 42 -59 35 -10 -4 -21 1 -30 12 -7 11 -17 16 -21 12 -4 -4 -13 -3 -21 3 -10 9 -13 7 -13 -11 0 -29 -34 -23 -38 8 -4 23 -18 30 -24 11 -2 -7 -11 -8 -28 0 -14 6 -44 15 -68 21 -24 6 -51 19 -62 30 -24 24 -65 38 -55 19 3 -8 -2 -4 -13 9 -11 12 -27 22 -36 22 -9 0 -16 5 -16 11 0 15 41 51 49 44 3 -4 -1 -10 -9 -15 -13 -8 -13 -11 1 -26 11 -11 19 -12 23 -5 4 6 0 11 -8 11 -11 0 -9 7 9 26 13 14 28 23 33 20 5 -3 8 10 7 29 -1 37 4 42 22 24 6 -6 22 -7 38 -3 23 6 25 8 11 16 -9 5 -29 11 -44 12 -15 2 -31 4 -35 5 -4 0 -16 20 -26 42 -18 39 -20 40 -30 20 -17 -30 -71 -28 -110 5 -24 20 -29 29 -21 44 5 9 7 20 3 23 -3 4 5 11 19 16 45 17 86 19 105 6 15 -11 22 -10 46 11 39 33 150 35 207 3 l38 -22 26 21 c16 12 51 23 89 28 81 11 106 8 128 -12 17 -15 20 -15 48 5 35 25 97 28 122 5 17 -15 21 -15 51 5 39 25 106 28 115 6z m1056 -16 c12 -1 26 -1 30 0 4 1 1 -12 -8 -29 -15 -29 -40 -34 -29 -6 3 8 -4 21 -16 29 -15 10 -19 20 -14 29 7 10 9 9 12 -4 2 -10 13 -19 25 -19z m-63 -3 c0 -2 -6 -19 -14 -37 -17 -39 -56 -70 -56 -44 0 8 7 15 16 15 8 0 12 5 9 10 -3 6 1 13 9 16 9 3 16 15 16 25 0 10 5 19 10 19 6 0 10 -2 10 -4z m35 -75 c2 -17 -1 -31 -6 -31 -5 0 -9 -6 -9 -13 0 -7 -10 -21 -21 -31 -17 -14 -23 -15 -29 -5 -5 7 -6 19 -2 27 4 11 1 13 -9 8 -8 -4 -6 -1 4 7 9 8 17 17 17 21 0 8 44 54 48 51 1 -1 4 -16 7 -34z m-575 -367 c0 -8 -4 -12 -10 -9 -5 3 -10 10 -10 16 0 5 5 9 10 9 6 0 10 -7 10 -16z m-1210 -444 c0 -5 -7 -10 -16 -10 -8 0 -12 5 -9 10 3 6 10 10 16 10 5 0 9 -4 9 -10z m7 -33 c0 -8 -6 -14 -13 -14 -7 0 -10 6 -7 14 3 7 8 13 12 13 4 0 8 -6 8 -13z m100 -106 c7 -10 9 -21 7 -24 -8 -8 -44 25 -38 35 8 13 18 9 31 -11z m182 -60 c-15 -5 -22 6 -14 19 6 9 10 9 16 -1 5 -8 4 -15 -2 -18z m1258 -91 c-2 -11 -14 -30 -26 -41 -18 -17 -25 -19 -31 -8 -11 17 -2 32 16 25 8 -3 14 0 13 7 -3 26 2 37 16 37 9 0 14 -8 12 -20z m47 -86 c-9 -14 -23 -23 -30 -20 -10 4 -14 -3 -14 -24 0 -17 -4 -30 -10 -30 -5 0 -10 -5 -10 -10 0 -7 6 -7 19 0 25 13 64 13 56 0 -4 -6 -10 -8 -15 -5 -4 3 -15 2 -23 -1 -14 -5 -14 -8 1 -25 14 -16 17 -17 25 -4 9 16 27 12 27 -6 0 -6 -6 -7 -12 -3 -10 6 -10 4 -2 -7 16 -20 23 -78 10 -82 -8 -3 -7 -11 1 -25 11 -18 10 -23 -5 -34 -28 -20 -36 -38 -17 -38 10 0 14 5 9 13 -5 9 -4 9 5 1 10 -9 10 -17 1 -33 -6 -12 -8 -27 -4 -34 5 -8 2 -7 -9 2 -12 9 -17 10 -17 2 0 -6 7 -14 15 -17 8 -4 15 -13 15 -21 0 -9 -6 -13 -14 -10 -8 3 -13 0 -11 -6 1 -7 6 -27 10 -44 4 -18 11 -30 16 -28 4 3 10 1 13 -4 4 -5 2 -12 -4 -16 -15 -9 -12 -51 5 -68 11 -12 12 -16 2 -20 -9 -3 -9 -11 0 -35 6 -18 8 -32 4 -32 -4 0 -7 -9 -8 -20 -1 -11 2 -18 8 -15 5 4 9 -1 9 -9 0 -9 -6 -13 -13 -10 -8 3 -14 -2 -14 -11 0 -8 4 -15 9 -15 4 0 8 -9 8 -20 0 -11 -6 -20 -13 -20 -7 0 -14 -11 -15 -25 -1 -14 3 -25 9 -25 6 0 9 6 7 13 -3 6 10 25 29 40 18 16 33 24 33 18 0 -6 -4 -11 -9 -11 -5 0 -12 -8 -15 -17 -15 -41 -39 -75 -45 -65 -4 7 -12 8 -21 2 -13 -8 -13 -10 1 -10 9 0 20 -7 23 -16 3 -8 10 -13 15 -9 5 3 12 -4 16 -15 4 -11 11 -18 16 -15 5 4 9 2 9 -4 0 -5 -5 -13 -11 -16 -5 -4 -9 -14 -7 -23 2 -10 -4 -26 -14 -36 -22 -24 -23 -53 -3 -53 18 0 20 17 3 18 -10 0 -10 2 0 6 6 2 10 9 6 14 -3 5 2 9 11 9 11 0 15 -5 11 -15 -3 -9 0 -15 9 -15 7 0 17 -4 20 -10 4 -6 -1 -7 -11 -3 -11 4 -15 3 -11 -4 10 -15 -2 -43 -18 -43 -7 0 -15 -7 -19 -15 -3 -9 0 -15 10 -15 9 0 12 -5 8 -12 -4 -7 -4 -10 1 -6 4 4 15 2 23 -5 13 -10 14 -9 4 9 -6 12 -7 26 -1 35 7 12 9 12 10 -1 1 -8 1 -18 0 -22 -2 -12 17 -10 24 2 4 6 2 16 -3 23 -12 15 4 61 18 52 5 -3 10 -11 10 -16 0 -6 -4 -7 -10 -4 -5 3 -10 1 -10 -4 0 -6 5 -11 11 -11 5 0 7 -4 4 -10 -3 -5 -8 -35 -11 -66 -2 -30 -11 -68 -19 -83 -8 -16 -11 -31 -8 -35 4 -3 1 -6 -5 -6 -7 0 -12 -6 -12 -14 0 -8 -13 -28 -30 -46 -16 -17 -29 -35 -29 -38 1 -4 0 -10 -1 -14 -1 -5 -3 -14 -4 -20 0 -7 -8 -14 -16 -14 -32 -3 -34 -5 -18 -15 16 -9 17 -13 3 -39 -8 -16 -15 -36 -15 -45 0 -9 -4 -14 -9 -11 -5 3 -11 -8 -15 -24 -3 -18 -12 -30 -21 -30 -8 0 -15 -7 -15 -15 0 -8 -5 -15 -11 -15 -8 0 -7 -6 2 -17 8 -9 9 -14 2 -10 -6 4 -18 1 -26 -7 -8 -8 -17 -13 -20 -10 -3 3 -14 1 -24 -5 -17 -10 -17 -11 5 -17 22 -6 31 -24 12 -24 -5 0 -7 -7 -4 -15 4 -8 1 -15 -6 -15 -6 0 -10 10 -8 22 2 15 -3 24 -15 26 -15 3 -17 0 -10 -15 5 -10 8 -24 7 -30 -1 -7 -2 -20 -3 -28 0 -8 -8 -15 -16 -15 -8 0 -15 -6 -15 -14 0 -8 7 -16 15 -20 21 -8 19 -24 -5 -31 -13 -4 -20 -15 -20 -30 0 -13 -4 -27 -10 -30 -5 -3 -10 -15 -10 -26 0 -14 -4 -18 -12 -12 -7 4 -5 -5 5 -20 9 -15 15 -27 11 -27 -4 0 -1 -7 6 -15 10 -12 8 -33 -10 -108 -12 -50 -29 -111 -37 -134 -8 -23 -14 -45 -13 -48 0 -3 -6 -13 -15 -21 -8 -9 -15 -29 -15 -45 0 -16 -4 -29 -10 -29 -5 0 -7 -7 -4 -15 4 -8 1 -15 -5 -15 -6 0 -11 -4 -11 -9 0 -5 -47 -56 -104 -113 -57 -57 -143 -155 -192 -218 -48 -63 -94 -119 -101 -123 -7 -4 -19 -22 -28 -40 -8 -18 -35 -54 -59 -80 -23 -26 -40 -47 -37 -47 3 0 -1 -5 -9 -10 -8 -5 -15 -14 -15 -20 0 -6 -7 -15 -15 -20 -8 -5 -11 -10 -6 -10 5 0 0 -10 -12 -22 -11 -13 -26 -34 -31 -48 -14 -32 -51 -93 -60 -100 -4 -3 -16 -20 -26 -37 -11 -18 -23 -33 -27 -33 -4 0 -8 -5 -8 -11 0 -6 -13 -27 -30 -46 -16 -18 -30 -31 -30 -29 0 3 -11 -6 -25 -20 -14 -14 -25 -29 -25 -34 0 -6 -7 -10 -15 -10 -8 0 -15 -7 -15 -15 0 -8 -3 -15 -8 -15 -4 0 -13 -13 -20 -30 -8 -16 -17 -30 -22 -30 -4 0 -25 26 -46 58 -156 232 -414 522 -604 678 -79 65 -110 98 -120 128 -7 23 -22 38 -53 53 -24 12 -64 39 -89 61 -25 21 -86 68 -134 103 -49 35 -96 72 -104 83 -13 18 -70 163 -70 176 1 3 7 -7 15 -22 11 -20 20 -25 36 -21 13 4 20 2 16 -3 -3 -6 6 -11 19 -12 15 -1 23 2 19 9 -9 14 15 41 32 35 8 -4 11 -1 7 5 -3 6 -17 9 -31 6 -18 -3 -23 -1 -18 10 3 11 1 13 -10 9 -8 -3 -15 -1 -15 4 0 6 -6 10 -12 10 -21 1 -65 42 -50 47 6 3 10 8 7 13 -3 4 6 3 19 -3 15 -7 21 -16 16 -21 -11 -11 38 -39 56 -32 8 3 11 16 8 33 -4 26 -3 27 10 9 16 -20 41 -12 32 11 -4 8 -1 11 5 8 6 -4 8 -13 5 -21 -7 -19 14 -30 25 -13 6 10 9 11 9 2 0 -7 9 -13 21 -13 11 0 17 -4 14 -10 -3 -6 1 -7 9 -4 9 3 16 11 16 17 0 5 9 2 20 -8 18 -16 20 -16 26 -2 4 12 11 14 24 7 9 -5 21 -6 25 -2 5 4 5 -1 2 -10 -4 -12 -1 -18 8 -18 8 0 15 4 15 8 0 5 13 9 30 9 18 0 27 -4 23 -11 -4 -6 1 -5 10 3 10 8 27 11 42 7 14 -4 25 -2 25 4 0 5 7 10 15 10 8 0 15 5 15 11 0 8 5 8 15 -1 16 -14 18 -10 15 34 -1 23 2 28 14 23 10 -4 19 -1 22 8 4 8 14 15 24 15 10 0 22 9 25 21 5 15 10 17 19 10 17 -15 27 -2 16 19 -9 18 -4 30 13 30 5 0 7 -7 3 -15 -6 -17 9 -21 19 -5 4 6 11 8 16 5 5 -4 12 1 15 10 5 12 9 13 20 4 8 -6 14 -18 14 -25 0 -8 6 -14 13 -15 33 -2 53 -9 64 -25 7 -10 13 -13 13 -6 0 7 7 5 20 -5 13 -11 16 -19 8 -24 -6 -4 5 -17 30 -34 32 -21 45 -24 59 -17 20 12 22 9 -33 27 -31 10 -7 16 35 9 30 -5 41 -11 39 -23 -2 -9 3 -15 10 -13 6 1 12 -4 12 -10 0 -9 4 -8 10 2 6 10 10 11 10 2 0 -6 3 -11 8 -10 4 0 15 -2 26 -7 11 -5 21 -3 25 4 5 8 12 7 27 -4 10 -8 35 -15 54 -15 20 0 41 -5 47 -11 13 -13 78 14 87 37 3 8 13 14 23 14 15 0 16 -2 3 -10 -12 -8 -12 -10 4 -16 12 -5 22 -2 28 9 4 9 15 14 22 11 7 -3 16 2 20 11 4 10 12 15 22 11 10 -4 13 -2 8 6 -5 8 -2 9 11 4 15 -5 16 -4 5 9 -15 19 3 47 26 38 8 -3 14 1 14 8 0 10 3 10 11 2 13 -13 28 -3 48 36 11 19 11 25 0 32 -12 7 -12 10 0 21 10 9 12 10 7 1 -5 -9 -2 -11 9 -6 10 3 21 0 26 -8 6 -10 9 -8 9 10 0 18 -4 22 -17 17 -14 -6 -12 -2 5 17 12 13 22 28 22 33 0 5 9 10 20 10 14 0 18 -5 15 -17 -3 -10 -1 -20 5 -24 9 -6 14 10 13 43 -1 8 6 10 18 7 10 -4 19 -2 19 4 0 6 9 15 20 21 15 8 20 8 18 -1 -3 -10 35 -18 45 -9 1 1 16 4 32 6 56 7 55 6 43 27 -7 14 -7 17 1 13 6 -4 11 -3 11 2 0 5 9 12 19 15 15 4 18 11 14 27 -4 16 -3 21 6 16 21 -13 51 4 51 29 0 29 16 41 34 26 10 -8 20 -6 39 10 15 11 31 18 35 15 5 -3 9 1 9 9 0 17 -13 20 -22 5 -12 -19 -30 -10 -30 15 0 14 3 25 8 25 4 0 7 -9 7 -21 0 -11 4 -17 10 -14 6 4 8 16 5 28 -5 19 -5 20 5 5 13 -21 36 -24 43 -5 3 9 9 9 26 -1 13 -7 21 -8 21 -2 0 6 10 9 23 7 12 -2 16 -2 9 0 -7 3 -9 9 -6 15 4 7 2 8 -4 4 -7 -4 -12 -2 -12 3 0 15 23 14 38 -1 7 -7 12 -10 13 -7 0 2 2 14 5 26 2 15 -1 22 -9 20 -6 -1 -11 4 -10 10 2 10 -3 10 -22 1 -14 -6 -25 -17 -25 -24 0 -8 -6 -11 -15 -8 -8 4 -13 10 -10 14 3 5 -1 11 -7 14 -10 3 -8 9 5 19 9 8 17 19 17 26 0 6 7 11 15 11 9 0 15 9 16 23 0 21 1 21 11 -3 6 -14 12 -20 15 -13 2 7 -1 21 -7 32 -9 18 -14 19 -30 9 -28 -18 -46 2 -29 30 11 18 10 23 -11 40 -25 20 -25 20 -45 -2 -11 -12 -29 -20 -40 -18 -15 2 -17 1 -6 -6 9 -7 10 -12 2 -16 -6 -4 -11 -3 -11 2 0 17 -42 53 -56 48 -8 -3 -14 -1 -14 4 0 16 15 19 53 10 34 -7 58 2 44 17 -10 10 -72 10 -88 0 -9 -6 -24 -7 -34 -3 -14 5 -15 9 -5 21 13 15 13 15 -34 29 -17 5 -28 -28 -14 -42 6 -6 4 -11 -6 -15 -10 -4 -13 -1 -9 8 3 8 -2 17 -10 21 -9 3 -14 13 -11 22 2 9 -2 4 -9 -12 -8 -16 -17 -24 -21 -18 -3 5 -15 8 -25 5 -10 -3 -22 0 -25 6 -8 12 -27 15 -25 4 4 -22 -3 -33 -19 -33 -31 0 -33 12 -6 35 l26 23 -26 -5 c-14 -3 -26 -10 -26 -17 0 -6 -4 -5 -9 3 -8 12 -14 13 -35 3 -23 -10 -26 -9 -26 7 0 23 19 39 43 35 13 -1 17 2 13 12 -3 8 1 14 10 14 8 0 12 -4 9 -10 -3 -5 -1 -10 4 -10 6 0 11 4 11 8 0 14 -23 32 -42 32 -10 0 -18 5 -18 10 0 6 -8 10 -17 10 -15 0 -16 2 -3 10 12 8 12 10 -5 11 -11 0 -14 3 -7 6 6 2 12 10 12 18 0 7 7 18 16 26 10 8 13 21 9 37 -3 13 -2 21 4 18 8 -5 22 27 26 59 0 6 6 9 13 8 7 -2 11 3 9 10 -1 7 9 12 26 12 18 0 36 9 48 24 21 25 25 51 8 51 -5 0 -7 -4 -4 -10 11 -18 -29 3 -43 22 -12 16 -16 17 -30 6 -12 -10 -14 -10 -8 0 10 16 -26 16 -42 0 -10 -10 -14 -10 -21 0 -10 17 -54 -1 -91 -36 -24 -24 -24 -24 -5 -39 20 -14 20 -14 0 -26 -24 -14 -57 -18 -49 -6 3 5 13 9 22 10 11 0 12 2 4 6 -6 2 -10 9 -6 14 3 5 -3 8 -13 7 -88 -7 -58 39 36 57 11 2 30 13 43 24 12 12 28 21 35 21 7 0 13 7 13 15 0 8 10 20 23 26 28 15 57 45 50 52 -3 3 4 3 16 0 26 -7 27 5 4 23 -17 12 -17 13 1 20 12 5 21 3 24 -4 5 -17 22 -15 22 3 0 8 -4 14 -9 12 -10 -2 -11 2 -11 32 0 13 11 24 35 32 19 7 35 18 35 25 0 6 13 25 28 40 15 16 34 38 42 48 14 18 14 19 -8 7 -30 -16 -40 -6 -23 21 12 19 11 20 -11 15 -22 -6 -25 -3 -25 25 0 23 7 35 29 47 19 11 26 21 22 34 -5 17 18 49 33 45 16 -4 53 27 53 45 0 21 49 77 67 77 17 0 73 38 128 88 7 6 16 12 20 12 13 0 34 28 27 35 -4 5 -2 5 5 2 16 -10 44 20 37 38 -7 18 22 21 30 3 3 -7 4 -4 3 7 -1 11 4 20 11 21 6 1 18 2 25 3 8 1 8 4 -3 10 -8 6 -17 8 -20 6 -3 -2 -6 7 -6 20 0 20 3 22 18 14 14 -7 20 -6 24 6 3 8 10 12 15 9 5 -3 -1 -14 -13 -24 -16 -13 -18 -19 -9 -20 8 0 24 -9 36 -20 20 -19 21 -19 33 0 7 11 8 20 3 20 -5 0 -11 -6 -14 -12 -2 -7 -7 -10 -11 -7 -3 3 3 17 15 30 12 13 16 25 10 27 -6 2 -8 8 -5 14 4 6 10 5 15 -3 8 -11 11 -11 20 4 5 9 19 17 30 17 19 0 19 -1 3 -26z m-237 -110 c-3 -3 -12 -4 -19 -1 -8 3 -5 6 6 6 11 1 17 -2 13 -5z m-62 -61 c-19 -13 -45 -18 -45 -8 0 15 27 31 44 27 18 -5 18 -6 1 -19z m-55 -19 c0 -13 -31 -35 -41 -28 -9 5 -6 11 6 21 20 14 35 17 35 7z m-299 -337 c-10 -9 -11 -8 -5 6 3 10 9 15 12 12 3 -3 0 -11 -7 -18z m-41 -52 c10 -12 10 -15 -4 -15 -9 0 -16 7 -16 15 0 8 2 15 4 15 2 0 9 -7 16 -15z m64 -1 c9 -3 16 -10 16 -16 0 -5 -4 -6 -10 -3 -5 3 -10 -1 -10 -9 0 -10 -6 -13 -15 -10 -8 4 -15 10 -15 16 0 5 4 6 10 3 6 -3 7 1 4 9 -7 18 -3 19 20 10z m-59 -65 c-10 -15 -25 -10 -19 6 4 8 10 12 15 9 5 -3 7 -10 4 -15z m760 -210 c0 -7 -8 -15 -17 -17 -10 -2 -18 1 -18 7 0 6 5 11 11 11 5 0 7 5 3 11 -4 7 -1 10 7 7 8 -3 14 -11 14 -19z m40 -131 c4 -3 2 -9 -3 -12 -5 -3 -15 1 -21 8 -10 11 -9 14 3 12 9 -1 18 -5 21 -8z m-962 -30 c-9 -10 -20 -18 -24 -18 -4 0 -7 8 -6 18 0 12 9 18 24 18 21 0 21 -1 6 -18z m71 14 c3 -5 -1 -9 -9 -9 -8 0 -12 4 -9 9 3 4 7 8 9 8 2 0 6 -4 9 -8z m-65 -63 c-16 -10 -23 -4 -14 10 3 6 11 8 17 5 6 -4 5 -9 -3 -15z m101 -394 c-10 -12 -15 -12 -37 2 -17 12 -21 18 -12 24 7 4 17 5 21 3 4 -3 8 0 8 6 0 7 7 5 16 -5 13 -12 13 -19 4 -30z m211 22 c-1 -12 -15 -9 -19 4 -3 6 1 10 8 8 6 -3 11 -8 11 -12z m-198 -46 c3 -14 1 -18 -9 -14 -15 6 -18 16 -7 26 9 10 10 9 16 -12z m194 -13 c-3 -8 -6 -5 -6 6 -1 11 2 17 5 13 3 -3 4 -12 1 -19z m53 -2 c0 -3 -4 -8 -10 -11 -5 -3 -10 -1 -10 4 0 6 5 11 10 11 6 0 10 -2 10 -4z m-80 -15 c0 -12 -28 -22 -34 -12 -3 5 -3 11 1 15 9 9 33 7 33 -3z m164 -7 c9 -3 13 -10 10 -15 -3 -5 0 -9 5 -9 6 0 11 -5 11 -11 0 -8 -4 -9 -13 0 -8 6 -18 7 -22 3 -5 -4 -5 -1 -1 6 4 6 2 12 -3 12 -6 0 -11 5 -11 10 0 12 3 12 24 4z m51 -85 c-7 -11 -35 -12 -35 -1 0 4 9 8 20 9 11 1 18 -2 15 -8z m-55 -19 c0 -5 -4 -10 -10 -10 -5 0 -10 5 -10 10 0 6 5 10 10 10 6 0 10 -4 10 -10z m0 -24 c0 -3 -4 -8 -10 -11 -5 -3 -10 -1 -10 4 0 6 5 11 10 11 6 0 10 -2 10 -4z m-257 -252 c-4 -12 -8 -13 -14 -3 -9 15 -2 32 11 24 5 -3 6 -13 3 -21z m437 -54 c0 -5 -5 -10 -11 -10 -5 0 -7 5 -4 10 3 6 8 10 11 10 2 0 4 -4 4 -10z m-2300 -122 c0 -7 -33 -28 -43 -28 -3 0 -3 9 0 19 5 18 43 26 43 9z m43 -24 c3 -3 3 -13 0 -21 -5 -12 -7 -12 -14 -1 -15 23 -4 40 14 22z m1093 -1950 c-14 -36 -15 -37 -15 -11 -1 30 20 79 26 61 2 -5 -3 -28 -11 -50z m184 -88 c0 -14 -5 -28 -10 -31 -13 -8 -24 20 -16 40 9 24 26 17 26 -9z m-95 -2526 c3 -6 -4 -10 -17 -10 -18 0 -20 2 -8 10 19 12 18 12 25 0z m-74 -236 c30 -22 40 -25 84 -19 40 5 48 4 37 -6 -6 -7 -34 -13 -61 -14 -39 0 -55 5 -75 24 -22 21 -33 41 -23 41 2 0 19 -12 38 -26z"/>
<path d="M13030 13030 c0 -5 4 -10 9 -10 6 0 13 5 16 10 3 6 -1 10 -9 10 -9 0 -16 -4 -16 -10z"/>
<path d="M13078 13033 c6 -2 18 -2 25 0 6 3 1 5 -13 5 -14 0 -19 -2 -12 -5z"/>
<path d="M13488 13033 c6 -2 18 -2 25 0 6 3 1 5 -13 5 -14 0 -19 -2 -12 -5z"/>
<path d="M12988 13023 c7 -3 16 -2 19 1 4 3 -2 6 -13 5 -11 0 -14 -3 -6 -6z"/>
<path d="M13275 12980 c-3 -5 -1 -10 4 -10 6 0 11 5 11 10 0 6 -2 10 -4 10 -3 0 -8 -4 -11 -10z"/>
<path d="M13750 12960 c0 -6 -4 -8 -10 -5 -5 3 -10 1 -10 -5 0 -6 6 -10 13 -9 6 1 20 -1 30 -6 27 -12 28 -2 1 18 -13 10 -24 13 -24 7z"/>
<path d="M13006 12937 c3 -10 9 -15 12 -12 3 3 0 11 -7 18 -10 9 -11 8 -5 -6z"/>
<path d="M12660 12920 c-8 -5 -11 -12 -8 -16 10 -9 38 3 38 16 0 12 -10 13 -30 0z"/>
<path d="M12860 12911 c0 -8 6 -11 16 -7 9 3 20 6 25 6 5 0 9 4 9 9 0 5 -11 8 -25 7 -14 0 -25 -7 -25 -15z"/>
<path d="M12285 12800 c3 -6 1 -10 -4 -10 -6 0 -11 -9 -11 -20 0 -11 -4 -20 -10 -20 -5 0 -10 -4 -10 -8 0 -5 7 -9 15 -9 8 0 12 4 10 7 -3 4 4 18 15 30 24 28 24 26 4 34 -8 3 -12 2 -9 -4z"/>
<path d="M12302 12658 c-15 -15 -16 -31 0 -26 6 2 12 12 14 21 3 20 2 21 -14 5z"/>
<path d="M12290 12615 c0 -18 19 -40 26 -32 4 4 0 15 -9 24 -9 10 -17 13 -17 8z"/>
<path d="M12326 12575 c-3 -8 -1 -15 3 -15 5 0 11 7 15 15 3 8 1 15 -3 15 -5 0 -11 -7 -15 -15z"/>
<path d="M12346 12535 c-15 -23 -45 -37 -31 -15 3 6 1 10 -4 10 -16 0 -13 -20 4 -26 8 -3 17 -14 20 -24 8 -24 45 -22 45 2 0 12 -5 16 -17 12 -12 -4 -14 -3 -6 3 8 6 15 63 7 63 -1 0 -9 -11 -18 -25z"/>
<path d="M12397 12543 c-4 -3 -7 -11 -7 -17 0 -6 5 -5 12 2 6 6 9 14 7 17 -3 3 -9 2 -12 -2z"/>
<path d="M12317 12464 c-8 -8 3 -34 14 -34 11 0 12 27 0 34 -4 3 -11 3 -14 0z"/>
<path d="M12391 12454 c0 -11 3 -14 6 -6 3 7 2 16 -1 19 -3 4 -6 -2 -5 -13z"/>
<path d="M12343 12405 c0 -8 4 -15 9 -15 4 0 8 7 8 15 0 8 -4 15 -8 15 -5 0 -9 -7 -9 -15z"/>
<path d="M14132 12411 c-11 -7 -11 -9 2 -14 10 -4 16 -1 16 8 0 17 -1 17 -18 6z"/>
<path d="M12337 12330 c3 -11 9 -17 14 -15 10 7 1 35 -11 35 -5 0 -6 -9 -3 -20z"/>
<path d="M12232 12310 c3 -37 13 -50 38 -50 12 1 11 4 -4 15 -10 7 -16 17 -13 22 3 4 -1 17 -10 28 -14 19 -14 18 -11 -15z"/>
<path d="M12263 12234 c-15 -15 -17 -34 -4 -34 15 0 30 25 23 37 -5 8 -11 7 -19 -3z"/>
<path d="M12175 12169 c-4 -6 -5 -12 -2 -15 2 -3 7 2 10 11 7 17 1 20 -8 4z"/>
<path d="M14390 12117 c0 -6 9 -18 20 -25 16 -10 20 -10 20 1 0 6 -9 18 -20 25 -16 10 -20 10 -20 -1z"/>
<path d="M14091 11931 c3 -8 16 -21 29 -30 18 -12 22 -13 19 -2 -3 8 -16 21 -29 30 -18 12 -22 13 -19 2z"/>
<path d="M14415 11900 c3 -5 15 -10 25 -10 10 0 22 -5 25 -10 4 -6 11 -8 16 -4 6 4 6 11 -2 20 -13 16 -74 20 -64 4z"/>
<path d="M14336 11815 c-3 -9 0 -15 9 -15 16 0 20 16 6 24 -5 3 -11 -1 -15 -9z"/>
<path d="M12991 11654 c0 -11 3 -14 6 -6 3 7 2 16 -1 19 -3 4 -6 -2 -5 -13z"/>
<path d="M12761 11524 c0 -11 3 -14 6 -6 3 7 2 16 -1 19 -3 4 -6 -2 -5 -13z"/>
<path d="M14250 11381 c0 -12 29 -23 42 -15 6 4 5 10 -3 15 -18 11 -39 11 -39 0z"/>
<path d="M14381 11284 c0 -11 3 -14 6 -6 3 7 2 16 -1 19 -3 4 -6 -2 -5 -13z"/>
<path d="M14400 11280 c0 -5 5 -10 11 -10 5 0 7 5 4 10 -3 6 -8 10 -11 10 -2 0 -4 -4 -4 -10z"/>
<path d="M14575 11210 c3 -5 8 -10 11 -10 2 0 4 5 4 10 0 6 -5 10 -11 10 -5 0 -7 -4 -4 -10z"/>
<path d="M14558 11184 c6 -3 12 -13 12 -21 0 -9 10 -24 22 -35 19 -17 23 -17 31 -3 4 9 7 26 5 38 -2 18 -10 22 -43 24 -22 1 -34 0 -27 -3z"/>
<path d="M14620 11061 c0 -6 4 -13 10 -16 6 -3 7 1 4 9 -7 18 -14 21 -14 7z"/>
<path d="M14628 10983 c7 -3 16 -2 19 1 4 3 -2 6 -13 5 -11 0 -14 -3 -6 -6z"/>
<path d="M14705 10810 c3 -5 8 -10 11 -10 2 0 4 5 4 10 0 6 -5 10 -11 10 -5 0 -7 -4 -4 -10z"/>
<path d="M14665 10600 c-3 -5 -1 -10 4 -10 6 0 11 5 11 10 0 6 -2 10 -4 10 -3 0 -8 -4 -11 -10z"/>
<path d="M12600 10345 c0 -8 5 -15 10 -15 6 0 10 7 10 15 0 8 -4 15 -10 15 -5 0 -10 -7 -10 -15z"/>
<path d="M13366 10051 c-4 -7 -5 -15 -2 -18 9 -9 19 4 14 18 -4 11 -6 11 -12 0z"/>
<path d="M14592 10010 c0 -14 2 -19 5 -12 2 6 2 18 0 25 -3 6 -5 1 -5 -13z"/>
<path d="M12870 9490 c0 -5 5 -10 10 -10 6 0 10 5 10 10 0 6 -4 10 -10 10 -5 0 -10 -4 -10 -10z"/>
<path d="M11010 10760 c-9 -6 -10 -10 -3 -10 6 0 15 5 18 10 8 12 4 12 -15 0z"/>
<path d="M10774 10568 c-4 -7 -3 -8 4 -4 7 4 12 3 12 -2 0 -6 7 -12 15 -16 13 -4 14 -2 5 14 -12 23 -25 26 -36 8z"/>
<path d="M11090 10550 c0 -5 5 -10 10 -10 6 0 10 5 10 10 0 6 -4 10 -10 10 -5 0 -10 -4 -10 -10z"/>
<path d="M11165 10550 c-3 -5 -1 -10 4 -10 6 0 11 5 11 10 0 6 -2 10 -4 10 -3 0 -8 -4 -11 -10z"/>
<path d="M11035 10540 c-9 -15 -1 -23 21 -18 15 3 16 4 1 16 -11 9 -17 10 -22 2z"/>
<path d="M11000 10515 c0 -8 5 -15 10 -15 6 0 10 7 10 15 0 8 -4 15 -10 15 -5 0 -10 -7 -10 -15z"/>
<path d="M11926 10468 c5 -8 2 -9 -9 -5 -14 5 -15 3 -4 -13 8 -14 13 -16 16 -8 2 7 8 16 13 19 5 3 2 9 -7 12 -11 5 -14 3 -9 -5z"/>
<path d="M11040 10440 c0 -5 5 -10 11 -10 5 0 7 5 4 10 -3 6 -8 10 -11 10 -2 0 -4 -4 -4 -10z"/>
<path d="M11132 10429 c2 -6 8 -10 13 -10 5 0 11 4 13 10 2 6 -4 11 -13 11 -9 0 -15 -5 -13 -11z"/>
<path d="M11550 10019 c0 -5 5 -7 10 -4 6 3 10 8 10 11 0 2 -4 4 -10 4 -5 0 -10 -5 -10 -11z"/>
<path d="M11670 9979 c0 -11 37 -12 43 -1 3 4 -6 8 -19 8 -13 1 -24 -2 -24 -7z"/>
<path d="M14055 9329 c-4 -6 -5 -12 -2 -15 2 -3 7 2 10 11 7 17 1 20 -8 4z"/>
<path d="M14010 9229 c0 -5 5 -7 10 -4 6 3 10 8 10 11 0 2 -4 4 -10 4 -5 0 -10 -5 -10 -11z"/>
<path d="M13304 9219 c-10 -17 13 -36 27 -22 12 12 4 33 -11 33 -5 0 -12 -5 -16 -11z"/>
<path d="M13140 9191 c-18 -35 -12 -49 19 -46 48 4 55 14 30 41 -27 29 -35 30 -49 5z"/>
<path d="M12986 9183 c-3 -3 -6 -19 -6 -35 0 -25 3 -28 33 -28 29 0 78 19 50 20 -6 0 -25 11 -41 25 -16 13 -32 22 -36 18z"/>
<path d="M12720 9118 c0 -9 -8 -19 -17 -21 -13 -3 -14 -5 -3 -6 8 0 22 4 30 9 12 7 12 12 2 22 -9 9 -12 9 -12 -4z"/>
<path d="M12750 9090 c0 -5 13 -10 29 -10 17 0 33 5 36 10 4 6 -8 10 -29 10 -20 0 -36 -4 -36 -10z"/>
<path d="M13683 8823 c0 -9 4 -10 14 -2 7 6 13 12 13 14 0 1 -6 2 -13 2 -8 0 -14 -6 -14 -14z"/>
<path d="M13700 7720 c0 -5 5 -10 11 -10 5 0 7 5 4 10 -3 6 -8 10 -11 10 -2 0 -4 -4 -4 -10z"/>
<path d="M13563 7529 c2 -24 23 -25 29 -1 4 12 -1 18 -13 19 -12 1 -17 -5 -16 -18z"/>
<path d="M14116 7541 c-19 -7 -18 -8 4 -14 26 -7 43 0 35 14 -7 10 -13 10 -39 0z"/>
<path d="M14142 7463 c2 -9 8 -18 14 -20 16 -5 13 25 -3 32 -10 3 -13 -1 -11 -12z"/>
<path d="M14120 7341 c0 -6 4 -13 10 -16 6 -3 7 1 4 9 -7 18 -14 21 -14 7z"/>
<path d="M14113 7265 c0 -8 4 -15 9 -15 4 0 8 4 8 9 0 6 -4 12 -8 15 -5 3 -9 -1 -9 -9z"/>
<path d="M13393 7174 c-36 -18 -41 -29 -17 -38 8 -3 13 -2 10 3 -3 4 6 14 19 21 14 7 25 17 25 22 0 10 1 10 -37 -8z"/>
<path d="M14065 7180 c-3 -5 -1 -10 4 -10 6 0 11 5 11 10 0 6 -2 10 -4 10 -3 0 -8 -4 -11 -10z"/>
<path d="M13455 7120 c4 -6 11 -8 16 -5 14 9 11 15 -7 15 -8 0 -12 -5 -9 -10z"/>
<path d="M14175 6970 c3 -5 8 -10 11 -10 2 0 4 5 4 10 0 6 -5 10 -11 10 -5 0 -7 -4 -4 -10z"/>
<path d="M14159 6918 c0 -7 -2 -21 -4 -30 -2 -11 3 -18 12 -18 10 0 13 6 9 16 -3 8 -2 12 4 9 15 -9 12 5 -5 21 -12 12 -15 12 -16 2z"/>
<path d="M13885 6911 c-6 -11 13 -26 22 -17 4 3 1 6 -6 6 -7 0 -9 5 -6 10 3 6 4 10 1 10 -3 0 -7 -4 -11 -9z"/>
<path d="M14212 6860 c-15 -24 -15 -30 -1 -30 5 0 8 4 5 9 -3 5 1 11 9 15 8 3 15 10 15 16 0 16 -14 12 -28 -10z"/>
<path d="M13865 6840 c-3 -6 1 -7 9 -4 18 7 21 14 7 14 -6 0 -13 -4 -16 -10z"/>
<path d="M14022 6828 c6 -18 28 -21 28 -4 0 9 -7 16 -16 16 -9 0 -14 -5 -12 -12z"/>
<path d="M14181 6798 c0 -16 2 -18 6 -8 3 8 11 18 17 22 7 5 4 8 -6 8 -12 0 -18 -7 -17 -22z"/>
<path d="M13903 6796 c4 -10 1 -13 -8 -10 -9 4 -16 -3 -21 -20 -3 -14 -11 -23 -17 -19 -6 4 -7 1 -2 -6 5 -9 12 -7 26 8 11 12 27 21 35 21 10 0 14 6 11 14 -3 8 -1 17 6 20 7 2 1 5 -12 5 -16 1 -22 -3 -18 -13z"/>
<path d="M13817 6793 c-4 -3 -7 -13 -7 -21 0 -11 3 -12 13 -3 8 6 18 7 23 3 4 -4 2 1 -5 11 -15 19 -15 19 -24 10z"/>
<path d="M14060 6789 c0 -5 5 -7 10 -4 6 3 10 8 10 11 0 2 -4 4 -10 4 -5 0 -10 -5 -10 -11z"/>
<path d="M13940 6770 c-9 -17 -8 -20 12 -20 19 0 20 2 8 10 -10 6 -11 10 -2 10 6 0 12 5 12 10 0 17 -19 11 -30 -10z"/>
<path d="M13475 6769 c-4 -6 -5 -12 -2 -15 2 -3 7 2 10 11 7 17 1 20 -8 4z"/>
<path d="M13547 6766 c-4 -10 -1 -13 8 -9 8 3 12 9 9 14 -7 12 -11 11 -17 -5z"/>
<path d="M13784 6752 c3 -6 -2 -13 -11 -15 -16 -4 -16 -5 -1 -6 21 -1 32 15 17 25 -7 4 -9 3 -5 -4z"/>
<path d="M13651 6703 c-17 -18 -8 -28 15 -15 11 6 27 7 41 1 26 -10 42 7 23 24 -10 9 -11 9 -6 0 4 -8 -2 -11 -21 -10 -16 1 -30 5 -33 8 -3 4 -11 0 -19 -8z"/>
<path d="M13493 6695 c0 -8 4 -12 9 -9 4 3 8 9 8 15 0 5 -4 9 -8 9 -5 0 -9 -7 -9 -15z"/>
<path d="M13858 6693 c12 -2 22 -8 22 -13 0 -5 -7 -6 -17 -3 -11 4 -14 3 -9 -5 4 -7 0 -20 -10 -29 -12 -13 -13 -18 -4 -21 7 -3 16 2 21 9 6 11 9 10 15 -4 9 -25 34 -21 33 6 0 20 -1 20 -8 3 -7 -18 -8 -18 -14 -3 -4 10 -3 27 2 40 8 21 6 23 -23 24 -20 0 -23 -1 -8 -4z"/>
<path d="M13773 6671 c-7 -11 -8 -23 -2 -32 7 -12 11 -11 26 4 15 15 16 19 2 32 -13 13 -16 13 -26 -4z"/>
<path d="M13665 6670 c-13 -6 -15 -9 -5 -9 8 0 22 4 30 9 18 12 2 12 -25 0z"/>
<path d="M13955 6420 c3 -5 8 -10 11 -10 2 0 4 5 4 10 0 6 -5 10 -11 10 -5 0 -7 -4 -4 -10z"/>
<path d="M13780 6279 c0 -5 5 -7 10 -4 6 3 10 8 10 11 0 2 -4 4 -10 4 -5 0 -10 -5 -10 -11z"/>
<path d="M13665 6210 c3 -5 8 -10 11 -10 2 0 4 5 4 10 0 6 -5 10 -11 10 -5 0 -7 -4 -4 -10z"/>
<path d="M13618 6192 c-30 -18 -39 -39 -10 -23 9 5 21 11 27 13 5 1 10 9 11 16 1 6 2 12 1 11 -1 0 -14 -8 -29 -17z"/>
<path d="M13386 6082 c-3 -5 1 -9 9 -9 8 0 15 4 15 9 0 4 -4 8 -9 8 -6 0 -12 -4 -15 -8z"/>
<path d="M13325 6070 c-3 -5 -1 -10 4 -10 6 0 11 5 11 10 0 6 -2 10 -4 10 -3 0 -8 -4 -11 -10z"/>
<path d="M12405 5979 c-11 -17 0 -20 21 -4 17 13 17 14 2 15 -9 0 -20 -5 -23 -11z"/>
<path d="M10617 14266 c-4 -10 -1 -13 9 -9 15 6 19 23 5 23 -5 0 -11 -7 -14 -14z"/>
<path d="M10450 14180 c0 -5 -7 -7 -15 -4 -8 4 -15 1 -15 -6 0 -15 42 -9 48 8 2 6 -1 12 -7 12 -6 0 -11 -4 -11 -10z"/>
<path d="M10060 13504 c0 -6 7 -19 15 -30 8 -10 14 -14 14 -9 0 6 -6 19 -14 29 -8 11 -15 15 -15 10z"/>
<path d="M9960 13302 c0 -5 7 -17 15 -28 14 -18 14 -18 15 9 0 17 -5 27 -15 27 -8 0 -15 -4 -15 -8z"/>
<path d="M15011 9999 c-27 -22 -40 -62 -18 -53 11 4 53 75 44 74 -1 -1 -13 -10 -26 -21z"/>
<path d="M15067 9873 c-9 -22 -13 -41 -8 -46 10 -10 25 13 35 56 9 39 -7 33 -27 -10z"/>
</g>
</svg>