<svg xmlns="http://www.w3.org/2000/svg" viewBox="0 0 24 24" fill="#808080">
  <path d="M14.25 15.75a3.75 3.75 0 11-7.5 0 3.75 3.75 0 017.5 0zm8.25-4.5c0 .985-.385 1.948-1.075 2.663a3.97 3.97 0 01-2.825 1.087h-.35A5.97 5.97 0 0012 19.5a5.97 5.97 0 00-6.25-4.5h-.35a3.97 3.97 0 01-2.825-1.087A3.75 3.75 0 011.5 11.25c0-.985.385-1.948 1.075-2.663a3.97 3.97 0 012.825-1.087h.35A5.97 5.97 0 0012 3a5.97 5.97 0 006.25 4.5h.35a3.97 3.97 0 012.825 1.087A3.75 3.75 0 0122.5 11.25zM12 6a3 3 0 100 6 3 3 0 000-6z"/>
</svg>
