<?xml version="1.0" standalone="no"?>
<!DOCTYPE svg PUBLIC "-//W3C//DTD SVG 20010904//EN"
 "http://www.w3.org/TR/2001/REC-SVG-20010904/DTD/svg10.dtd">
<svg version="1.0" xmlns="http://www.w3.org/2000/svg"
 width="1000.000000pt" height="1000.000000pt" viewBox="0 0 1000.000000 1000.000000"
 preserveAspectRatio="xMidYMid meet">
<metadata>
Created by potrace 1.10, written by Peter Selinger 2001-2011
</metadata>
<g transform="translate(0.000000,1000.000000) scale(0.050000,-0.050000)"
fill="#000000" stroke="none">
<path d="M8958 19998 c-10 -52 -8 -98 4 -98 9 0 12 -18 8 -40 -4 -22 1 -40 11
-40 10 0 13 38 6 85 -10 74 -24 119 -29 93z"/>
<path d="M4570 17147 c-66 -16 -138 -24 -159 -19 -21 6 -51 1 -65 -11 -14 -12
-95 -35 -179 -51 -416 -78 -831 -469 -879 -827 -12 -91 80 -503 171 -767 24
-70 41 -169 41 -243 0 -81 21 -191 60 -319 33 -107 60 -212 60 -232 0 -42 24
-48 79 -19 47 26 79 -11 159 -183 76 -165 77 -152 -10 -188 -73 -31 -93 -64
-177 -293 -19 -53 -52 -105 -75 -117 -22 -12 -72 -51 -113 -86 -40 -36 -122
-92 -183 -126 -223 -122 -617 -356 -870 -516 -143 -91 -331 -205 -419 -253
-246 -135 -349 -284 -423 -607 -14 -63 -155 -400 -289 -690 -44 -94 -79 -181
-79 -195 0 -53 -68 -220 -122 -299 -32 -46 -58 -88 -58 -95 0 -6 1288 -11
2863 -11 l2862 0 -14 505 c-8 278 -22 591 -32 695 -10 105 -18 288 -18 409 -2
615 -257 965 -822 1129 -229 67 -237 73 -462 338 -170 202 -175 215 -120 286
66 85 105 179 136 324 35 171 31 165 94 124 93 -61 121 -36 137 120 47 456 41
563 -27 495 -29 -29 -35 -244 -9 -281 13 -18 11 -24 -7 -20 -14 3 -28 -10 -32
-30 -7 -42 -46 -94 -71 -94 -29 0 -21 129 10 171 24 33 24 46 -1 96 -29 55 -9
170 30 175 112 13 105 -8 117 351 9 254 19 332 49 391 42 85 49 196 13 232
-19 19 -18 24 2 24 34 0 14 148 -28 213 -16 25 -30 73 -30 107 0 66 -90 140
-170 140 -22 0 -62 27 -90 60 -43 52 -66 62 -160 68 -60 4 -164 18 -230 32
-66 13 -138 27 -160 31 -23 4 -60 26 -85 48 -50 47 -55 47 -215 8z m-229 -235
c-4 -22 139 -114 158 -102 19 11 125 -39 112 -53 -5 -4 15 -10 45 -13 30 -2
45 3 34 11 -25 19 -31 85 -8 85 10 0 18 -9 18 -20 0 -11 14 -20 30 -20 17 0
30 -18 30 -41 0 -38 3 -39 31 -10 36 35 58 41 39 11 -7 -12 13 -20 48 -20 33
0 65 -9 72 -20 19 -30 50 -24 50 10 0 17 -13 30 -30 30 -16 0 -30 8 -30 17 0
37 -76 103 -106 92 -25 -10 -31 2 -28 58 3 52 13 69 38 67 18 -1 33 -7 32 -13
-3 -41 7 -61 27 -49 13 8 19 3 13 -14 -6 -17 14 -38 49 -53 40 -17 56 -35 48
-55 -13 -33 3 -38 43 -13 14 9 20 31 13 50 -11 26 -2 32 39 29 64 -6 64 0 -8
-79 -43 -47 -52 -69 -35 -81 18 -11 15 -15 -9 -16 -21 0 -31 -11 -24 -27 21
-55 -106 -105 -149 -59 -17 17 -42 22 -70 13 -58 -19 -161 -11 -170 14 -11 31
-43 22 -43 -13 0 -24 -23 -14 -88 40 -102 83 -128 91 -89 27 27 -45 27 -155 0
-155 -8 0 -16 23 -18 51 -5 56 -85 158 -85 107 0 -16 14 -49 31 -74 49 -70 6
-52 -83 35 -61 60 -97 79 -140 76 -32 -2 -80 4 -106 13 l-48 17 42 -46 c24
-25 38 -52 33 -61 -9 -14 8 -21 114 -50 18 -5 47 5 65 23 29 29 32 29 32 -1 0
-19 -18 -38 -40 -44 -56 -15 -50 -46 8 -46 26 0 53 -13 59 -29 9 -23 1 -26
-33 -13 -24 9 -54 13 -67 8 -13 -4 -29 1 -36 13 -8 12 -24 21 -37 20 -13 0 -6
-16 16 -35 34 -28 130 -171 130 -192 0 -4 -22 -2 -49 3 -26 5 -44 19 -40 32
14 35 -119 115 -210 127 -72 10 -81 7 -81 -29 0 -42 82 -78 121 -54 10 6 19 1
19 -11 0 -12 9 -17 20 -10 11 7 38 -1 61 -16 l41 -29 -41 -11 c-28 -7 -37 -21
-29 -42 15 -40 -82 -46 -106 -6 -26 43 -157 134 -193 134 -18 0 -33 9 -33 20
0 11 9 20 19 20 11 0 15 12 9 27 -6 15 4 33 21 40 17 6 31 29 31 50 0 25 19
43 54 52 62 16 29 50 -49 51 -25 0 -45 8 -45 19 0 10 -16 22 -35 26 -32 8 -32
10 4 26 25 10 41 8 46 -7 5 -14 48 -24 101 -24 71 0 87 5 68 24 -40 40 -28 50
76 64 72 10 116 5 159 -17 84 -44 96 -38 34 15 -29 25 -53 57 -53 71 0 14 20
3 45 -24 25 -27 67 -56 94 -64 47 -14 46 -11 -14 49 -36 36 -63 71 -62 78 1 8
0 19 -2 24 -28 71 -17 82 42 44 34 -21 59 -45 58 -52z m339 -32 c0 -11 -9 -20
-20 -20 -11 0 -20 -13 -20 -30 0 -16 -9 -30 -20 -30 -11 0 -20 4 -20 8 0 5 -6
23 -12 41 -9 23 -4 28 20 19 17 -7 32 -2 32 10 0 12 9 22 20 22 11 0 20 -9 20
-20z m551 -42 c8 -13 39 -17 71 -11 69 14 78 -20 12 -45 -25 -10 -58 -32 -72
-50 -15 -18 -36 -32 -48 -32 -12 0 -1 22 24 48 32 34 38 52 21 62 -13 9 -31 3
-40 -12 -9 -15 -24 -19 -33 -10 -9 10 -5 22 9 26 14 5 20 18 14 28 -6 10 -2
18 9 18 11 0 26 -10 33 -22z m269 -126 c-38 -14 -73 -42 -77 -62 -5 -26 2 -32
25 -24 43 17 104 -6 72 -26 -16 -10 -3 -24 37 -42 66 -29 65 -57 -3 -60 -24 0
-33 -6 -19 -11 14 -6 25 -20 25 -32 0 -12 -16 -6 -37 12 -20 18 -46 33 -59 33
-12 0 -29 13 -38 29 -13 22 -32 11 -88 -50 -62 -69 -65 -84 -18 -84 6 0 33 7
60 15 48 14 49 13 10 -17 -32 -24 -35 -35 -15 -56 14 -14 25 -42 25 -62 0 -20
15 -66 34 -101 40 -76 50 -119 23 -102 -11 7 -8 -7 6 -30 15 -23 34 -42 43
-42 9 0 11 9 4 20 -7 11 -2 20 10 20 13 0 20 -16 16 -35 -4 -19 -15 -35 -26
-35 -11 0 -32 -8 -46 -17 -34 -22 -36 -19 -52 83 -8 57 -6 83 8 74 30 -19 24
9 -10 43 -16 16 -31 22 -33 13 -2 -9 -5 -25 -8 -36 -2 -11 -5 -36 -7 -55 -1
-19 -10 -35 -21 -35 -10 0 -17 34 -14 75 5 80 -50 150 -101 131 -15 -6 -26 4
-26 23 0 18 -8 28 -19 22 -10 -6 -24 -3 -31 9 -7 11 -2 20 11 20 18 0 18 7 0
29 -13 16 -35 24 -49 19 -14 -5 -25 4 -25 20 0 17 7 26 16 20 10 -6 17 -1 17
11 0 11 -13 21 -30 21 -16 0 -30 -9 -30 -21 0 -11 -26 -7 -60 11 -72 37 -75
55 -15 96 l45 31 -50 -12 c-27 -7 -61 -26 -74 -43 -21 -28 -27 -29 -54 -2 -26
26 -26 35 -1 69 16 21 29 28 29 15 0 -15 21 -19 60 -11 34 7 72 2 88 -11 16
-13 31 -15 35 -5 7 20 190 163 208 163 6 0 8 -13 5 -29 -3 -15 1 -29 9 -30 51
-4 80 1 68 12 -22 22 73 63 147 64 l70 0 -70 -25z m-1740 -102 c0 -24 -159
-88 -171 -69 -16 27 -15 27 71 54 85 25 100 28 100 15z m1020 -91 c0 -11 -13
-25 -30 -32 -43 -16 -37 -47 10 -47 25 0 40 -13 40 -35 -1 -28 -4 -29 -18 -7
-14 22 -22 19 -41 -15 -12 -24 -18 -43 -13 -43 5 0 1 -27 -8 -60 -10 -36 -10
-60 1 -60 11 0 19 11 19 25 1 75 111 130 163 82 29 -26 37 -27 37 -6 0 44 55
-45 63 -101 4 -28 16 -58 27 -67 12 -10 6 -12 -13 -6 -44 14 -62 -7 -34 -40
26 -32 9 -35 -45 -6 -49 27 -88 6 -53 -29 54 -54 140 -58 178 -8 33 42 36 43
37 7 0 -46 55 2 90 79 15 33 20 25 26 -46 3 -48 -6 -110 -23 -143 -24 -49 -24
-56 0 -47 19 7 24 0 15 -23 -10 -24 8 -52 59 -94 40 -33 73 -72 73 -87 0 -15
8 -30 19 -33 43 -16 46 -113 3 -126 -70 -22 -126 5 -102 49 29 54 29 53 -72
151 -96 93 -117 103 -139 67 -7 -12 -35 -16 -62 -9 -33 8 -68 -1 -108 -30 -32
-23 -59 -33 -59 -21 0 11 16 29 35 40 28 17 17 21 -52 21 -76 1 -86 -4 -78
-36 11 -41 -16 -103 -45 -103 -9 0 -12 32 -6 70 6 39 3 70 -7 70 -10 0 -20
-23 -23 -51 -2 -29 -17 -65 -34 -82 -40 -39 -38 -45 9 -33 36 9 38 4 20 -57
-10 -37 -19 -69 -19 -72 0 -10 -110 -4 -155 8 -25 6 -45 24 -45 38 0 14 -24
29 -53 33 -36 4 -64 27 -89 74 -44 84 -78 120 -78 86 0 -17 -21 -21 -64 -13
-35 6 -110 0 -165 -14 -56 -14 -112 -23 -126 -20 -14 3 -31 -9 -37 -26 -7 -17
-24 -31 -38 -31 -32 0 -50 -45 -50 -125 l0 -63 62 64 c63 65 210 120 238 90
28 -29 -2 -150 -34 -137 -21 8 -25 0 -15 -31 9 -29 0 -54 -30 -81 -50 -47
-101 -36 -101 22 0 23 -10 41 -22 41 -14 0 -18 18 -11 45 l11 45 -39 -47 c-41
-49 -47 -97 -27 -197 11 -58 288 -135 288 -81 0 9 20 5 45 -8 83 -46 -118 -67
-246 -27 -37 12 -40 9 -23 -23 80 -149 209 -186 367 -106 97 50 116 40 59 -33
-65 -83 -55 -121 37 -136 71 -11 104 -72 39 -72 -10 0 -18 -10 -18 -23 0 -34
183 -7 211 31 23 32 89 25 89 -8 0 -9 38 -13 85 -10 47 3 103 7 125 9 35 2 33
7 -14 32 -30 16 -84 27 -119 24 -49 -4 -67 4 -73 30 -6 29 8 35 81 35 81 0
135 26 135 64 0 9 -17 6 -39 -8 -29 -18 -50 -18 -90 0 -44 20 -57 18 -86 -16
-44 -52 -88 -51 -139 5 -57 62 -76 162 -39 199 19 19 33 85 39 178 8 140 12
148 56 148 35 0 50 -13 54 -45 4 -25 17 -45 30 -45 28 0 147 -218 138 -253 -3
-13 13 -30 35 -37 23 -7 41 -20 41 -29 0 -9 27 -21 60 -28 42 -8 67 -29 82
-68 11 -30 44 -80 73 -110 48 -50 49 -55 14 -57 -56 -4 -55 -4 -104 11 -27 8
-45 5 -45 -8 0 -11 14 -21 30 -21 17 0 30 -10 30 -22 0 -12 14 -17 30 -11 17
7 30 3 30 -7 0 -24 -91 -48 -127 -34 -36 14 -328 -75 -301 -91 11 -7 56 -4 99
6 178 41 249 10 119 -52 -38 -19 -70 -45 -70 -59 0 -42 75 -11 136 54 73 79
146 108 169 67 29 -52 49 -35 63 51 9 58 21 79 41 71 102 -39 21 133 -97 206
-97 59 -106 114 -22 130 132 25 249 176 250 326 0 70 10 75 86 47 41 -16 51
-37 65 -145 23 -173 23 -168 -16 -161 -24 4 -35 -7 -35 -34 0 -22 -9 -45 -20
-52 -11 -7 -20 -31 -20 -55 0 -23 -6 -36 -14 -28 -26 26 -71 -118 -76 -245 -3
-103 -12 -134 -47 -160 -23 -17 -48 -63 -56 -102 -96 -491 -701 -589 -1002
-162 -36 51 -101 142 -145 202 -43 61 -79 133 -80 160 0 28 -28 99 -60 158
-33 60 -60 119 -60 133 0 14 -18 46 -39 72 l-40 47 -3 -50 c-4 -66 -33 69 -48
223 -8 89 -4 115 20 124 42 16 37 46 -10 59 -59 15 -37 334 22 334 10 0 18 16
18 36 0 46 38 84 84 84 20 0 36 8 36 18 0 25 94 83 168 103 54 15 57 14 27 -9
-48 -36 -44 -58 8 -41 57 18 211 136 292 224 49 52 76 67 109 58 24 -6 56 -2
70 10 19 16 26 15 26 -2 0 -13 11 -17 25 -9 20 11 20 8 0 -13 -31 -33 -33 -85
-3 -75 11 4 18 14 15 23 -4 9 16 29 43 44 28 15 39 28 26 28 -15 1 -22 27 -19
71 3 39 -2 70 -12 70 -9 0 -12 9 -4 21 7 11 28 16 47 10 24 -8 42 4 58 39 23
50 64 69 64 29z m-218 -98 c-18 -11 -20 -20 -4 -30 37 -22 25 -71 -18 -71 -22
0 -40 11 -40 26 0 35 61 119 76 104 7 -7 1 -20 -14 -29z m-992 -21 c-7 -11 2
-20 20 -20 18 0 27 -9 20 -20 -7 -11 3 -20 21 -20 28 0 29 -5 9 -30 -20 -24
-20 -30 0 -30 14 0 38 16 52 35 25 33 27 33 27 -1 1 -27 9 -32 34 -18 45 26
112 6 99 -29 -9 -23 -3 -24 31 -5 37 19 41 18 31 -10 -7 -17 -4 -33 7 -34 27
-4 44 -9 84 -27 19 -8 48 -10 64 -4 17 6 35 3 41 -6 6 -10 -8 -24 -30 -31 -22
-7 -36 -21 -30 -30 18 -29 -30 -45 -61 -19 -23 19 -29 18 -29 -6 0 -34 -53
-62 -82 -44 -30 19 -20 44 22 55 59 15 54 94 -7 94 -51 0 -253 -183 -216 -196
23 -7 -55 -143 -82 -144 -47 0 -77 249 -32 264 15 5 13 17 -7 37 -41 41 -54
107 -31 149 17 31 15 34 -17 22 -30 -12 -28 -5 11 37 49 52 73 67 51 31z m273
-287 c-13 -15 -16 -33 -8 -41 17 -17 -37 -53 -59 -40 -19 13 41 108 69 108 12
0 11 -10 -2 -27z m1532 -140 c0 -54 63 -136 92 -119 12 8 14 -12 6 -52 -9 -45
-6 -60 10 -50 16 10 19 0 11 -33 -7 -26 -3 -58 9 -72 11 -14 14 -35 7 -48 -20
-32 -75 78 -74 148 1 31 -4 52 -11 45 -30 -30 -110 132 -88 180 28 60 38 61
38 1z m-326 -274 c-6 -11 -7 -19 -2 -19 5 0 25 -6 45 -13 26 -11 31 -7 18 15
-10 16 -9 21 2 11 10 -9 16 -20 14 -24 -3 -4 22 -34 55 -67 52 -52 59 -72 54
-156 l-5 -96 -82 -6 c-90 -7 -105 20 -139 251 -7 47 -21 85 -31 85 -10 0 -18
8 -18 18 0 10 19 13 43 7 32 -8 39 -5 27 15 -11 17 -8 21 7 12 13 -8 18 -23
12 -33z m-132 -100 c-10 -45 -12 -90 -6 -101 7 -11 2 -33 -12 -49 -27 -33
-199 -41 -199 -9 0 11 11 20 25 20 14 0 42 41 63 92 32 78 78 121 135 127 7 0
5 -36 -6 -80z m-716 -40 c115 -78 144 -123 134 -209 -3 -22 6 -38 19 -35 13 2
22 -14 20 -36 -4 -58 -82 -44 -90 16 -6 36 -20 45 -74 45 -65 0 -68 4 -81 91
-8 50 -26 103 -41 119 -27 27 -39 90 -17 90 6 0 65 -36 130 -81z m1221 -555
c-8 -135 -22 -131 -22 6 0 64 6 110 14 103 8 -8 11 -57 8 -109z m-1064 -7 c26
-73 16 -93 -28 -57 -32 27 -42 120 -12 120 10 0 28 -28 40 -63z m864 -920
c-12 -59 -25 -152 -30 -207 -15 -171 -154 -470 -219 -470 -37 0 -40 -159 -3
-173 35 -13 120 82 121 137 0 19 21 63 47 98 36 48 50 99 58 202 16 226 76
148 185 -243 l64 -229 -36 -111 c-20 -61 -37 -120 -39 -131 -1 -11 -8 -33 -14
-50 -41 -103 -57 -233 -50 -406 4 -109 0 -201 -11 -207 -10 -6 -14 -27 -9 -46
14 -56 -22 -401 -55 -527 -18 -67 -32 -209 -33 -335 -3 -244 -7 -252 -113
-217 -40 13 -146 26 -234 29 -89 3 -198 12 -243 19 -54 9 -88 6 -97 -8 -7 -12
-24 -22 -37 -22 -15 0 -12 9 6 22 22 15 6 17 -60 6 -91 -15 -241 -15 -350 1
-33 5 -73 1 -88 -8 -17 -10 -48 -8 -77 5 -30 14 -53 15 -61 2 -24 -33 -255
-22 -297 14 -47 41 -123 60 -139 35 -7 -11 -25 -15 -40 -9 -15 6 -28 2 -28 -9
0 -10 -18 -19 -40 -19 -22 0 -40 -13 -40 -30 0 -22 -19 -29 -69 -25 -77 5 -75
-7 -28 181 18 72 19 112 2 160 -12 35 -36 141 -54 235 -69 377 -365 990 -443
914 -15 -16 24 -106 67 -151 14 -15 25 -44 25 -65 0 -22 8 -39 18 -39 9 0 29
-29 43 -65 14 -36 41 -87 59 -115 47 -70 81 -171 100 -300 9 -60 27 -150 40
-200 49 -189 -33 -584 -109 -521 -22 19 -29 14 -35 -23 -5 -31 -25 10 -61 124
-54 170 -269 540 -315 540 -74 0 -23 -137 101 -273 51 -56 90 -127 118 -217
44 -145 52 -198 21 -150 -17 26 -19 26 -20 -3 -1 -178 -259 -9 -525 344 -79
105 -141 165 -202 195 -200 100 -173 53 160 -284 141 -142 214 -222 162 -176
-124 110 -138 106 -37 -9 163 -184 77 -200 -138 -25 -219 178 -276 236 -322
333 -24 48 -73 111 -110 141 -44 35 -68 71 -68 103 0 47 -1 47 -28 10 -16 -21
-36 -32 -44 -24 -8 9 5 43 30 77 25 33 77 171 115 304 39 134 78 253 89 263
10 10 18 32 18 48 0 50 108 203 144 203 67 0 192 -314 386 -970 69 -233 186
-482 214 -454 14 14 -2 76 -51 197 -40 98 -87 245 -104 327 -61 289 -269 799
-353 862 -24 19 -36 42 -27 57 18 29 72 -14 154 -127 31 -43 57 -72 57 -64 0
28 -78 166 -109 191 -41 34 -39 54 8 66 23 7 43 -1 50 -19 7 -18 24 -25 43
-18 17 6 45 -2 62 -19 35 -35 61 -23 34 16 -48 66 -20 123 82 172 55 26 103
55 107 65 3 10 14 13 24 8 9 -6 27 7 39 29 12 23 36 41 54 41 18 0 60 21 94
46 60 45 124 79 158 82 9 1 36 21 60 44 29 28 64 40 101 36 32 -3 52 0 45 7
-17 17 69 105 102 105 35 0 124 -58 179 -116 44 -46 162 -85 137 -45 -7 12
-26 21 -43 21 -20 0 -27 11 -20 30 8 19 -4 34 -35 41 -44 11 -145 163 -123
185 6 6 34 0 62 -13 62 -28 89 -16 89 40 0 24 17 45 40 51 22 6 40 24 40 40 0
15 9 23 20 16 11 -7 20 -2 20 10 0 12 9 17 20 10 10 -6 16 -47 11 -91 -4 -43
-1 -79 8 -79 8 0 15 -11 15 -25 2 -65 293 -511 347 -531 9 -4 29 12 43 35 32
51 49 51 168 0 139 -60 179 -37 51 29 -72 37 -124 51 -156 43 -44 -11 -47 -8
-28 28 18 32 16 38 -7 29 -15 -6 -34 -2 -41 10 -7 11 -25 15 -42 9 -17 -7 -29
0 -29 17 0 15 -28 59 -61 97 l-62 69 13 -57 c15 -73 -21 -53 -39 22 -7 30 -30
91 -51 135 -21 44 -55 127 -76 183 l-39 104 43 13 c50 17 52 17 97 -1 29 -11
35 -2 35 48 0 73 30 98 58 48 19 -31 21 -31 21 10 1 25 10 45 21 45 24 0 100
-73 100 -96 0 -10 36 -52 80 -95 43 -44 79 -91 80 -105 0 -15 9 -21 20 -14 18
11 28 -21 25 -86 -1 -17 20 -24 62 -20 50 5 62 -1 57 -28 -5 -35 36 -54 131
-61 68 -5 55 -23 -58 -84 -56 -31 -106 -73 -112 -93 -5 -21 -31 -38 -62 -42
-75 -9 -53 -40 56 -81 51 -19 114 -54 140 -78 38 -36 73 -44 199 -47 147 -3
242 -30 242 -71 0 -32 -97 -21 -186 22 -46 22 -68 28 -49 13 19 -16 35 -40 35
-55 0 -45 64 -99 117 -99 30 0 78 -26 117 -64 l66 -64 -59 -24 c-32 -14 -79
-20 -105 -13 -41 11 -43 8 -19 -22 22 -26 23 -39 4 -62 -37 -45 9 -164 75
-196 30 -14 52 -34 50 -45 -4 -21 82 -74 133 -83 39 -6 81 -65 81 -111 0 -34
25 -47 70 -36 11 3 32 5 46 6 30 1 27 20 -69 384 -73 277 -123 400 -224 559
-46 72 -63 122 -63 186 0 111 -66 185 -166 185 -86 0 -279 149 -553 427 -203
206 -212 231 -73 196 49 -13 134 -23 189 -23 80 0 98 -6 96 -33 -4 -50 109
-107 230 -117 59 -5 89 -4 67 2 -126 34 -170 54 -170 80 0 15 -9 28 -20 28
-11 0 -20 9 -20 20 0 12 65 20 156 20 86 0 204 14 262 31 134 40 138 35 51
-78 -64 -84 -67 -93 -30 -93 23 0 41 -10 41 -21 0 -12 -8 -16 -18 -11 -9 6
-46 -3 -82 -21 -54 -27 -77 -28 -145 -8 -65 20 -84 19 -97 -2 -12 -20 -24 -18
-54 9 -28 26 -50 30 -86 17 l-47 -17 59 -30 c33 -17 96 -37 140 -45 102 -18
231 -30 185 -18 -49 14 -23 47 35 47 26 0 54 10 61 21 7 12 25 17 40 12 14 -6
38 4 53 22 19 24 19 29 1 18 -36 -22 -32 55 6 129 17 34 27 71 23 84 -13 33
210 258 232 236 10 -10 9 -63 -4 -125z m-1172 23 c-7 -11 -26 -20 -44 -20 -25
0 -26 -6 -6 -30 20 -25 19 -30 -8 -30 -32 0 -45 60 -19 87 22 21 91 15 77 -7z
m-139 -178 c-23 -72 -61 -47 -67 43 l-6 85 43 -43 c30 -29 39 -55 30 -85z
m1912 -287 c17 -14 64 -68 106 -120 44 -55 92 -95 115 -95 21 0 34 -8 28 -17
-6 -10 9 -35 33 -55 45 -38 45 -38 10 3 -27 33 -29 47 -10 68 20 21 20 24 0
13 -14 -8 -25 -5 -25 7 0 29 35 26 54 -4 9 -14 41 -38 71 -53 30 -16 55 -44
55 -63 0 -20 21 -40 50 -47 42 -11 48 -21 38 -62 -7 -28 -4 -50 8 -50 28 0 87
-96 93 -153 3 -26 22 -66 43 -89 62 -68 -91 -317 -160 -260 -43 36 -50 -33
-47 -498 1 -303 -5 -423 -24 -459 -26 -48 -18 -398 12 -521 12 -49 11 -49 -20
-10 -28 36 -32 36 -32 5 -1 -46 -44 -44 -101 5 -33 29 -53 34 -71 19 -19 -15
-36 -10 -62 18 -57 60 -177 66 -177 8 0 -138 -42 -16 -51 150 l-11 195 -6
-150 c-4 -82 -5 -172 -2 -199 3 -39 -2 -45 -23 -28 -30 23 -147 24 -169 1 -8
-8 -47 -14 -86 -15 -40 0 -94 -13 -122 -29 -27 -16 -57 -29 -66 -29 -50 -2 85
664 185 921 26 66 31 102 16 128 -14 24 -13 31 0 23 12 -7 40 23 63 68 52 99
52 99 0 89 -36 -7 -41 -1 -33 41 5 27 1 49 -9 49 -22 0 2 87 26 97 10 3 9 23
-2 43 -11 20 -14 51 -8 69 7 17 3 31 -8 31 -11 0 -8 34 9 83 21 59 23 87 7 97
-15 9 1 59 48 150 52 102 65 146 51 172 -24 44 -24 58 -1 58 21 0 47 -76 43
-124 -10 -112 134 -349 183 -300 33 33 1 170 -36 156 -17 -7 -34 3 -41 23 -6
19 -19 53 -28 75 -10 22 -20 53 -23 70 -3 16 -19 41 -36 54 -27 22 -27 25 0
27 17 1 11 9 -16 20 -52 21 -60 174 -10 193 36 14 33 46 -5 46 -17 0 -26 9
-19 20 7 11 3 20 -9 20 -11 0 -21 28 -21 62 0 77 36 69 79 -18 17 -35 38 -63
47 -64 9 0 11 9 4 20 -21 34 14 22 42 -15 36 -48 35 -66 -5 -51 -18 7 -28 4
-23 -6 5 -10 20 -47 34 -83 14 -36 39 -65 55 -65 17 0 43 -13 60 -30 24 -24
25 -30 2 -30 -15 0 -37 10 -49 22 -17 17 -19 4 -7 -49 15 -66 13 -70 -20 -53
-45 24 -61 -27 -29 -95 35 -77 65 -68 79 25 7 47 26 91 42 98 38 14 37 80 -1
112 -16 14 -30 40 -29 57 0 24 12 17 41 -22 23 -30 49 -51 58 -45 33 21 42
-69 12 -126 l-30 -58 64 2 c56 2 65 10 70 62 6 64 -95 202 -112 152 -6 -19
-224 300 -224 329 0 17 33 9 63 -16z m-1205 -453 c32 -21 13 -62 -29 -62 -16
0 -29 18 -29 40 0 43 15 49 58 22z m-113 -141 c44 -40 55 -60 34 -60 -17 -1
-57 26 -89 59 -74 78 -31 78 55 1z m2057 -831 c2 -143 -4 -323 -13 -400 -9
-77 -15 -147 -13 -155 6 -24 -93 -392 -118 -439 -23 -43 -24 -42 -54 15 -31
59 -50 410 -19 362 9 -15 14 -11 15 11 0 18 -7 38 -17 44 -46 29 20 203 70
184 15 -6 27 -6 27 0 0 14 -64 78 -79 78 -6 0 -12 38 -13 85 -1 47 4 85 11 85
22 0 58 119 39 131 -36 23 -19 112 24 124 26 7 33 16 19 25 -38 23 -3 117 46
125 68 11 72 -2 75 -275z m-1546 218 c9 -60 -42 -97 -95 -69 -40 22 -55 80
-27 109 31 30 116 2 122 -40z m-3429 -678 c-6 -17 0 -30 14 -30 14 0 20 -6 12
-13 -7 -7 7 -23 32 -36 27 -13 60 -63 82 -125 25 -70 69 -134 136 -197 121
-114 116 -135 -32 -152 -64 -7 -123 -24 -133 -39 -37 -61 -56 14 -41 167 8 86
9 165 2 177 -7 11 -19 -49 -26 -135 -13 -156 -40 -221 -70 -171 -9 14 -31 20
-50 13 -20 -8 -34 -3 -35 14 -5 88 -14 126 -31 131 -38 13 -3 136 52 186 67
61 81 99 57 147 -21 40 -8 93 23 93 11 0 15 -13 8 -30z"/>
<path d="M4520 16750 c-35 -43 25 -101 75 -72 31 19 30 21 -10 21 -47 1 -62
32 -21 46 17 5 17 12 2 21 -12 8 -32 0 -46 -16z"/>
<path d="M4640 16679 c0 -11 36 -19 80 -19 104 0 104 29 0 34 -44 2 -80 -5
-80 -15z"/>
<path d="M5253 16579 c-29 -23 -61 -37 -71 -31 -9 7 -22 -7 -28 -30 -6 -23
-21 -36 -33 -29 -11 7 -21 4 -21 -8 0 -24 5 -25 90 -32 71 -5 112 22 96 63 -6
16 5 47 25 69 46 51 9 50 -58 -2z"/>
<path d="M4516 15998 c-21 -12 -29 -32 -22 -52 10 -25 5 -30 -23 -19 -27 10
-33 6 -23 -18 6 -18 12 -41 12 -51 0 -38 82 -16 102 27 29 65 -1 138 -46 113z"/>
<path d="M4620 15329 c0 -24 59 -124 89 -148 18 -15 9 13 -21 67 -47 85 -68
109 -68 81z"/>
<path d="M4180 14793 c-120 -53 -120 -190 0 -159 31 8 46 -4 69 -59 16 -38 49
-82 73 -98 28 -18 39 -39 30 -54 -12 -19 -22 -20 -44 -1 -24 19 -26 17 -15
-14 20 -56 67 -121 67 -92 0 13 22 24 49 24 34 0 46 9 39 27 -12 32 135 59
227 42 30 -6 69 -1 85 10 72 50 -75 78 -223 43 -40 -9 -84 -10 -98 -1 -18 11
-14 17 13 23 32 8 28 15 -27 47 -36 22 -65 50 -65 64 0 37 101 72 127 46 12
-12 34 -21 50 -21 16 0 24 6 17 12 -7 7 8 30 32 50 44 37 44 37 -52 37 -53 1
-91 -7 -85 -17 17 -28 -88 -39 -151 -15 -61 23 -73 50 -37 86 33 33 -21 46
-81 20z"/>
<path d="M3670 16220 c-7 -11 11 -31 40 -44 43 -19 117 12 84 36 -25 17 -114
23 -124 8z"/>
<path d="M3940 13358 c0 -12 18 -26 40 -32 24 -6 40 -27 40 -52 0 -32 6 -36
23 -19 17 17 15 36 -10 74 -34 51 -93 70 -93 29z"/>
<path d="M3695 13007 c14 -6 25 -19 25 -30 0 -30 60 -84 75 -68 8 7 4 19 -7
27 -12 8 -27 30 -34 49 -7 19 -29 34 -48 33 -21 -1 -26 -5 -11 -11z"/>
<path d="M3800 12833 c0 -15 36 -52 79 -83 44 -30 85 -71 92 -92 6 -20 31 -53
55 -72 24 -20 70 -67 101 -106 32 -38 77 -81 100 -94 24 -14 35 -25 25 -25
-11 -1 0 -21 23 -46 23 -25 45 -58 49 -74 3 -17 23 -39 44 -50 21 -12 48 -39
60 -61 25 -45 90 -97 127 -103 34 -5 32 6 -10 52 -19 22 -66 80 -105 129 -61
77 -126 129 -90 72 7 -11 8 -20 2 -20 -6 0 -30 43 -54 95 -44 97 -100 165
-137 165 -12 0 -21 11 -21 25 0 14 -32 58 -70 99 -39 40 -70 81 -70 90 -1 41
-103 113 -121 85 -14 -23 -19 -22 -30 7 -16 41 -49 45 -49 7z"/>
<path d="M2692 12775 c21 -25 43 -49 48 -55 6 -5 55 -77 110 -160 55 -82 107
-159 115 -170 9 -11 29 -38 44 -60 15 -22 35 -33 43 -25 8 9 -11 45 -44 80
-64 71 -148 187 -148 205 0 26 -163 230 -184 230 -12 0 -5 -20 16 -45z"/>
<path d="M4108 12733 c7 -20 12 -41 12 -47 0 -6 13 0 29 13 22 18 42 17 90 -8
46 -24 61 -26 61 -7 0 36 -85 72 -132 55 -21 -7 -46 -4 -55 9 -10 13 -12 7 -5
-15z"/>
<path d="M3468 12604 c5 -9 48 -17 96 -19 65 -3 76 1 46 14 -51 23 -156 26
-142 5z"/>
<path d="M4324 12465 c7 -36 99 -91 256 -153 l90 -36 -50 54 c-46 49 -141 106
-256 152 -39 15 -46 12 -40 -17z"/>
<path d="M2402 12324 c-3 -35 162 -371 249 -504 66 -102 78 -78 19 40 -14 28
-31 79 -39 115 -8 36 -22 65 -33 65 -10 0 -18 13 -18 29 0 44 -106 211 -133
211 -13 0 -28 16 -33 35 -5 19 -10 23 -12 9z"/>
<path d="M2394 12170 c48 -109 205 -375 206 -349 0 11 -204 388 -238 439 -12
17 3 -24 32 -90z"/>
<path d="M1969 12006 c-25 -39 4 -119 49 -136 40 -16 42 -8 19 86 -24 92 -36
101 -68 50z"/>
<path d="M4560 11970 c0 -16 17 -30 38 -30 21 0 43 -11 49 -25 7 -18 10 -18
11 3 2 27 -53 80 -83 81 -8 1 -15 -12 -15 -29z"/>
<path d="M5696 13320 c-19 -33 -27 -60 -18 -60 21 0 52 38 68 85 20 57 -13 40
-50 -25z"/>
<path d="M6294 12947 c-8 -7 -14 -68 -14 -135 l0 -121 53 77 c63 94 30 248
-39 179z"/>
<path d="M5784 12649 c-25 -39 -40 -79 -34 -90 7 -10 3 -19 -9 -19 -11 0 -21
-9 -21 -19 0 -36 58 2 72 46 7 24 22 49 32 55 11 7 16 32 13 55 -6 37 -12 34
-53 -28z"/>
<path d="M6045 11479 c-73 -29 -42 -179 36 -179 30 0 22 35 -11 47 -40 15 -38
71 3 116 37 41 36 42 -28 16z"/>
<path d="M5453 11408 c-44 -30 -93 -48 -115 -42 -21 6 -38 2 -38 -8 0 -10 8
-18 19 -18 10 0 22 -16 27 -35 9 -32 10 -32 12 2 1 26 16 35 57 32 89 -5 105
-1 105 31 0 17 14 30 32 30 32 0 30 43 -3 54 -11 3 -54 -17 -96 -46z"/>
</g>
</svg>
