<?xml version="1.0" standalone="no"?>
<!DOCTYPE svg PUBLIC "-//W3C//DTD SVG 20010904//EN"
 "http://www.w3.org/TR/2001/REC-SVG-20010904/DTD/svg10.dtd">
<svg version="1.0" xmlns="http://www.w3.org/2000/svg"
 width="900.000000pt" height="1038.000000pt" viewBox="0 0 900.000000 1038.000000"
 preserveAspectRatio="xMidYMid meet">
<metadata>
Created by potrace 1.10, written by Peter Selinger 2001-2011
</metadata>
<g transform="translate(0.000000,1038.000000) scale(0.100000,-0.100000)"
fill="#000000" stroke="none">
<path d="M5150 9641 c0 -13 47 -41 70 -41 27 0 25 14 -5 34 -26 17 -65 22 -65
7z"/>
<path d="M4545 9628 c-7 -5 -42 -11 -77 -14 -35 -3 -72 -9 -83 -14 -32 -14
-102 -19 -220 -17 -245 5 -324 2 -337 -10 -7 -8 -38 -13 -72 -13 -34 0 -88 -7
-121 -15 -33 -8 -90 -14 -127 -15 -37 0 -82 -6 -100 -14 -46 -19 -96 -33 -146
-41 -24 -4 -46 -13 -49 -21 -3 -8 -13 -14 -23 -14 -11 0 -72 -28 -137 -62 -65
-34 -135 -70 -155 -81 -21 -10 -65 -43 -98 -73 -33 -30 -66 -54 -73 -54 -7 0
-29 -12 -48 -26 -19 -14 -49 -32 -67 -41 -18 -9 -41 -27 -50 -40 -9 -14 -34
-42 -54 -63 -21 -21 -38 -44 -38 -52 -1 -7 -8 -22 -18 -33 -21 -24 -114 -102
-159 -134 -43 -29 -64 -98 -37 -118 11 -8 30 -11 51 -7 18 3 41 3 50 0 15 -6
13 -10 -12 -31 -17 -14 -47 -28 -67 -31 -37 -6 -38 -7 -38 -53 0 -27 -8 -58
-19 -77 -19 -31 -30 -88 -34 -179 -1 -27 -7 -59 -14 -69 -8 -14 -8 -26 0 -43
7 -17 6 -36 -7 -78 -12 -35 -16 -68 -11 -92 4 -27 1 -44 -9 -58 -9 -11 -16
-29 -16 -40 0 -11 -7 -33 -15 -49 -18 -33 -19 -68 -4 -83 7 -7 9 -39 5 -89
-10 -137 -13 -158 -31 -208 -13 -37 -15 -65 -11 -105 4 -31 8 -69 10 -85 3
-34 20 -44 41 -26 8 7 29 15 47 19 32 7 52 31 25 31 -23 0 -47 34 -47 66 0 31
16 61 57 105 13 14 23 34 22 45 -6 58 1 74 29 75 15 1 20 3 11 6 -9 2 -21 15
-27 28 -14 30 -29 32 -34 5 -2 -12 -7 -21 -13 -20 -11 0 -7 78 6 102 5 9 9 35
9 57 0 31 4 41 16 41 13 0 15 6 9 28 -3 15 -11 29 -16 30 -14 5 -11 59 4 65 6
3 20 19 30 36 l18 31 -31 -6 c-39 -8 -40 9 0 83 16 31 30 60 30 65 0 17 63 97
80 103 9 3 32 19 50 35 32 28 33 32 18 47 -16 15 -17 14 -24 -10 -3 -15 -12
-27 -19 -27 -7 0 -16 -8 -19 -17 -5 -12 -9 -14 -18 -5 -18 18 -28 15 -28 -8 0
-11 -4 -20 -8 -20 -5 0 -19 -9 -32 -20 -22 -19 -50 -27 -50 -14 0 3 8 18 18
32 10 15 22 35 25 45 4 9 13 17 22 17 11 0 14 6 9 25 -5 19 -2 25 9 25 25 0
30 18 16 52 -10 24 -10 33 -1 36 7 2 12 15 12 28 0 13 5 24 10 24 14 0 60 -49
60 -64 0 -14 20 15 20 30 0 7 -11 22 -25 35 l-24 24 22 17 22 17 -32 12 c-18
6 -33 14 -33 18 0 8 50 35 83 45 25 8 17 29 -14 36 -17 4 -20 8 -11 14 9 5 11
17 8 32 -5 19 -2 24 14 24 12 0 26 12 35 30 8 16 35 43 59 60 38 25 45 36 48
67 3 33 9 41 58 70 40 24 54 39 53 53 -2 16 2 19 25 14 23 -5 30 -1 40 20 7
16 20 26 34 26 85 3 108 7 125 23 11 9 32 17 47 17 15 0 34 7 42 15 9 8 27 15
42 15 l27 0 -23 18 c-23 18 -23 18 -4 36 11 9 31 20 46 24 50 14 31 27 -46 32
-42 3 -79 8 -83 12 -9 9 62 31 75 23 6 -3 24 0 40 8 29 15 30 14 70 -25 37
-38 42 -40 58 -25 12 11 22 13 35 6 10 -6 38 -12 64 -15 25 -2 59 -11 76 -19
17 -8 38 -15 47 -15 10 0 21 -7 24 -16 4 -11 13 -14 28 -11 13 4 35 -2 56 -15
26 -16 43 -19 79 -14 39 5 44 4 39 -10 -9 -25 92 -8 122 20 l24 21 -44 7 c-23
4 -67 4 -96 1 -38 -4 -63 -1 -85 10 -18 9 -40 18 -49 21 -10 3 -18 12 -18 21
0 11 11 15 44 15 25 0 47 -4 50 -9 8 -12 58 -1 53 13 -2 6 -13 10 -23 9 -10
-1 -46 6 -79 17 -33 10 -82 22 -110 25 -45 6 -52 4 -74 -19 -35 -38 -56 -35
-36 4 21 41 13 50 -43 50 -27 0 -57 7 -70 16 -21 15 -21 16 -5 39 10 14 26 25
36 25 21 0 23 -18 2 -26 -21 -8 -8 -24 19 -24 26 0 50 23 60 58 10 31 50 31
43 -1 -4 -12 -3 -28 2 -35 10 -17 58 -42 65 -34 13 12 5 24 -24 33 -35 13 -38
24 -9 39 30 16 62 8 75 -19 l12 -23 11 21 c23 41 81 12 81 -41 0 -21 7 -27 44
-38 24 -6 58 -9 75 -5 27 6 32 3 41 -20 7 -18 16 -25 29 -23 10 2 28 -6 40
-16 18 -16 21 -17 21 -3 0 9 -4 19 -10 22 -15 9 -12 41 5 55 23 19 8 30 -39
30 -24 0 -57 7 -72 15 -16 8 -46 15 -66 15 -42 0 -56 14 -37 37 8 9 14 23 14
32 0 12 14 17 65 22 76 7 148 1 157 -14 3 -6 -6 -21 -20 -33 -33 -28 -34 -34
-3 -34 32 0 57 10 51 20 -3 5 0 20 6 34 9 19 20 26 40 26 15 0 30 -4 33 -9 4
-5 25 -12 49 -16 23 -4 50 -12 60 -17 10 -5 26 -6 35 -2 9 5 49 9 87 10 120 3
125 4 125 10 0 3 -10 14 -22 24 -22 17 -22 19 -4 26 10 4 42 3 72 -3 43 -8 56
-7 68 6 9 9 37 16 68 17 29 1 78 5 109 9 51 7 58 5 82 -18 15 -13 27 -27 27
-31 0 -11 -66 -6 -78 6 -9 9 -12 9 -12 -1 0 -45 53 -68 81 -35 7 9 24 20 38
25 l25 10 -34 30 c-42 38 -28 54 25 29 22 -11 45 -19 51 -20 6 0 21 -11 34
-25 15 -16 35 -25 54 -25 17 0 40 -7 50 -15 26 -20 38 -9 30 29 l-6 33 55 7
c61 7 87 1 87 -20 0 -8 7 -14 15 -14 8 0 15 -4 15 -9 0 -4 -22 -6 -50 -3 -42
4 -50 2 -50 -12 0 -28 49 -40 88 -22 43 21 82 21 82 0 0 -12 6 -15 24 -10 14
3 36 2 49 -3 14 -6 53 -13 86 -17 58 -6 61 -5 61 15 0 11 -8 28 -17 36 -10 8
-39 33 -64 55 -29 25 -56 40 -73 40 -28 0 -36 -24 -11 -34 19 -7 20 -36 1 -36
-7 0 -27 7 -42 15 -16 8 -36 15 -44 15 -9 0 -24 6 -35 14 -27 18 -93 39 -130
42 -16 1 -57 7 -89 13 -41 7 -66 7 -79 -1 -14 -7 -37 -6 -81 2 -70 15 -200 19
-221 8z m-275 -77 c0 -6 -5 -13 -10 -16 -15 -9 -43 3 -35 15 8 13 45 13 45 1z"/>
<path d="M5721 9622 c-15 -27 -14 -32 4 -32 20 0 31 28 17 42 -7 7 -14 4 -21
-10z"/>
<path d="M3750 9460 c0 -5 7 -10 15 -10 8 0 15 5 15 10 0 6 -7 10 -15 10 -8 0
-15 -4 -15 -10z"/>
<path d="M4450 9460 c-8 -5 -27 -10 -42 -10 -17 0 -31 -8 -38 -19 -21 -40 -14
-43 83 -36 172 11 222 19 222 34 0 26 -193 52 -225 31z"/>
<path d="M4753 9458 c2 -7 12 -13 22 -13 10 0 20 6 23 13 2 7 -6 12 -23 12
-17 0 -25 -5 -22 -12z"/>
<path d="M3921 9431 c-10 -6 -9 -10 3 -14 8 -3 18 -2 21 3 8 13 -9 20 -24 11z"/>
<path d="M5440 9427 c0 -18 21 -37 41 -37 10 0 21 -9 24 -20 3 -11 14 -20 24
-20 19 0 61 -40 61 -58 0 -7 -11 -12 -25 -12 -30 0 -32 -16 -7 -59 24 -44 50
-41 55 7 l4 37 1 -37 c1 -26 8 -41 22 -48 11 -6 20 -19 20 -28 0 -10 5 -23 11
-29 6 -6 17 -22 23 -35 6 -12 19 -24 29 -26 14 -3 17 4 17 33 0 29 -5 37 -25
45 -16 6 -25 17 -25 31 0 11 -10 29 -21 38 -16 12 -20 23 -15 39 10 30 17 28
62 -15 62 -60 116 -103 129 -103 7 0 17 6 24 13 12 15 -3 37 -26 37 -8 0 -16
8 -20 18 -3 9 -21 36 -40 59 -29 36 -32 46 -23 63 12 22 30 18 30 -6 0 -23 36
-16 92 18 55 34 101 40 174 23 26 -6 34 -3 48 17 16 22 15 23 -6 31 -13 5 -37
16 -54 24 -59 28 -189 2 -260 -52 -17 -13 -47 -27 -67 -30 -32 -6 -36 -10 -31
-30 4 -18 1 -25 -15 -30 -11 -3 -25 -3 -31 0 -13 8 -13 52 0 60 6 3 10 9 10
13 0 12 -78 52 -102 52 -13 1 -34 7 -48 15 -31 18 -60 19 -60 2z"/>
<path d="M4764 9398 c-7 -11 13 -28 34 -28 7 0 26 -7 43 -15 25 -13 28 -19 19
-36 -14 -25 -5 -39 24 -39 13 0 35 -9 48 -20 14 -11 36 -24 49 -30 13 -5 35
-19 49 -30 34 -26 110 -39 110 -17 0 15 -20 27 -47 27 -9 0 -26 10 -38 23 -96
95 -160 137 -210 137 -13 0 -28 6 -32 13 -11 19 -41 28 -49 15z"/>
<path d="M4997 9403 c-15 -14 -6 -32 21 -42 80 -32 167 -98 192 -147 14 -25
22 -29 63 -32 34 -2 47 1 47 10 -1 37 -156 158 -203 158 -17 0 -33 10 -47 30
-20 28 -57 40 -73 23z"/>
<path d="M5350 9403 c-40 -4 -59 -15 -60 -34 0 -4 16 -17 35 -30 19 -13 35
-30 35 -36 0 -7 12 -20 28 -30 27 -17 45 -38 69 -78 24 -39 27 -49 15 -53 -11
-3 -18 -62 -8 -62 13 0 54 49 65 77 14 35 2 73 -24 73 -8 0 -19 9 -25 20 -6
11 -20 20 -30 20 -24 0 -26 25 -5 46 19 19 20 64 1 64 -7 0 -19 7 -26 15 -7 8
-15 14 -19 13 -3 -1 -26 -3 -51 -5z m50 -44 c6 -11 9 -25 6 -32 -2 -7 -5 -4
-5 6 -1 10 -9 17 -21 17 -11 0 -20 7 -20 15 0 22 28 18 40 -6z"/>
<path d="M4160 9375 c-12 -15 -11 -16 16 -13 16 1 28 8 27 13 -3 17 -29 17
-43 0z"/>
<path d="M4245 9381 c-3 -5 -1 -12 5 -16 12 -7 30 2 30 16 0 12 -27 12 -35 0z"/>
<path d="M4655 9375 c-24 -11 -26 -14 -9 -15 11 0 24 -4 30 -9 16 -16 104 -51
104 -41 0 14 -55 67 -76 73 -10 3 -32 -1 -49 -8z"/>
<path d="M3968 9329 c12 -7 22 -18 22 -25 0 -25 89 -33 97 -8 3 9 -27 19 -117
39 -25 5 -25 5 -2 -6z"/>
<path d="M4390 9330 c19 -13 30 -13 30 0 0 6 -10 10 -22 10 -19 0 -20 -2 -8
-10z"/>
<path d="M6148 9329 c-9 -5 -49 -11 -89 -14 -45 -2 -78 -10 -88 -20 -10 -8
-24 -15 -32 -15 -9 0 -24 -7 -35 -15 -19 -14 -18 -15 6 -35 34 -27 60 -26 61
3 1 18 3 16 10 -9 6 -21 24 -40 55 -60 26 -16 57 -48 71 -71 14 -24 30 -43 36
-43 7 0 25 -7 42 -16 59 -30 104 -5 105 59 0 22 -46 23 -58 0 -9 -15 -13 -15
-48 -1 -29 12 -40 22 -42 40 -2 15 -13 30 -28 37 -19 8 -24 16 -19 32 4 11 2
25 -3 32 -5 7 -12 20 -15 30 -10 28 18 20 31 -9 12 -25 12 -25 110 -19 89 5
100 4 116 -14 16 -17 28 -19 102 -16 86 4 137 22 148 51 9 25 2 28 -72 31 -37
2 -91 11 -121 20 -37 11 -72 14 -116 9 -49 -5 -65 -3 -75 9 -14 17 -28 18 -52
4z m-125 -54 c1 -5 -6 -11 -15 -13 -11 -2 -18 3 -18 13 0 17 30 18 33 0z"/>
<path d="M4192 9297 c3 -7 44 -32 93 -57 59 -30 91 -53 96 -68 7 -19 15 -23
41 -20 27 3 33 -1 39 -25 9 -32 42 -66 81 -84 54 -24 52 19 -2 47 -40 20 -54
50 -24 50 9 0 29 10 46 21 26 19 28 23 15 36 -11 11 -19 12 -40 2 -21 -9 -30
-9 -42 1 -8 7 -22 10 -30 6 -10 -3 -31 9 -56 34 -23 22 -47 40 -54 40 -7 0
-18 6 -24 14 -15 17 -144 21 -139 3z"/>
<path d="M4575 9290 c18 -20 45 -27 45 -12 0 15 -24 32 -44 32 -18 0 -19 -1
-1 -20z"/>
<path d="M3853 9264 c-17 -13 -17 -15 0 -28 9 -7 17 -23 17 -34 0 -26 15 -36
45 -28 35 9 42 42 13 70 -32 31 -53 37 -75 20z"/>
<path d="M4822 9196 c1 -10 8 -17 13 -17 15 1 12 24 -3 29 -9 3 -13 -2 -10
-12z"/>
<path d="M4073 9193 c-22 -8 -14 -21 17 -28 16 -4 32 -11 35 -16 4 -5 19 -9
34 -9 15 0 33 -6 40 -12 10 -11 12 -9 9 7 -2 16 -12 21 -46 23 -27 2 -42 8
-42 17 0 10 -25 28 -33 24 -1 0 -8 -3 -14 -6z"/>
<path d="M3802 9149 c-7 -12 -12 -22 -10 -23 24 -17 110 -66 117 -66 4 0 21
-15 38 -32 36 -39 105 -98 114 -98 4 0 14 -17 22 -38 8 -21 22 -44 31 -51 17
-14 22 -56 8 -65 -16 -10 -82 6 -82 20 0 16 -26 19 -35 4 -3 -6 1 -13 10 -16
9 -4 21 -17 26 -30 9 -25 33 -32 44 -14 3 6 16 10 29 10 12 0 27 5 34 12 16
16 15 57 -2 64 -7 3 -16 23 -20 44 -5 31 -20 53 -71 103 -49 49 -64 69 -58 83
5 13 3 16 -10 11 -13 -5 -54 10 -87 31 -3 2 3 8 13 13 25 15 11 29 -27 29 -19
0 -39 7 -46 15 -17 20 -23 19 -38 -6z"/>
<path d="M4670 9156 c0 -7 7 -19 15 -26 8 -7 15 -18 15 -24 0 -7 6 -21 14 -31
13 -18 15 -18 40 -2 23 16 29 16 61 3 19 -8 35 -22 35 -30 0 -8 9 -21 20 -29
16 -11 20 -24 18 -53 -4 -75 2 -130 12 -114 5 8 9 43 7 78 -1 42 2 65 11 71
10 6 10 13 -3 37 -8 16 -15 35 -15 42 0 9 -5 10 -19 2 -15 -8 -22 -7 -28 5
-12 20 -82 55 -89 44 -8 -14 -17 -11 -46 16 -30 28 -48 32 -48 11z"/>
<path d="M5330 9144 c0 -15 10 -37 23 -49 12 -13 28 -31 35 -40 15 -17 33 -16
40 3 2 6 -8 17 -22 23 -19 9 -26 21 -28 48 -2 29 -8 37 -25 39 -19 3 -23 -1
-23 -24z"/>
<path d="M4010 9150 c0 -5 7 -10 15 -10 8 0 15 5 15 10 0 6 -7 10 -15 10 -8 0
-15 -4 -15 -10z"/>
<path d="M5150 9140 c0 -28 -34 -44 -59 -28 -23 14 -36 6 -28 -17 7 -18 49
-20 79 -4 18 9 24 8 35 -7 7 -10 11 -24 8 -32 -5 -14 42 -61 61 -62 7 0 15 -7
18 -16 4 -11 13 -14 28 -11 13 4 29 0 39 -9 10 -9 19 -11 23 -5 10 16 -11 58
-39 78 -43 30 -103 92 -110 113 -9 28 -55 28 -55 0z"/>
<path d="M5962 9131 c2 -7 7 -12 11 -12 12 1 9 15 -3 20 -7 2 -11 -2 -8 -8z"/>
<path d="M3307 9123 c-18 -17 -5 -33 28 -33 39 0 46 14 16 30 -23 12 -35 13
-44 3z"/>
<path d="M5910 9120 c0 -5 4 -10 10 -10 5 0 7 -6 4 -14 -3 -8 -13 -12 -24 -9
-25 7 -35 -15 -16 -36 9 -10 16 -25 16 -33 0 -17 48 -53 58 -43 3 3 1 14 -6
23 -24 33 -25 45 -8 58 11 8 16 20 12 31 -7 20 -46 49 -46 33z"/>
<path d="M6560 9099 c-68 -20 -155 -30 -158 -19 -5 14 -23 12 -19 -2 1 -7 -8
-14 -20 -16 -15 -2 -23 -10 -23 -23 0 -10 -4 -19 -10 -19 -5 0 -10 -7 -10 -15
0 -8 7 -15 15 -15 8 0 15 4 15 9 0 5 9 13 20 16 22 7 60 -2 60 -15 0 -4 -9
-10 -20 -13 -11 -3 -20 -10 -20 -16 0 -16 21 -13 43 6 18 17 19 17 32 0 15
-21 55 -23 55 -2 0 8 12 17 28 21 15 3 34 8 42 11 8 3 44 7 79 8 77 3 100 20
85 62 -9 27 -12 28 -84 30 -41 1 -91 -3 -110 -8z"/>
<path d="M4166 9087 c-12 -26 9 -67 34 -67 26 0 26 20 1 27 -12 3 -21 16 -24
32 -3 22 -4 23 -11 8z"/>
<path d="M6000 9085 c0 -9 -7 -18 -15 -21 -8 -4 -15 -12 -15 -20 0 -17 17 -18
23 -1 2 6 8 9 12 5 4 -4 -2 -36 -14 -71 -22 -69 -19 -137 5 -137 15 0 17 12
14 73 -2 44 22 61 45 31 8 -11 15 -14 15 -8 0 5 -5 15 -11 21 -9 9 -7 16 6 29
17 17 17 19 -4 32 -11 8 -21 21 -21 28 0 8 -9 23 -20 34 -16 16 -20 17 -20 5z"/>
<path d="M3460 9070 l-75 -5 47 -9 c25 -4 55 -5 67 -1 15 4 23 1 28 -10 7 -21
-13 -36 -47 -34 -40 2 -52 0 -46 -9 3 -5 29 -9 58 -10 51 -1 54 0 65 28 14 37
30 38 45 5 8 -18 18 -25 32 -23 29 4 34 38 6 38 -11 0 -31 6 -43 14 -32 20
-53 23 -137 16z"/>
<path d="M4220 9069 c0 -7 7 -17 16 -24 15 -10 15 -13 1 -27 -8 -8 -15 -23
-14 -34 1 -13 -5 -20 -21 -22 -13 -2 -21 -9 -19 -15 6 -20 32 -19 57 3 12 11
27 20 32 20 4 0 8 11 8 25 0 38 27 31 34 -10 4 -20 16 -41 26 -48 11 -6 20
-20 20 -29 0 -10 5 -18 12 -18 6 0 20 -7 30 -17 16 -14 18 -14 18 0 0 8 -3 17
-7 19 -16 7 -43 71 -43 102 0 42 -26 66 -73 66 -20 0 -39 5 -42 10 -8 14 -35
13 -35 -1z"/>
<path d="M2968 9034 c-16 -8 -28 -21 -28 -29 0 -19 29 -20 36 -1 3 8 17 17 30
20 14 4 22 11 19 16 -8 14 -25 12 -57 -6z"/>
<path d="M3775 9040 c-3 -5 3 -10 15 -10 12 0 18 5 15 10 -3 6 -10 10 -15 10
-5 0 -12 -4 -15 -10z"/>
<path d="M5100 9043 c0 -4 10 -17 21 -29 21 -23 21 -23 2 -48 -15 -19 -23 -22
-32 -13 -8 8 -14 8 -23 -1 -13 -13 5 -42 27 -42 18 0 41 -31 55 -75 7 -22 16
-49 20 -60 5 -11 11 -28 14 -37 4 -15 9 -16 31 -6 30 14 32 41 5 68 -24 24
-28 88 -5 96 8 4 15 16 15 27 0 16 -3 18 -12 9 -7 -7 -15 -12 -20 -12 -15 0
-36 56 -31 82 4 23 1 29 -22 38 -31 12 -45 13 -45 3z"/>
<path d="M3100 9030 c0 -5 6 -10 14 -10 8 0 18 5 21 10 3 6 -3 10 -14 10 -12
0 -21 -4 -21 -10z"/>
<path d="M5491 9014 c-1 -38 23 -99 55 -137 13 -16 24 -36 24 -46 0 -19 36
-58 45 -49 3 3 1 23 -4 44 -6 22 -20 76 -32 121 -19 74 -23 81 -39 73 -27 -14
-38 -12 -43 8 -3 9 -5 3 -6 -14z"/>
<path d="M5660 9015 c0 -8 8 -43 17 -77 17 -60 49 -108 72 -108 6 0 11 -17 11
-40 0 -41 10 -50 27 -27 20 24 20 55 2 83 -10 16 -16 38 -13 50 4 16 0 23 -15
27 -13 3 -21 13 -21 27 0 11 -15 34 -32 51 -36 33 -48 36 -48 14z"/>
<path d="M3065 9009 c-4 -6 -5 -13 -2 -16 7 -7 27 6 27 18 0 12 -17 12 -25 -2z"/>
<path d="M4400 8990 c14 -26 42 -40 68 -33 12 3 22 1 22 -5 0 -6 14 -19 30
-29 17 -9 30 -23 30 -30 0 -22 23 -27 37 -8 11 16 13 17 13 2 0 -9 8 -24 19
-34 23 -22 34 -74 14 -66 -7 3 -13 1 -13 -5 0 -5 14 -12 30 -16 23 -4 35 -15
45 -39 7 -18 23 -41 34 -51 12 -11 21 -30 21 -43 0 -28 27 -31 46 -5 12 15 14
14 20 -15 4 -23 12 -33 25 -33 23 0 23 1 3 97 -11 53 -14 98 -9 145 5 47 4 68
-4 68 -6 0 -11 -13 -11 -30 0 -16 -4 -30 -10 -30 -5 0 -10 -8 -10 -19 0 -10
-7 -24 -15 -31 -26 -22 -68 17 -77 70 -9 53 -23 70 -33 41 -8 -26 -21 -27 -35
-1 -6 11 -17 20 -24 20 -9 0 -12 7 -9 19 6 25 -17 39 -29 17 -13 -23 -30 -20
-26 7 2 18 -2 22 -27 24 -54 5 -95 15 -95 24 0 5 -9 9 -20 9 -18 0 -19 -3 -10
-20z"/>
<path d="M4946 8991 c-8 -12 3 -41 15 -41 5 0 14 -11 21 -25 16 -35 27 -22 18
21 -10 44 -40 69 -54 45z"/>
<path d="M6235 8980 c-7 -11 2 -30 13 -30 4 0 14 5 22 10 13 9 13 11 0 20 -19
12 -27 12 -35 0z"/>
<path d="M2990 8970 c0 -5 9 -10 19 -10 11 0 23 5 26 10 4 6 -5 10 -19 10 -14
0 -26 -4 -26 -10z"/>
<path d="M3668 8966 c-25 -18 -22 -26 7 -26 18 0 25 5 25 20 0 23 -8 25 -32 6z"/>
<path d="M4702 8971 c4 -13 18 -16 19 -4 0 4 -5 9 -11 12 -7 2 -11 -2 -8 -8z"/>
<path d="M6700 8959 c-34 -15 -56 -19 -87 -14 -28 4 -43 2 -43 -4 0 -6 9 -11
20 -11 26 0 26 -26 0 -33 -25 -6 -37 -35 -21 -50 10 -9 16 -7 30 9 21 26 54
44 80 44 12 0 30 6 41 12 16 10 24 10 40 0 17 -10 25 -10 45 5 30 22 31 28 3
47 -30 21 -54 20 -108 -5z"/>
<path d="M3136 8951 c-3 -5 1 -11 9 -15 9 -3 15 0 15 9 0 16 -16 20 -24 6z"/>
<path d="M3840 8930 c0 -11 4 -20 9 -20 5 0 11 -9 14 -20 3 -12 14 -20 25 -20
11 0 32 -13 45 -30 27 -32 57 -40 57 -16 0 8 -4 18 -10 21 -5 3 -10 16 -10 28
0 14 -13 30 -35 45 -41 26 -45 27 -45 7 0 -8 -4 -15 -10 -15 -5 0 -10 9 -10
20 0 11 -7 20 -15 20 -8 0 -15 -9 -15 -20z"/>
<path d="M3574 8932 c-6 -4 -16 -17 -22 -29 -13 -24 -1 -33 48 -33 37 0 46 15
26 45 -17 25 -32 31 -52 17z"/>
<path d="M3005 8920 c-4 -6 9 -10 32 -10 28 0 34 3 23 10 -20 13 -47 13 -55 0z"/>
<path d="M4467 8923 c-8 -13 67 -128 88 -137 36 -14 35 11 -2 51 -21 22 -48
52 -59 68 -12 15 -24 23 -27 18z"/>
<path d="M6160 8916 c0 -27 12 -46 29 -46 27 0 31 10 14 36 -17 26 -43 32 -43
10z"/>
<path d="M2608 8908 c9 -9 15 -9 24 0 9 9 7 12 -12 12 -19 0 -21 -3 -12 -12z"/>
<path d="M6282 8883 c3 -33 7 -38 31 -41 40 -5 64 5 49 20 -7 7 -12 20 -12 29
0 18 -19 29 -51 29 -17 0 -20 -6 -17 -37z"/>
<path d="M5370 8898 c0 -9 4 -19 9 -23 5 -3 13 -20 17 -37 3 -18 16 -48 29
-68 12 -19 25 -44 29 -55 8 -20 8 -20 16 0 5 12 3 28 -6 42 -8 12 -14 33 -14
45 0 13 -8 30 -18 39 -9 8 -27 28 -39 44 -16 22 -22 25 -23 13z"/>
<path d="M6837 8903 c-4 -3 -7 -13 -7 -20 0 -16 -40 -73 -51 -73 -4 0 -11 15
-15 33 -6 28 -8 29 -14 12 -5 -13 -2 -26 8 -38 18 -20 9 -34 -27 -39 -34 -4
-38 -26 -7 -34 38 -9 32 -24 -9 -24 -40 0 -47 -15 -10 -24 33 -9 32 -31 -5
-58 -16 -12 -30 -30 -30 -40 0 -15 8 -18 45 -18 l45 0 0 -72 c0 -55 5 -81 20
-105 11 -18 24 -33 29 -33 5 0 12 -24 16 -52 5 -33 17 -64 31 -81 l23 -28 7
27 c4 14 7 54 7 88 -1 130 -29 215 -99 292 -19 20 -30 42 -27 50 8 21 24 17
30 -7 4 -15 11 -19 26 -15 11 3 32 -1 46 -8 37 -18 84 -26 100 -16 18 11 6 40
-15 40 -10 0 -25 7 -35 16 -15 13 -24 14 -49 5 -26 -9 -32 -8 -37 6 -4 11 1
22 15 31 12 8 22 23 22 33 0 10 5 21 10 24 18 11 12 100 -8 118 -20 19 -26 20
-35 10z"/>
<path d="M3085 8890 c3 -5 16 -10 28 -10 18 0 19 2 7 10 -20 13 -43 13 -35 0z"/>
<path d="M4977 8871 c-2 -10 -1 -25 4 -32 6 -10 9 -4 9 19 0 36 -5 42 -13 13z"/>
<path d="M3360 8860 c0 -5 9 -10 21 -10 11 0 17 5 14 10 -3 6 -13 10 -21 10
-8 0 -14 -4 -14 -10z"/>
<path d="M3790 8851 c0 -5 7 -14 15 -21 18 -15 42 1 31 19 -8 13 -46 15 -46 2z"/>
<path d="M4282 8848 c-16 -16 -15 -28 2 -28 8 0 21 -9 29 -20 20 -29 29 -13
12 21 -19 35 -29 41 -43 27z"/>
<path d="M5336 8853 c-3 -3 -6 -16 -6 -27 1 -26 45 -62 56 -45 4 7 -1 16 -10
21 -9 5 -16 18 -16 28 0 20 -13 33 -24 23z"/>
<path d="M6055 8848 c-8 -26 -9 -44 -1 -78 13 -62 16 -68 36 -73 23 -6 27 -37
6 -37 -22 0 -28 -17 -16 -41 27 -50 60 59 35 117 -8 20 -12 40 -9 46 10 16 -5
57 -26 68 -15 8 -21 8 -25 -2z"/>
<path d="M2652 8825 c-16 -35 -16 -35 13 -35 27 0 28 3 19 38 -8 29 -18 28
-32 -3z"/>
<path d="M5910 8830 c0 -19 3 -21 12 -12 9 9 9 15 0 24 -9 9 -12 7 -12 -12z"/>
<path d="M4387 8833 c-10 -19 -16 -59 -9 -69 4 -6 23 -15 42 -19 19 -4 40 -15
47 -24 11 -15 12 -14 13 2 0 9 -4 17 -9 17 -5 0 -13 9 -16 20 -4 13 -15 20
-31 20 -23 0 -25 3 -19 30 6 27 -7 43 -18 23z"/>
<path d="M6180 8809 c0 -6 5 -19 10 -30 9 -16 17 -107 20 -214 0 -14 5 -9 18
16 15 30 16 46 8 126 -8 81 -12 92 -33 102 -16 7 -23 7 -23 0z"/>
<path d="M3222 8799 c-14 -6 -20 -14 -16 -24 4 -9 13 -14 22 -10 14 5 73 -28
118 -68 12 -10 28 -18 35 -17 30 4 59 -13 65 -39 8 -33 62 -91 86 -91 16 0 16
3 6 20 -10 15 -10 22 0 32 9 9 8 16 -4 29 -11 12 -14 27 -10 44 7 29 36 34 36
5 0 -10 7 -23 17 -28 9 -6 14 -16 10 -25 -3 -9 0 -20 7 -26 9 -8 18 -3 35 19
15 22 18 30 8 30 -8 0 -30 16 -50 35 -20 19 -45 35 -56 35 -13 0 -27 12 -36
30 -9 17 -23 30 -35 30 -26 0 -34 -17 -14 -28 9 -5 14 -14 10 -21 -10 -16 -33
-14 -40 5 -4 11 -13 14 -29 10 -26 -7 -87 13 -87 29 0 16 -53 33 -78 24z"/>
<path d="M2585 8770 c-3 -5 3 -10 14 -10 11 0 23 5 26 10 3 6 -3 10 -14 10
-11 0 -23 -4 -26 -10z"/>
<path d="M3824 8759 c-8 -14 11 -33 25 -25 16 10 13 36 -3 36 -8 0 -18 -5 -22
-11z"/>
<path d="M5037 8754 c-8 -9 1 -70 15 -96 5 -10 15 -18 23 -18 19 0 20 36 2 47
-7 4 -17 23 -23 41 -5 19 -12 30 -17 26z"/>
<path d="M4935 8716 c-10 -20 -15 -46 -12 -59 25 -101 37 -127 60 -127 18 0 1
90 -23 115 -16 17 -20 28 -13 37 16 21 22 44 13 58 -5 9 -13 2 -25 -24z"/>
<path d="M5100 8737 c0 -9 5 -19 10 -22 6 -3 10 -21 10 -40 0 -19 -4 -37 -10
-40 -5 -3 -10 -28 -10 -56 0 -40 3 -49 18 -49 22 0 42 48 31 75 -4 11 -5 37
-2 58 5 31 1 42 -21 63 -19 20 -26 23 -26 11z"/>
<path d="M6412 8738 c-7 -7 -12 -17 -12 -23 0 -14 66 -49 78 -41 6 4 13 2 17
-4 8 -13 52 -13 60 0 3 6 17 10 31 10 15 0 24 6 24 15 0 16 -16 20 -63 16 -15
-1 -39 7 -53 18 -30 23 -64 27 -82 9z"/>
<path d="M3660 8695 c0 -16 7 -28 18 -31 9 -3 30 -12 45 -20 16 -8 33 -12 38
-8 13 7 120 -17 114 -26 -3 -4 -20 -11 -39 -14 -42 -8 -39 -35 3 -34 15 1 37
-5 50 -11 28 -15 43 -4 18 13 -9 7 -17 18 -17 24 0 18 70 26 104 13 64 -26 66
-26 66 7 0 39 -12 46 -54 31 -29 -10 -44 -9 -93 5 -32 10 -73 24 -91 33 -18 8
-41 11 -52 8 -16 -5 -54 7 -102 32 -5 2 -8 -7 -8 -22z"/>
<path d="M5335 8698 c-10 -26 -1 -101 13 -106 8 -2 12 10 12 45 0 54 -14 89
-25 61z"/>
<path d="M4271 8686 c-9 -10 -8 -15 4 -19 8 -4 29 -29 46 -57 17 -27 35 -50
40 -50 12 0 11 37 -1 45 -6 4 -9 14 -6 23 6 19 -10 41 -42 60 -27 15 -27 15
-41 -2z"/>
<path d="M5245 8687 c-4 -10 -5 -21 -1 -24 10 -10 18 4 13 24 -4 17 -4 17 -12
0z"/>
<path d="M4543 8653 c-11 -34 -10 -40 8 -55 30 -26 47 -22 51 10 3 25 -25 82
-40 82 -4 0 -13 -17 -19 -37z"/>
<path d="M6345 8680 c-8 -13 3 -30 20 -30 14 0 27 24 18 34 -10 9 -31 7 -38
-4z"/>
<path d="M3217 8673 c-13 -12 -7 -30 18 -57 24 -25 55 -35 55 -17 0 5 -10 25
-22 45 -22 34 -38 43 -51 29z"/>
<path d="M6583 8653 c-13 -8 -23 -22 -23 -30 0 -7 -8 -17 -17 -20 -19 -8 -43
-27 -81 -65 -14 -16 -33 -28 -40 -28 -16 0 -10 -36 14 -84 8 -16 14 -33 14
-38 0 -5 11 -24 25 -42 14 -18 25 -39 25 -47 1 -20 53 -56 58 -41 5 15 32 16
32 2 0 -6 -10 -14 -22 -19 l-22 -8 22 -14 c12 -8 22 -21 22 -29 0 -9 7 -25 15
-37 8 -12 27 -44 41 -72 14 -28 29 -49 33 -47 4 3 6 34 6 71 -1 36 2 68 7 71
12 7 40 -68 34 -92 -3 -11 1 -29 9 -40 8 -10 15 -29 15 -41 0 -12 11 -34 24
-50 18 -22 22 -33 14 -46 -5 -10 -6 -26 -3 -37 3 -11 8 -42 10 -71 4 -56 10
-68 26 -52 7 7 9 41 5 94 -13 217 -23 274 -53 318 -13 19 -26 45 -29 57 -3 12
-13 24 -22 26 -10 3 -24 18 -32 34 -14 29 -48 63 -63 64 -4 0 -12 -10 -17 -22
-9 -23 -9 -23 -15 -2 -4 11 -20 28 -36 38 l-29 17 22 19 23 18 -30 11 c-95 34
-104 56 -44 112 23 21 46 39 50 39 4 0 18 13 32 29 13 16 33 31 43 33 25 4 24
32 -1 35 -11 1 -30 -5 -42 -14z m101 -410 c9 -22 -3 -55 -17 -50 -7 2 -11 11
-9 20 1 8 -6 18 -17 22 -20 6 -35 31 -26 45 7 12 62 -17 69 -37z"/>
<path d="M4430 8639 c0 -11 5 -17 10 -14 6 3 10 13 10 21 0 8 -4 14 -10 14 -5
0 -10 -9 -10 -21z"/>
<path d="M2597 8617 c-19 -13 -36 -87 -20 -87 5 0 20 11 33 25 13 14 34 25 46
25 29 0 54 10 54 21 0 13 -34 11 -47 -2 -13 -13 -33 -4 -33 17 0 17 -11 18
-33 1z"/>
<path d="M5178 8598 c-6 -20 3 -118 11 -118 4 0 8 29 9 65 2 58 -9 86 -20 53z"/>
<path d="M4435 8588 c3 -7 15 -19 26 -26 19 -12 20 -11 17 10 -2 15 -11 24
-25 26 -16 2 -21 -1 -18 -10z"/>
<path d="M3187 8573 c-15 -14 -6 -23 24 -23 27 0 30 2 19 15 -13 16 -32 19
-43 8z"/>
<path d="M4105 8551 c-8 -25 7 -47 24 -37 14 9 14 18 -3 41 -13 18 -14 18 -21
-4z"/>
<path d="M6350 8540 c0 -36 18 -39 42 -6 17 23 17 24 -5 30 -35 9 -37 8 -37
-24z"/>
<path d="M3346 8535 c9 -14 20 -25 25 -25 5 0 9 -7 9 -15 0 -17 16 -20 25 -5
3 6 -1 13 -9 16 -9 3 -16 12 -16 20 0 7 -9 18 -19 24 -30 15 -33 12 -15 -15z"/>
<path d="M4610 8546 c0 -8 5 -18 10 -21 6 -3 10 3 10 14 0 12 -4 21 -10 21 -5
0 -10 -6 -10 -14z"/>
<path d="M5370 8528 c0 -21 4 -38 9 -38 17 0 19 14 5 45 l-13 30 -1 -37z"/>
<path d="M6600 8544 c0 -14 3 -14 15 -4 8 7 15 14 15 16 0 2 -7 4 -15 4 -8 0
-15 -7 -15 -16z"/>
<path d="M3132 8528 c2 -6 16 -21 31 -32 36 -27 59 -8 28 23 -22 22 -65 29
-59 9z"/>
<path d="M3570 8520 c8 -5 23 -10 33 -10 10 0 20 -7 23 -15 7 -17 34 -20 34
-4 0 6 -9 13 -20 16 -11 3 -20 9 -20 14 0 5 -15 9 -32 9 -25 0 -29 -3 -18 -10z"/>
<path d="M3715 8520 c-8 -12 20 -24 35 -15 5 3 10 10 10 16 0 12 -37 12 -45
-1z"/>
<path d="M4492 8518 c6 -16 36 -34 44 -25 9 9 -15 37 -33 37 -8 0 -13 -5 -11
-12z"/>
<path d="M5006 8502 c-3 -6 -1 -14 5 -17 15 -10 25 3 12 16 -7 7 -13 7 -17 1z"/>
<path d="M6643 8485 c-27 -26 -29 -35 -9 -35 8 0 22 10 30 22 30 42 16 51 -21
13z"/>
<path d="M5277 8481 c-2 -10 -1 -25 4 -32 6 -10 9 -4 9 19 0 36 -5 42 -13 13z"/>
<path d="M3297 8474 c-12 -12 4 -24 33 -24 16 0 32 5 35 10 3 6 -3 10 -14 10
-10 0 -26 2 -33 5 -8 3 -17 3 -21 -1z"/>
<path d="M3490 8440 c-12 -23 -50 -27 -50 -5 0 10 -10 15 -31 15 -38 0 -35
-24 4 -28 15 -2 27 -10 27 -18 0 -19 39 -18 46 1 4 8 18 15 34 15 16 0 30 -7
34 -15 6 -16 43 -20 64 -6 10 6 7 12 -12 24 -14 10 -32 17 -40 17 -8 0 -18 5
-21 10 -11 17 -44 11 -55 -10z"/>
<path d="M5205 8450 c-10 -16 5 -50 21 -50 16 0 17 5 8 38 -7 23 -19 29 -29
12z"/>
<path d="M5047 8444 c-10 -11 3 -24 23 -24 13 0 17 5 14 15 -6 15 -26 20 -37
9z"/>
<path d="M3745 8430 c28 -12 45 -12 45 0 0 6 -15 10 -32 9 -28 0 -30 -2 -13
-9z"/>
<path d="M2840 8406 c0 -9 7 -16 16 -16 17 0 14 22 -4 28 -7 2 -12 -3 -12 -12z"/>
<path d="M3193 8398 c8 -13 24 -22 35 -21 14 2 22 -5 26 -22 8 -30 22 -32 35
-6 9 15 5 23 -21 45 -18 15 -44 26 -61 26 -28 0 -29 -1 -14 -22z"/>
<path d="M2690 8387 c0 -7 -11 -19 -25 -25 -34 -16 -35 -15 -35 8 0 11 -4 20
-10 20 -13 0 -13 -27 1 -35 7 -5 5 -15 -6 -31 -15 -23 -15 -24 9 -24 28 0 100
63 94 81 -6 18 -28 23 -28 6z"/>
<path d="M4762 8378 c5 -15 28 -18 29 -3 0 6 -7 12 -17 13 -10 3 -15 -1 -12
-10z"/>
<path d="M5240 8350 c0 -29 4 -40 15 -40 11 0 15 11 15 40 0 29 -4 40 -15 40
-11 0 -15 -11 -15 -40z"/>
<path d="M3747 8373 c-4 -3 -7 -12 -7 -18 0 -15 105 -26 135 -15 17 6 16 8
-12 14 -18 4 -36 5 -41 2 -5 -3 -21 2 -36 10 -33 16 -31 16 -39 7z"/>
<path d="M2990 8351 c0 -14 47 -41 73 -41 13 0 32 -9 42 -20 10 -11 30 -20 45
-20 15 0 33 -7 40 -15 15 -18 43 -20 38 -2 -8 23 -83 66 -116 67 -20 0 -39 8
-49 20 -17 20 -73 28 -73 11z"/>
<path d="M3580 8330 c0 -12 10 -24 24 -30 13 -5 26 -15 28 -22 4 -10 8 -11 20
-1 12 11 18 9 32 -6 15 -17 15 -19 1 -25 -9 -3 -26 -6 -36 -6 -32 0 -12 -19
29 -26 20 -4 43 -13 50 -21 18 -17 112 -18 112 0 0 27 -22 36 -74 30 l-51 -6
34 37 c27 28 31 36 18 36 -10 0 -47 14 -82 30 -76 36 -105 38 -105 10z"/>
<path d="M5120 8319 c0 -11 14 -38 32 -60 23 -29 39 -39 60 -39 28 0 37 13 18
25 -6 4 -8 16 -4 28 6 20 5 20 -10 8 -15 -13 -20 -11 -41 15 -14 16 -24 32
-25 37 -1 18 -30 5 -30 -14z"/>
<path d="M3480 8315 c0 -8 4 -15 9 -15 5 0 16 -3 25 -6 10 -4 16 -1 16 9 0 14
-20 27 -41 27 -5 0 -9 -7 -9 -15z"/>
<path d="M3975 8320 c-4 -6 5 -10 19 -10 14 0 26 5 26 10 0 6 -9 10 -19 10
-11 0 -23 -4 -26 -10z"/>
<path d="M4870 8321 c0 -13 21 -27 74 -47 29 -10 51 -25 54 -36 2 -10 15 -21
27 -24 13 -3 35 -19 51 -35 15 -16 31 -29 36 -29 28 0 -24 75 -69 99 -12 6
-23 21 -25 33 -2 12 -14 28 -28 35 -28 14 -120 18 -120 4z"/>
<path d="M5450 8300 c0 -6 10 -24 21 -40 13 -17 19 -35 15 -45 -7 -20 30 -85
49 -85 7 0 18 6 24 14 9 10 8 16 -4 26 -8 7 -15 20 -15 30 0 10 -7 23 -15 30
-8 7 -15 21 -15 31 0 10 -10 25 -22 33 -26 19 -38 20 -38 6z"/>
<path d="M2491 8271 c-20 -18 -31 -36 -29 -48 4 -15 8 -13 33 15 16 17 35 32
42 32 7 0 13 7 13 15 0 23 -23 18 -59 -14z"/>
<path d="M2725 8267 c-22 -12 -43 -26 -46 -31 -11 -15 14 -64 39 -76 23 -10
24 -9 18 14 -3 13 -9 31 -12 39 -4 11 9 24 40 42 25 15 46 29 46 31 0 11 -50
0 -85 -19z"/>
<path d="M4498 8276 c-19 -10 -30 -11 -34 -4 -15 23 -142 -15 -144 -44 0 -3
30 -5 67 -4 42 1 71 -3 79 -11 17 -18 28 -16 49 7 10 12 25 18 33 15 18 -7 52
12 52 29 0 26 -61 33 -102 12z"/>
<path d="M3840 8261 c0 -8 68 -32 99 -34 31 -3 39 21 9 27 -47 10 -108 14
-108 7z"/>
<path d="M4723 8257 c-13 -22 -43 -29 -49 -12 -10 26 -28 16 -52 -26 -16 -28
-21 -44 -14 -51 14 -14 32 -1 32 23 0 22 25 26 33 5 5 -13 10 -13 36 0 29 15
61 49 61 66 0 13 -38 9 -47 -5z"/>
<path d="M4790 8260 c0 -5 4 -10 9 -10 5 0 16 -3 25 -6 11 -4 16 -1 16 10 0
10 -9 16 -25 16 -14 0 -25 -4 -25 -10z"/>
<path d="M4240 8240 c0 -24 25 -27 34 -4 9 23 8 24 -14 24 -13 0 -20 -7 -20
-20z"/>
<path d="M3330 8236 c0 -6 11 -24 24 -41 l24 -30 20 25 c27 33 11 58 -35 57
-18 -1 -33 -6 -33 -11z"/>
<path d="M5306 8241 c-4 -5 0 -16 8 -23 7 -8 16 -24 20 -35 4 -12 17 -23 29
-25 19 -3 22 -9 22 -48 0 -42 -2 -45 -27 -48 -37 -4 -35 -18 2 -26 17 -3 41
-17 54 -31 13 -14 33 -25 45 -25 21 0 21 1 -8 38 -31 40 -57 150 -45 197 7 27
-10 35 -20 10 -7 -19 -56 -20 -56 -1 0 18 -17 30 -24 17z"/>
<path d="M2362 8203 c-17 -20 -30 -39 -27 -41 7 -7 79 52 77 63 -2 21 -19 13
-50 -22z"/>
<path d="M2827 8204 c-17 -23 -16 -65 1 -63 15 1 54 60 48 74 -8 22 -29 18
-49 -11z"/>
<path d="M3520 8222 c0 -21 28 -45 45 -38 17 6 17 8 -3 26 -22 21 -42 26 -42
12z"/>
<path d="M4173 8203 c-7 -2 -13 -13 -13 -24 0 -13 -7 -19 -23 -19 -13 0 -38
-11 -57 -25 -19 -14 -43 -25 -54 -25 -11 0 -27 -7 -37 -16 -10 -9 -33 -19 -51
-23 -26 -5 -34 -13 -38 -36 -5 -28 -8 -30 -51 -29 -43 2 -159 48 -167 67 -2 4
-20 7 -39 7 l-35 0 23 -25 c13 -13 38 -27 56 -31 17 -3 34 -13 37 -21 4 -11 1
-13 -14 -8 -16 5 -24 -1 -38 -25 -16 -29 -20 -31 -59 -25 -25 4 -51 1 -64 -5
-16 -9 -28 -9 -50 1 -32 13 -34 36 -3 32 27 -4 64 6 64 16 0 5 -15 14 -32 22
-18 7 -35 16 -38 20 -3 3 -20 10 -37 14 -27 5 -33 3 -33 -9 0 -12 6 -15 25
-10 15 4 25 2 25 -5 0 -6 -13 -11 -28 -11 -20 0 -41 -12 -70 -40 -22 -22 -50
-40 -61 -40 -13 0 -21 -6 -21 -16 0 -14 8 -16 54 -10 45 5 60 2 102 -20 27
-14 56 -32 65 -40 8 -8 22 -14 30 -14 8 0 34 -14 58 -30 32 -22 55 -30 85 -29
37 0 39 1 16 10 -13 6 -31 16 -40 23 -8 7 -36 19 -62 26 -57 15 -106 61 -85
79 10 8 22 8 39 2 15 -6 43 -5 74 1 27 5 77 9 112 9 34 0 62 4 62 9 0 6 -4 10
-10 10 -5 0 -10 5 -10 10 0 6 28 10 65 10 58 0 65 2 65 20 0 20 45 50 75 50 8
0 19 11 24 23 8 20 15 23 40 19 22 -3 41 3 64 19 17 13 55 35 82 49 28 14 52
26 54 27 2 2 -4 12 -14 23 -18 19 -37 24 -62 13z"/>
<path d="M5242 8198 c6 -18 28 -21 28 -4 0 9 -7 16 -16 16 -9 0 -14 -5 -12
-12z"/>
<path d="M3490 8180 c28 -22 40 -25 40 -10 0 6 -7 10 -15 10 -8 0 -15 5 -15
10 0 6 -8 10 -17 10 -15 0 -13 -4 7 -20z"/>
<path d="M3021 8181 c-10 -6 -10 -10 -1 -16 13 -8 24 -1 19 14 -3 6 -10 7 -18
2z"/>
<path d="M3175 8181 c-3 -6 -1 -19 5 -30 5 -11 7 -28 3 -38 -6 -16 -5 -16 10
-4 15 11 18 10 26 -12 6 -14 19 -31 31 -37 15 -8 19 -17 15 -31 -7 -22 -2 -24
25 -7 15 10 22 10 32 0 13 -13 48 -17 48 -4 0 4 -26 33 -57 64 -32 31 -65 65
-73 76 -18 24 -56 37 -65 23z"/>
<path d="M4770 8178 c0 -9 5 -20 10 -23 6 -3 10 -16 10 -29 0 -34 10 -38 39
-15 23 19 34 20 113 14 91 -7 114 2 59 25 -18 7 -46 9 -75 5 -38 -6 -51 -4
-67 11 -17 15 -23 16 -40 5 -18 -10 -23 -10 -35 6 -12 16 -13 16 -14 1z"/>
<path d="M2433 8152 c-18 -9 -33 -19 -33 -24 0 -4 -16 -14 -35 -22 -19 -8 -35
-22 -35 -30 0 -28 38 -17 71 19 18 19 38 35 44 35 16 0 38 27 28 33 -4 2 -23
-2 -40 -11z"/>
<path d="M2909 8162 c-1 -4 0 -15 1 -25 1 -11 -7 -21 -19 -24 -11 -3 -18 -9
-15 -15 3 -5 14 -6 24 -3 13 4 20 -2 28 -25 9 -24 17 -30 39 -30 41 0 108 -26
111 -43 2 -8 15 -20 30 -26 26 -12 26 -13 7 -27 -11 -7 -25 -18 -32 -24 -7 -5
-17 -10 -23 -10 -5 0 -10 -7 -10 -15 0 -22 20 -18 64 11 26 18 45 24 62 20 13
-3 35 -9 49 -12 14 -4 32 -1 40 6 28 23 17 39 -32 46 -38 5 -68 22 -140 76
-51 38 -101 77 -110 86 -21 21 -72 45 -74 34z"/>
<path d="M3918 8159 c-10 -6 -18 -14 -18 -19 0 -14 37 -12 46 1 10 17 -9 29
-28 18z"/>
<path d="M2510 8141 c-14 -27 -13 -41 5 -41 10 0 15 10 15 30 0 35 -5 38 -20
11z"/>
<path d="M3067 8125 c10 -14 30 -28 46 -32 15 -3 30 -10 33 -14 7 -12 24 -11
24 1 0 6 -5 10 -11 10 -6 0 -22 14 -36 30 -15 18 -34 30 -49 30 -25 0 -25 0
-7 -25z"/>
<path d="M4300 8141 c0 -5 14 -14 30 -21 23 -10 33 -10 45 0 8 6 19 9 25 5 14
-9 52 4 45 16 -8 12 -145 12 -145 0z"/>
<path d="M4245 8106 c-17 -14 -41 -37 -55 -51 -17 -16 -37 -25 -58 -25 -41 0
-151 -67 -152 -93 0 -14 5 -16 28 -11 15 3 39 15 54 25 17 12 44 19 70 19 43
0 118 38 118 60 0 5 9 17 20 28 15 14 18 24 12 46 l-7 27 -30 -25z"/>
<path d="M5174 8088 c-4 -6 -2 -14 4 -16 7 -2 19 -10 26 -18 16 -15 36 -19 36
-6 -1 26 -55 59 -66 40z"/>
<path d="M2550 8061 c-15 -30 5 -35 24 -6 14 21 14 25 2 25 -9 0 -20 -9 -26
-19z"/>
<path d="M2657 8046 c-51 -31 -52 -33 -33 -52 15 -15 15 -18 1 -40 -20 -31
-19 -35 9 -28 13 3 27 1 31 -5 3 -6 11 -9 16 -5 6 3 5 11 -3 21 -10 12 -8 18
12 33 19 14 22 22 13 30 -7 8 -8 22 -3 41 10 35 6 35 -43 5z"/>
<path d="M2277 8040 c-3 -13 0 -20 9 -20 8 0 14 9 14 20 0 11 -4 20 -9 20 -5
0 -11 -9 -14 -20z"/>
<path d="M4402 8017 c-18 -18 -32 -40 -32 -48 0 -8 -9 -20 -20 -27 -11 -7 -20
-17 -20 -22 0 -6 9 -10 20 -10 11 0 20 7 20 15 0 8 20 34 45 57 45 42 57 68
32 68 -7 0 -27 -15 -45 -33z"/>
<path d="M5563 8036 c9 -7 17 -18 17 -23 0 -17 -53 -68 -69 -68 -9 0 -16 -6
-16 -13 0 -14 3 -14 45 -6 21 5 30 12 30 25 0 14 7 19 25 19 18 0 25 5 25 18
0 22 -40 62 -61 62 -11 -1 -10 -4 4 -14z"/>
<path d="M6560 8000 c0 -28 4 -58 9 -68 5 -9 14 -29 20 -44 6 -16 15 -28 21
-28 16 0 12 40 -10 103 -11 31 -20 63 -20 72 0 8 -4 15 -10 15 -5 0 -10 -23
-10 -50z"/>
<path d="M6685 8000 c-8 -12 3 -87 16 -112 6 -10 4 -53 -5 -110 -17 -115 -10
-141 28 -103 14 14 29 97 27 146 -6 114 -14 179 -21 179 -5 0 -15 3 -23 6 -8
3 -18 0 -22 -6z"/>
<path d="M3585 7989 c-10 -15 1 -23 20 -15 9 3 13 10 10 16 -8 13 -22 13 -30
-1z"/>
<path d="M2365 7949 c-10 -31 11 -48 30 -23 20 27 19 44 -4 44 -11 0 -23 -9
-26 -21z"/>
<path d="M2925 7960 c-4 -6 5 -10 19 -10 14 0 26 5 26 10 0 6 -9 10 -19 10
-11 0 -23 -4 -26 -10z"/>
<path d="M5231 7944 c-11 -26 -11 -26 16 -19 15 4 47 9 71 12 60 7 48 27 -19
31 -52 3 -56 1 -68 -24z"/>
<path d="M2307 7946 c-4 -10 -5 -21 -2 -24 9 -9 17 6 13 25 -3 17 -4 17 -11
-1z"/>
<path d="M5089 7900 c-8 -6 -5 -11 10 -20 23 -12 51 -7 51 9 0 12 -46 20 -61
11z"/>
<path d="M2281 7868 c0 -20 -5 -40 -11 -43 -17 -10 -11 -25 10 -25 11 0 20 5
20 10 0 6 7 10 15 10 20 0 19 -29 -2 -70 -16 -32 -15 -34 6 -51 20 -17 25 -17
38 -4 18 19 29 19 37 0 8 -21 26 -19 26 3 0 19 -53 47 -70 37 -5 -3 -10 1 -10
9 0 8 5 18 10 21 6 3 10 19 10 35 0 25 -5 31 -32 38 -25 6 -34 15 -39 38 -6
28 -7 27 -8 -8z"/>
<path d="M5695 7890 c-7 -12 2 -30 16 -30 12 0 12 27 0 35 -5 3 -12 1 -16 -5z"/>
<path d="M3895 7869 c-4 -5 -18 -14 -31 -19 -26 -10 -33 -30 -9 -30 19 0 86
46 78 54 -10 10 -31 7 -38 -5z"/>
<path d="M6395 7870 c-3 -5 3 -10 14 -10 12 0 21 5 21 10 0 6 -6 10 -14 10 -8
0 -18 -4 -21 -10z"/>
<path d="M6490 7851 c0 -20 6 -30 20 -34 16 -4 20 -14 20 -44 0 -21 5 -44 12
-51 8 -8 5 -14 -14 -23 -24 -10 -26 -17 -30 -88 -3 -42 -1 -80 4 -85 4 -6 8
-27 8 -48 0 -27 6 -41 20 -50 11 -7 20 -21 20 -30 0 -11 5 -15 15 -12 21 8 19
-6 -10 -60 -14 -26 -25 -56 -25 -66 0 -22 16 -35 25 -20 13 21 25 9 25 -25 0
-42 -22 -55 -50 -30 -11 10 -26 15 -36 11 -24 -9 -35 3 -23 26 8 14 8 23 0 31
-6 6 -11 19 -11 29 0 11 -11 23 -25 28 -14 5 -25 16 -25 23 0 15 -80 91 -87
83 -2 -2 -1 -20 2 -40 6 -28 12 -36 29 -37 11 0 36 -18 55 -40 32 -38 33 -40
17 -64 -20 -30 -20 -45 -2 -45 26 0 69 -45 69 -72 0 -15 4 -25 11 -22 6 2 18
0 26 -6 12 -7 13 -15 3 -40 -16 -41 -8 -58 34 -75 48 -20 52 -19 50 13 -2 24
2 27 31 30 31 3 33 6 28 30 -8 34 -38 92 -48 92 -4 0 -10 -4 -13 -10 -10 -15
-25 -12 -25 6 0 9 9 18 20 21 11 3 20 9 20 14 0 5 7 9 15 9 19 0 19 27 0 64
-20 38 -19 46 5 46 15 0 20 7 20 25 0 14 -4 25 -10 25 -5 0 -10 14 -10 30 0
17 -9 47 -20 67 -11 21 -20 48 -20 61 0 13 -5 32 -11 43 -8 16 -7 25 7 40 14
15 15 21 4 34 -9 11 -11 37 -6 94 6 76 6 78 -19 89 -13 6 -31 27 -39 47 -19
46 -56 50 -56 6z"/>
<path d="M2510 7831 c0 -40 14 -61 30 -45 10 10 -10 84 -22 84 -5 0 -8 -18 -8
-39z"/>
<path d="M2907 7858 c-39 -14 -28 -33 20 -32 53 1 74 10 67 29 -7 17 -45 19
-87 3z"/>
<path d="M5300 7850 c0 -17 7 -20 39 -20 22 0 43 -5 47 -11 3 -6 22 -17 40
-25 19 -8 34 -19 34 -24 0 -6 15 -10 34 -10 24 0 46 10 77 35 29 25 45 33 53
25 14 -14 26 -13 26 4 0 8 -14 17 -32 21 -18 4 -39 12 -45 17 -7 6 -21 7 -30
3 -10 -5 -43 -7 -74 -6 -33 2 -65 -3 -77 -10 -18 -11 -24 -10 -40 4 -26 23
-52 22 -52 -3z"/>
<path d="M6350 7840 c-11 -7 -12 -12 -3 -21 13 -13 33 -4 33 17 0 16 -9 18
-30 4z"/>
<path d="M3710 7830 c0 -5 9 -10 19 -10 11 0 23 5 26 10 4 6 -5 10 -19 10 -14
0 -26 -4 -26 -10z"/>
<path d="M3200 7805 c-7 -8 -18 -15 -25 -15 -14 0 -95 -89 -95 -104 0 -5 -8
-15 -17 -22 -10 -7 -14 -16 -10 -21 5 -4 14 0 21 10 7 9 20 17 28 17 9 0 22
10 31 23 8 12 25 34 38 48 54 58 60 67 51 73 -5 3 -15 -1 -22 -9z"/>
<path d="M3056 7802 c-3 -5 -32 -17 -65 -28 -65 -20 -74 -34 -39 -58 19 -14
24 -14 38 -1 9 8 20 15 24 15 17 0 64 41 69 60 5 20 -16 29 -27 12z"/>
<path d="M6464 7770 c-1 -20 4 -30 13 -30 10 0 13 9 11 27 -4 37 -23 39 -24 3z"/>
<path d="M2570 7775 c0 -8 5 -15 10 -15 6 0 10 7 10 15 0 8 -4 15 -10 15 -5 0
-10 -7 -10 -15z"/>
<path d="M2837 7783 c-4 -3 -8 -20 -8 -37 -1 -17 -3 -23 -6 -13 -5 21 -33 23
-33 2 0 -8 -4 -15 -10 -15 -13 0 -53 -40 -46 -47 2 -3 19 5 36 17 39 28 48 20
27 -25 -9 -20 -17 -42 -17 -50 0 -22 18 -18 25 4 3 11 15 23 25 26 31 10 52
145 22 145 -5 0 -12 -3 -15 -7z"/>
<path d="M2490 7718 c4 -202 4 -215 -3 -270 -7 -57 3 -61 31 -14 28 48 34 201
9 236 -9 14 -17 39 -17 57 0 18 -5 33 -10 33 -6 0 -10 -19 -10 -42z"/>
<path d="M5580 7722 c-32 -25 -42 -27 -127 -28 -99 -1 -122 -7 -80 -23 14 -5
28 -15 32 -20 3 -6 35 -11 71 -11 49 0 68 4 82 18 15 15 30 18 76 14 48 -4 60
-9 74 -31 9 -14 18 -28 20 -31 2 -3 9 3 16 12 7 10 24 22 37 27 l24 10 -23 0
c-35 1 -62 19 -62 41 0 22 -10 26 -27 9 -18 -18 -58 -7 -61 19 -4 28 -9 28
-52 -6z"/>
<path d="M2621 7689 c-18 -24 -20 -34 -11 -42 9 -9 16 -6 31 12 19 23 26 61
11 61 -5 0 -19 -14 -31 -31z"/>
<path d="M2867 7664 c-3 -3 -3 -12 0 -20 4 -10 10 -11 24 -3 10 5 19 14 19 19
0 11 -33 14 -43 4z"/>
<path d="M6787 7663 c-10 -9 -8 -43 2 -43 5 0 14 7 21 15 17 21 -4 48 -23 28z"/>
<path d="M5910 7630 c0 -11 -7 -23 -15 -26 -21 -8 -19 -47 5 -77 11 -14 20
-32 20 -41 0 -23 19 -20 40 6 18 22 19 22 38 4 12 -10 26 -41 32 -68 11 -54
64 -118 83 -99 9 9 58 -39 70 -69 3 -8 6 -1 6 16 1 17 -10 53 -24 80 -14 27
-28 66 -31 87 -7 37 -18 48 -28 25 -9 -24 -36 24 -36 65 0 23 -4 36 -10 32 -5
-3 -10 -15 -10 -26 0 -18 -4 -20 -32 -14 -48 11 -68 23 -68 44 0 18 -28 81
-36 81 -2 0 -4 -9 -4 -20z m200 -230 c0 -25 -18 -36 -26 -16 -8 21 3 49 16 41
5 -3 10 -15 10 -25z"/>
<path d="M2957 7633 c-4 -3 -7 -14 -7 -23 0 -16 -25 -47 -64 -78 -9 -7 -16
-25 -16 -40 0 -16 -4 -32 -9 -37 -13 -14 -25 -85 -15 -85 16 0 74 78 74 98 0
11 9 30 19 44 11 13 23 38 27 54 4 16 11 34 16 41 16 20 -8 44 -25 26z"/>
<path d="M5800 7600 c-18 -16 -40 -30 -49 -31 -11 0 -12 -2 -3 -6 17 -7 73 21
94 46 28 33 -4 26 -42 -9z"/>
<path d="M4105 7520 c-4 -6 -3 -16 3 -22 6 -6 12 -6 17 2 4 6 3 16 -3 22 -6 6
-12 6 -17 -2z"/>
<path d="M6396 7482 c-7 -12 23 -95 37 -104 27 -17 39 -9 32 24 -14 63 -52
107 -69 80z"/>
<path d="M2744 7422 c-12 -8 -46 -73 -41 -79 7 -7 87 69 81 78 -6 11 -25 11
-40 1z"/>
<path d="M2225 7391 c3 -18 5 -37 5 -42 0 -5 7 -9 15 -9 8 0 15 9 15 20 0 11
-4 20 -8 20 -5 0 -14 10 -21 23 -10 20 -11 19 -6 -12z"/>
<path d="M2410 7383 c-1 -104 -6 -132 -27 -155 -17 -19 -20 -30 -14 -58 l7
-34 13 34 c7 19 22 51 32 71 10 20 19 52 19 71 0 19 6 43 14 54 13 17 12 21
-1 37 -26 28 -43 21 -43 -20z"/>
<path d="M5884 7366 c-19 -29 -15 -71 6 -71 8 0 14 7 12 17 -1 9 2 19 8 23 13
8 13 55 0 55 -5 0 -17 -11 -26 -24z"/>
<path d="M2332 7309 c9 -33 13 -38 20 -25 13 24 6 60 -14 64 -14 3 -15 -2 -6
-39z"/>
<path d="M2800 7343 c-8 -3 -34 -21 -58 -40 -41 -33 -53 -52 -102 -153 -12
-25 -33 -54 -46 -65 -14 -11 -26 -30 -29 -42 -2 -12 -8 -30 -13 -40 -5 -10
-12 -38 -16 -62 -4 -24 -10 -49 -13 -55 -4 -6 -7 -43 -8 -83 0 -79 -13 -105
-40 -83 -8 7 -15 11 -16 9 0 -2 -2 -48 -4 -101 -2 -69 1 -98 9 -101 12 -5 39
-67 50 -119 19 -83 58 24 61 167 2 61 8 126 14 145 6 19 11 77 11 128 0 85 2
94 20 99 13 4 20 14 20 30 0 35 16 60 42 66 14 4 29 20 37 39 8 18 16 36 19
41 2 4 -6 7 -18 7 -19 0 -21 4 -16 28 4 15 14 32 22 38 7 6 14 16 14 22 0 5
20 31 45 56 55 57 61 86 15 69z m-112 -224 c-2 -6 -8 -10 -13 -10 -5 0 -11 4
-13 10 -2 6 4 11 13 11 9 0 15 -5 13 -11z m-180 -463 c2 -10 1 -34 -3 -54 l-7
-37 -15 43 c-15 46 -11 76 10 70 6 -3 14 -13 15 -22z"/>
<path d="M5961 7331 c-8 -5 -10 -14 -6 -21 5 -8 -1 -20 -16 -31 -21 -16 -22
-18 -6 -24 9 -4 17 -16 17 -28 0 -11 11 -43 24 -71 13 -28 30 -71 37 -96 7
-25 19 -54 26 -65 7 -11 13 -29 13 -42 0 -12 4 -24 9 -27 5 -3 11 -20 14 -38
3 -18 10 -51 17 -73 30 -104 61 -308 67 -435 7 -170 20 -306 31 -327 7 -12 12
-63 12 -117 0 -52 3 -97 8 -100 11 -6 6 -413 -7 -518 -5 -48 -14 -96 -20 -106
-5 -10 -6 -24 0 -34 6 -10 2 -35 -11 -73 -11 -32 -20 -72 -20 -89 0 -65 -13
-109 -32 -114 -12 -3 -17 -10 -13 -20 3 -8 -2 -23 -11 -33 -9 -10 -14 -22 -11
-26 14 -23 -35 -164 -71 -205 -10 -12 -13 -29 -9 -51 4 -26 1 -38 -14 -50 -10
-9 -19 -28 -19 -42 0 -16 -6 -25 -15 -25 -11 0 -15 -11 -15 -40 0 -29 -5 -42
-20 -50 -11 -6 -20 -17 -20 -26 0 -8 -11 -26 -24 -39 -14 -13 -27 -33 -31 -44
-3 -10 -12 -22 -20 -25 -18 -7 -19 -30 -3 -56 11 -16 9 -26 -7 -56 -11 -21
-28 -39 -37 -42 -13 -3 -16 -11 -11 -33 4 -23 -2 -38 -30 -73 -121 -147 -313
-298 -512 -402 -241 -126 -304 -151 -460 -181 -188 -37 -347 -38 -461 -2 -17
5 -53 9 -82 9 -28 0 -54 5 -58 11 -5 8 6 10 37 7 67 -7 493 12 503 23 6 5 25
9 43 9 31 0 132 29 171 49 9 5 37 17 62 27 25 9 56 29 69 43 l24 26 -21 3
c-12 2 -34 -6 -49 -17 -20 -16 -34 -20 -60 -15 -18 3 -33 2 -33 -3 0 -15 -68
-43 -105 -43 -18 0 -36 -4 -39 -9 -25 -40 -586 -49 -630 -9 -6 4 -29 8 -52 8
-25 0 -47 6 -54 15 -7 9 -29 15 -51 15 -25 0 -44 7 -57 20 -17 19 -112 45
-112 31 0 -5 40 -32 80 -53 73 -39 107 -77 59 -65 -50 12 -113 39 -189 82 -44
25 -84 45 -89 45 -6 0 -26 13 -44 30 -19 16 -39 30 -44 30 -5 0 -39 20 -76 45
-37 25 -71 45 -76 45 -4 0 -16 9 -26 20 -10 11 -22 20 -27 20 -9 0 -101 61
-128 85 -87 76 -156 146 -174 175 -28 45 -49 111 -50 158 -1 20 -5 40 -9 43
-9 6 -35 53 -66 115 -12 23 -28 44 -36 48 -19 7 -19 30 0 46 19 16 20 50 1 50
-7 0 -17 -10 -20 -22 -6 -21 -9 -18 -32 25 -13 26 -29 47 -34 47 -6 0 -10 7
-10 16 0 25 24 11 39 -24 8 -18 18 -32 23 -32 15 0 8 50 -7 56 -8 4 -15 14
-15 23 0 9 -8 21 -19 28 -12 7 -21 29 -25 62 -4 27 -24 86 -46 130 -22 45 -40
92 -40 105 0 13 -7 29 -15 36 -8 7 -15 21 -15 31 0 10 -4 20 -9 23 -5 3 -14
28 -21 56 -13 56 -24 67 -45 50 -10 -8 -15 -31 -15 -67 0 -79 -19 -109 -82
-128 -59 -17 -117 -11 -125 14 -12 40 -29 64 -50 72 -26 10 -30 31 -8 49 8 7
15 20 15 29 0 10 11 28 25 41 14 13 25 31 25 41 0 24 -25 42 -49 34 -26 -8
-37 12 -17 34 21 23 20 30 -9 61 -45 47 -78 153 -83 263 -2 71 0 103 10 114 8
11 13 48 14 110 0 51 4 96 7 100 4 3 7 18 6 32 l0 26 -11 -25 c-5 -14 -14 -33
-19 -42 -5 -10 -9 -37 -9 -60 0 -24 -5 -60 -11 -81 -9 -33 -13 -36 -36 -31
-26 7 -26 7 -19 -40 6 -37 4 -46 -8 -46 -23 0 -31 56 -11 86 18 28 14 67 -13
119 -10 20 -14 54 -13 108 1 49 -2 84 -10 93 -9 11 -9 21 -1 39 21 45 43 33
125 -68 32 -40 43 -47 72 -47 19 0 35 3 35 6 0 3 -33 38 -72 77 -66 66 -85 89
-104 125 -3 7 2 22 12 33 19 21 73 53 79 47 2 -2 -1 -29 -6 -62 -7 -41 -6 -62
2 -72 17 -20 27 -17 31 9 2 17 9 21 27 19 23 -2 23 -1 17 48 -7 50 -6 51 14
40 26 -14 34 -8 35 27 0 14 6 28 13 30 7 3 12 -5 12 -21 0 -15 6 -26 13 -26
10 0 12 27 10 122 -2 67 -5 123 -8 126 -2 3 -11 -1 -20 -8 -11 -9 -18 -10 -29
-1 -8 6 -20 10 -27 9 -9 -2 -14 6 -14 22 0 14 -6 35 -13 48 -11 19 -16 21 -28
11 -18 -15 -32 -3 -16 13 7 7 12 25 12 40 0 16 7 42 15 57 8 16 17 47 21 70 4
23 11 44 15 47 17 10 9 24 -15 24 -17 0 -26 7 -30 25 -4 17 -13 25 -29 25 -31
0 -47 -31 -40 -76 9 -53 -12 -36 -22 18 -5 24 -7 58 -6 75 2 20 -4 39 -13 49
-15 14 -14 18 10 49 14 18 32 36 40 39 18 7 18 36 0 61 -9 13 -11 28 -5 47 4
15 4 30 -1 33 -14 9 -32 -24 -27 -47 8 -29 -8 -57 -22 -43 -14 14 -17 88 -7
148 8 46 8 47 -18 47 -14 0 -26 -4 -26 -9 0 -6 -15 -11 -32 -13 -30 -3 -33 -7
-40 -47 -5 -32 -3 -49 7 -64 8 -12 15 -32 15 -44 0 -18 6 -23 25 -23 23 0 25
-4 25 -42 0 -25 -8 -57 -19 -75 -17 -27 -18 -33 -5 -44 10 -8 12 -22 8 -46 -5
-26 -2 -39 14 -56 11 -12 24 -38 30 -57 32 -108 42 -150 42 -181 1 -19 7 -45
15 -59 8 -14 15 -38 15 -55 0 -33 34 -115 47 -115 12 1 38 23 52 45 12 19 12
18 7 -5 -3 -14 -6 -35 -6 -46 0 -13 -8 -24 -21 -27 -11 -3 -23 -14 -26 -25 -4
-17 -9 -18 -48 -9 -36 8 -48 7 -69 -7 -14 -9 -26 -25 -26 -35 0 -10 -7 -24
-15 -31 -33 -27 -48 -117 -47 -286 0 -129 3 -169 16 -195 9 -18 16 -41 16 -52
0 -28 37 -144 70 -219 52 -122 80 -243 85 -373 1 -27 3 -59 4 -71 4 -56 109
-164 160 -164 30 0 99 39 138 77 19 20 45 35 61 36 23 2 27 -2 30 -28 1 -16 7
-39 12 -50 4 -11 11 -31 13 -45 6 -29 24 -81 43 -125 7 -16 16 -41 19 -55 8
-31 30 -84 55 -130 10 -19 42 -82 71 -140 29 -58 56 -112 60 -120 35 -62 49
-97 49 -118 0 -13 6 -36 14 -50 23 -44 37 -174 46 -412 7 -203 13 -485 10
-534 -2 -27 5 -29 34 -11 21 14 26 25 26 61 0 30 5 46 14 50 12 5 15 32 15
134 1 74 -4 132 -9 135 -15 10 -12 46 6 67 16 16 15 18 0 24 -15 6 -16 16 -10
71 5 51 3 67 -9 81 -17 19 -44 158 -33 169 3 4 12 -1 19 -9 6 -9 21 -18 32
-20 12 -2 24 -15 29 -35 9 -28 13 -31 38 -26 23 4 33 1 44 -16 9 -12 30 -27
47 -35 18 -7 52 -32 76 -55 24 -22 48 -41 52 -41 5 0 25 -18 45 -40 21 -22 45
-40 54 -40 9 0 45 -20 80 -45 35 -25 74 -45 85 -45 12 0 40 -13 62 -29 43 -31
154 -79 213 -92 19 -4 58 -14 85 -22 107 -31 348 -62 460 -60 136 3 356 42
477 84 106 37 352 160 389 195 14 13 29 24 34 24 4 0 42 26 82 58 41 31 87 66
103 78 16 12 43 33 60 48 41 34 51 33 50 -6 0 -18 1 -41 2 -50 2 -25 -23 -99
-45 -131 -15 -22 -16 -28 -4 -33 10 -4 16 -32 21 -105 4 -55 12 -111 18 -124
13 -30 4 -57 -17 -49 -8 3 -15 1 -15 -5 0 -6 9 -11 20 -11 11 0 20 -7 20 -15
0 -9 11 -21 25 -27 14 -6 25 -18 25 -26 0 -29 24 -82 37 -82 7 0 13 7 13 15 0
18 9 19 33 1 22 -17 22 -26 -2 -26 -24 0 -32 -12 -21 -30 7 -11 13 -10 35 4
26 17 28 17 54 -8 18 -17 34 -24 44 -20 32 12 23 25 -84 120 -53 46 -84 117
-98 222 -26 187 8 574 55 633 34 43 182 353 228 479 16 41 32 82 37 90 10 17
11 18 32 85 9 28 19 70 23 95 17 120 49 156 96 108 13 -13 46 -31 73 -40 72
-25 112 -11 153 53 29 44 32 55 32 131 1 53 6 92 15 108 8 14 14 47 15 74 0
52 5 73 53 201 16 44 31 94 34 110 3 17 10 36 15 42 6 7 11 41 12 75 1 46 6
68 19 81 17 17 18 31 11 150 -3 73 -13 147 -20 166 -8 18 -14 52 -14 75 -1 49
-44 131 -83 154 -35 21 -45 8 -21 -26 11 -15 23 -35 27 -44 3 -10 11 -18 17
-18 18 0 10 -29 -10 -35 -11 -3 -20 -11 -20 -16 0 -5 -36 -46 -80 -91 -44 -45
-80 -86 -80 -91 0 -5 6 -4 14 2 7 6 26 8 43 5 24 -5 33 -1 46 19 23 36 57 69
95 96 l34 24 -7 -49 c-4 -27 -10 -60 -15 -74 -5 -14 -9 -36 -10 -50 -1 -54 -9
-147 -15 -182 -5 -26 -12 -38 -24 -38 -18 0 -42 61 -63 165 l-12 60 -7 -45
c-7 -46 4 -115 21 -125 6 -3 10 -23 10 -44 0 -22 6 -44 15 -51 12 -10 15 -32
14 -89 -1 -80 -21 -149 -78 -274 -17 -38 -31 -79 -31 -91 0 -12 -16 -37 -35
-56 -31 -30 -38 -33 -55 -22 -11 6 -24 12 -30 12 -17 0 -11 -36 10 -55 18 -16
23 -17 46 -5 20 11 29 12 42 2 9 -7 25 -15 35 -18 9 -4 17 -13 17 -20 0 -30
-25 -94 -37 -94 -7 0 -17 -9 -23 -20 -9 -17 -21 -20 -79 -20 -63 0 -70 2 -86
26 -19 29 -22 123 -6 168 6 15 11 48 11 74 0 35 6 55 24 77 22 27 23 32 10 57
-12 23 -11 31 6 70 14 30 20 65 20 118 0 41 5 91 10 110 20 68 30 152 20 170
-7 13 -5 22 6 31 11 9 14 22 9 43 -3 17 -8 47 -11 66 -3 21 -17 45 -34 60 -35
31 -51 96 -26 106 14 5 14 9 1 35 -16 29 -23 91 -14 119 2 9 -4 16 -18 18 -13
2 -23 5 -23 7 0 2 7 31 16 64 8 34 12 67 7 74 -4 6 -8 60 -9 119 -1 76 -5 112
-15 124 -10 13 -14 49 -14 136 0 97 -3 122 -16 131 -19 15 -49 74 -49 97 0 10
7 20 15 24 23 8 18 28 -5 21 -24 -8 -30 4 -39 78 -5 43 -10 53 -28 55 -18 3
-22 -2 -25 -30 -2 -18 -7 -32 -13 -30 -6 1 -9 32 -7 75 3 67 1 74 -25 105 -20
23 -32 30 -42 23z m327 -1467 c-5 -28 -28 -29 -28 -1 0 13 3 27 7 30 10 11 25
-9 21 -29z m352 -69 c0 -25 -14 -34 -24 -16 -8 12 3 41 15 41 5 0 9 -11 9 -25z
m-4490 -45 c0 -16 -4 -30 -10 -30 -5 0 -10 14 -10 30 0 17 5 30 10 30 6 0 10
-13 10 -30z m4460 -130 c0 -16 -4 -30 -10 -30 -11 0 -14 43 -3 53 11 12 13 8
13 -23z m-4280 -500 c0 -11 -4 -20 -10 -20 -5 0 -10 9 -10 20 0 11 5 20 10 20
6 0 10 -9 10 -20z m1799 -1684 c14 -17 -1 -25 -36 -18 -37 7 -28 22 18 31 4 0
12 -5 18 -13z"/>
<path d="M6507 7334 c-8 -8 3 -34 14 -34 11 0 12 27 0 34 -4 3 -11 3 -14 0z"/>
<path d="M2276 7323 c-13 -13 -6 -63 9 -63 10 0 15 10 15 29 0 30 -12 46 -24
34z"/>
<path d="M2482 7258 c-15 -15 -16 -38 -2 -38 12 0 23 25 18 40 -2 7 -7 7 -16
-2z"/>
<path d="M6270 7215 c0 -19 5 -44 12 -55 10 -15 9 -22 -5 -38 -19 -20 -23 -67
-7 -77 6 -3 15 6 21 22 5 15 15 31 21 35 14 8 21 98 7 98 -5 0 -15 11 -21 25
-16 35 -28 31 -28 -10z"/>
<path d="M6385 7099 c-8 -23 -1 -34 14 -24 13 8 15 45 2 45 -5 0 -13 -9 -16
-21z"/>
<path d="M4380 7060 c0 -13 5 -20 13 -17 6 2 12 10 12 17 0 7 -6 15 -12 18 -8
2 -13 -5 -13 -18z"/>
<path d="M4200 7030 c0 -5 9 -10 20 -10 11 0 20 5 20 10 0 6 -9 10 -20 10 -11
0 -20 -4 -20 -10z"/>
<path d="M2270 6976 c0 -14 4 -27 9 -31 12 -7 25 31 16 45 -11 18 -25 10 -25
-14z"/>
<path d="M6473 6964 c-6 -15 30 -99 45 -106 17 -7 50 -85 42 -99 -7 -11 -12
-10 -28 4 -10 9 -24 17 -30 17 -17 0 -24 -37 -11 -61 6 -12 9 -38 5 -58 -4
-27 -1 -40 15 -58 l21 -22 -20 -26 c-11 -14 -23 -43 -27 -64 -4 -22 -15 -47
-26 -57 -12 -11 -19 -30 -19 -56 0 -53 31 -68 81 -41 43 24 58 74 42 136 -9
33 -9 45 2 57 7 8 17 33 20 55 4 22 14 53 22 69 8 16 12 39 8 53 -3 14 -1 31
6 39 9 11 9 21 0 40 -15 33 -16 32 24 48 24 11 35 21 35 36 0 27 -17 60 -31
60 -6 0 -7 -5 -4 -10 10 -16 -48 0 -62 17 -9 12 -13 11 -27 -9 -13 -18 -16
-19 -16 -5 0 19 -34 57 -50 57 -6 0 -13 -7 -17 -16z m45 -511 c-4 -22 -22 -20
-26 1 -2 10 3 16 13 16 10 0 15 -7 13 -17z"/>
<path d="M4936 6936 c-37 -15 -46 -23 -46 -43 0 -20 4 -24 18 -18 66 27 72 5
21 -70 -22 -31 -38 -59 -35 -62 8 -8 76 65 76 82 0 8 4 15 10 15 5 0 16 12 24
28 l14 27 11 -28 c6 -15 19 -37 30 -48 l19 -20 35 24 c37 25 38 37 5 37 -24 0
-23 15 3 52 12 16 18 32 14 36 -15 15 -154 7 -199 -12z"/>
<path d="M5665 6941 c-3 -5 3 -12 13 -15 11 -4 31 -20 46 -36 14 -17 31 -30
36 -30 19 0 -14 51 -45 70 -37 23 -42 24 -50 11z"/>
<path d="M6264 6926 c-4 -10 -2 -22 4 -28 8 -8 13 -7 18 6 4 10 2 22 -4 28 -8
8 -13 7 -18 -6z"/>
<path d="M2964 6835 c-100 -98 -124 -136 -124 -196 0 -9 -7 -34 -16 -54 -12
-29 -13 -40 -4 -45 19 -12 99 32 102 55 4 26 34 31 40 7 4 -15 12 -19 32 -15
14 3 26 10 26 16 0 6 17 7 45 3 41 -5 47 -3 54 16 5 14 10 17 15 10 13 -21 25
-13 41 24 12 30 19 35 42 33 16 -1 40 3 55 9 16 6 41 9 58 6 35 -7 40 8 14 44
-18 26 -32 27 -70 7 -16 -8 -45 -15 -65 -15 -41 0 -109 -25 -109 -40 0 -6 -20
-20 -45 -32 -25 -12 -45 -26 -45 -30 0 -4 -9 -8 -20 -8 -11 0 -20 4 -20 8 0
11 36 49 52 55 10 3 10 7 1 17 -10 11 -9 16 5 26 15 12 15 15 2 24 -8 5 -19
11 -23 13 -11 4 25 67 38 67 19 0 35 -23 35 -52 0 -32 0 -32 110 -14 47 7 68
14 58 19 -21 8 -24 37 -5 37 8 0 22 -9 32 -20 13 -14 31 -20 62 -20 36 0 45
-4 54 -24 20 -43 91 -66 219 -71 63 -2 127 -7 142 -11 19 -4 36 -1 54 11 22
14 25 22 19 48 -3 18 -9 49 -12 70 -6 45 -46 77 -95 77 -19 0 -38 4 -44 9 -15
15 -81 24 -88 12 -4 -6 1 -14 11 -18 10 -4 35 -17 56 -30 21 -13 46 -22 55
-19 25 7 71 -35 78 -72 7 -36 -8 -43 -42 -17 -10 8 -25 15 -32 15 -8 0 -25 9
-39 20 -27 21 -68 27 -78 10 -3 -5 -19 -7 -35 -3 -22 4 -30 2 -30 -8 0 -24
-39 -42 -69 -31 -14 6 -34 13 -44 16 -15 5 -16 9 -7 26 8 15 17 19 35 14 15
-4 25 -2 25 5 0 6 11 11 25 11 29 0 31 7 7 38 -15 19 -22 21 -47 13 -17 -5
-50 -14 -75 -22 -25 -7 -49 -16 -55 -21 -16 -14 -35 -9 -35 11 0 11 3 21 8 24
4 2 0 2 -8 -1 -8 -3 -27 -7 -42 -10 -16 -2 -28 -11 -28 -18 0 -16 -26 -19 -35
-5 -3 5 4 12 15 16 22 7 28 45 6 45 -7 0 -26 -10 -41 -21 -19 -16 -26 -28 -22
-45 6 -31 -14 -31 -47 -1 -16 15 -26 36 -28 62 l-3 40 -101 -100z"/>
<path d="M5205 6918 c-21 -12 -46 -41 -40 -46 2 -2 18 4 36 13 30 16 34 16 44
1 11 -14 14 -14 29 3 16 17 16 19 -1 24 -10 2 -25 7 -33 11 -8 3 -24 0 -35 -6z"/>
<path d="M5310 6925 c0 -15 46 -65 60 -65 9 0 25 -6 35 -14 18 -13 17 -14 -13
-30 -41 -21 -131 -21 -146 0 -9 12 -21 14 -49 9 -20 -4 -37 -11 -37 -16 0 -13
-53 -59 -69 -59 -8 0 -29 11 -46 25 -32 23 -33 24 -38 5 -3 -11 -19 -28 -35
-37 -30 -17 -57 -51 -49 -60 3 -2 20 3 39 13 23 13 62 19 133 21 205 6 295 26
312 69 9 24 80 18 117 -11 18 -14 39 -25 47 -25 8 -1 55 -18 104 -39 60 -25
93 -45 100 -59 6 -14 19 -22 35 -22 14 0 43 -12 65 -25 22 -14 44 -25 48 -25
11 0 1 109 -13 145 -22 58 -130 140 -130 98 0 -19 -32 -73 -42 -73 -5 0 -13
11 -17 24 -5 13 -19 26 -30 29 -15 3 -21 13 -21 31 0 19 -5 26 -20 26 -11 0
-20 -4 -20 -10 0 -5 -9 -10 -20 -10 -11 0 -20 3 -20 8 0 4 -26 21 -57 39 -46
24 -75 32 -140 38 -46 3 -83 4 -83 0z"/>
<path d="M4787 6897 c-20 -31 -31 -84 -18 -92 6 -3 14 1 17 9 12 32 34 17 34
-23 0 -22 4 -43 10 -46 15 -9 24 46 12 77 -6 16 -8 44 -5 63 5 30 3 35 -15 35
-11 0 -26 -10 -35 -23z"/>
<path d="M3875 6888 c14 -45 17 -86 6 -92 -14 -9 -14 -36 -1 -36 6 0 10 7 10
15 0 31 18 13 24 -24 8 -53 22 -59 42 -18 15 32 15 38 -1 81 -26 67 -100 135
-80 74z"/>
<path d="M4674 6846 c-7 -20 2 -46 16 -46 13 0 13 47 0 55 -6 3 -13 -1 -16 -9z"/>
<path d="M6300 6840 c0 -5 10 -20 22 -32 21 -21 23 -21 26 -5 2 10 -2 24 -8
32 -14 17 -40 20 -40 5z"/>
<path d="M4705 6757 c-8 -30 -1 -57 15 -57 12 0 13 50 1 69 -8 12 -11 9 -16
-12z"/>
<path d="M6380 6738 c0 -18 47 -60 54 -49 7 11 -4 43 -18 53 -17 12 -36 9 -36
-4z"/>
<path d="M4816 6703 c-11 -11 -6 -23 9 -23 8 0 15 4 15 9 0 13 -16 22 -24 14z"/>
<path d="M6297 6623 c3 -48 7 -90 9 -92 10 -12 24 61 22 113 -2 47 -7 62 -19
64 -15 3 -16 -7 -12 -85z"/>
<path d="M5180 6640 c-11 -7 4 -10 50 -10 46 0 61 3 50 10 -8 5 -31 10 -50 10
-19 0 -42 -5 -50 -10z"/>
<path d="M4727 6614 c-13 -13 -7 -24 14 -24 11 0 19 5 17 12 -5 14 -22 21 -31
12z"/>
<path d="M6406 6585 c-6 -30 -3 -40 16 -60 23 -25 48 -33 48 -15 0 5 -6 13
-14 17 -8 4 -16 26 -18 47 -4 51 -24 57 -32 11z"/>
<path d="M3982 6574 c1 -9 9 -19 16 -22 9 -3 13 2 10 14 -1 9 -9 19 -16 22 -9
3 -13 -2 -10 -14z"/>
<path d="M3770 6490 c0 -5 7 -10 15 -10 8 0 15 5 15 10 0 6 -7 10 -15 10 -8 0
-15 -4 -15 -10z"/>
<path d="M5555 6490 c4 -6 29 -23 57 -38 28 -15 61 -33 75 -40 29 -17 46 -12
30 8 -33 41 -97 80 -132 80 -22 0 -34 -4 -30 -10z"/>
<path d="M3400 6475 c-7 -8 -25 -15 -40 -15 -15 0 -41 -7 -56 -15 -16 -8 -42
-15 -57 -15 -17 0 -30 -7 -34 -17 -9 -23 -23 -33 -50 -33 -16 0 -25 -8 -29
-25 -3 -13 -15 -27 -25 -30 -45 -15 -119 -106 -119 -148 0 -10 65 -5 92 7 13
6 20 3 24 -10 4 -11 20 -31 36 -46 19 -18 28 -37 28 -57 0 -17 5 -31 10 -31 6
0 10 9 10 20 0 13 10 24 27 31 26 10 36 4 46 -25 2 -5 17 -4 37 2 18 7 48 12
65 12 18 0 38 7 46 16 12 14 14 14 26 -2 7 -10 13 -28 13 -41 0 -13 5 -23 10
-23 6 0 10 15 10 34 0 19 5 38 10 41 23 14 7 25 -37 24 -102 0 -242 26 -300
58 -37 20 -40 29 -19 59 26 36 152 134 174 134 18 0 20 -6 19 -61 -2 -56 1
-63 28 -88 46 -41 105 -57 157 -42 82 23 118 70 118 153 0 31 4 60 10 63 5 3
26 -4 47 -15 107 -59 153 -94 153 -116 0 -22 -57 -61 -102 -68 -23 -4 -52 -13
-63 -20 -11 -7 -32 -16 -47 -20 -16 -3 -28 -11 -28 -16 0 -6 12 -10 28 -10 27
0 147 30 192 47 14 6 46 13 71 17 42 6 48 5 63 -19 21 -32 36 -32 36 0 0 34
-138 174 -206 208 -27 14 -56 33 -63 41 -8 10 -29 16 -53 16 -22 0 -48 5 -58
10 -11 6 -51 12 -89 13 -39 2 -73 6 -77 10 -11 11 -20 9 -34 -8z m119 -99 c14
-17 -1 -64 -24 -72 -25 -10 -65 5 -65 24 0 48 62 81 89 48z"/>
<path d="M4965 6459 c-4 -6 -4 -13 -1 -16 8 -8 36 5 36 17 0 13 -27 13 -35 -1z"/>
<path d="M5275 6460 c-33 -5 -64 -6 -69 -3 -9 6 -79 -13 -116 -32 -14 -7 -36
-15 -50 -18 -69 -17 -210 -140 -210 -184 0 -17 8 -23 43 -28 23 -4 74 -18 114
-31 73 -24 153 -32 153 -14 0 5 -12 13 -27 16 -16 4 -34 11 -41 17 -7 6 -36
14 -64 18 -28 5 -59 16 -69 25 -10 9 -25 14 -33 11 -9 -4 -18 -2 -20 2 -7 10
28 40 74 65 19 10 44 26 55 36 37 31 98 61 113 55 11 -4 13 -16 8 -51 -9 -66
20 -116 84 -149 27 -14 61 -25 76 -25 41 0 107 37 132 75 20 28 22 41 17 79
-6 36 -4 47 8 52 22 8 173 -110 182 -143 3 -14 5 -26 3 -27 -2 -1 -14 -9 -28
-17 -38 -24 -127 -49 -200 -57 -77 -8 -84 -21 -39 -75 31 -37 55 -41 44 -7 -9
27 24 42 66 30 25 -7 37 -6 49 5 25 23 39 18 57 -20 18 -38 33 -44 53 -20 14
17 5 35 -16 35 -26 0 -12 43 19 58 15 7 27 20 27 28 0 12 10 13 50 8 40 -5 51
-4 56 9 11 28 -37 98 -86 124 -25 14 -61 37 -80 52 -51 39 -88 61 -102 61 -7
0 -35 12 -63 25 -52 26 -71 27 -170 15z m33 -132 c3 -35 1 -38 -22 -38 -24 0
-56 23 -56 40 0 28 14 41 44 38 28 -3 31 -7 34 -40z m62 22 c8 -15 8 -20 -3
-20 -14 0 -37 19 -37 32 0 16 30 7 40 -12z"/>
<path d="M6417 6463 c-12 -11 -8 -23 8 -23 8 0 15 7 15 15 0 16 -12 20 -23 8z"/>
<path d="M4100 6436 c0 -8 -6 -21 -14 -29 -13 -12 -12 -16 9 -27 20 -11 27
-11 40 0 24 20 15 64 -12 68 -15 2 -23 -2 -23 -12z"/>
<path d="M6330 6410 c0 -35 10 -38 34 -11 21 23 14 41 -15 41 -14 0 -19 -7
-19 -30z"/>
<path d="M3045 6400 c-3 -5 3 -10 14 -10 12 0 21 5 21 10 0 6 -6 10 -14 10 -8
0 -18 -4 -21 -10z"/>
<path d="M6375 6360 c-3 -5 -3 -32 1 -61 6 -46 5 -53 -20 -75 -19 -19 -26 -35
-26 -64 0 -21 -4 -41 -9 -44 -13 -9 -19 -86 -6 -86 18 0 35 23 35 47 0 13 8
26 18 30 44 17 72 47 72 78 0 22 9 40 30 60 38 37 38 45 -4 45 -30 0 -36 4
-50 40 -16 39 -29 49 -41 30z"/>
<path d="M2533 6313 c-4 -10 -7 -48 -7 -85 -1 -58 -4 -68 -19 -68 -29 0 -33
-30 -7 -50 24 -18 22 -48 -5 -70 -8 -7 -15 -23 -15 -36 0 -33 -18 -30 -26 4
-9 39 -33 113 -43 130 -7 12 -11 7 -16 -19 -4 -19 -12 -40 -17 -46 -7 -9 -3
-22 14 -45 62 -81 90 -186 60 -221 -12 -14 -13 -21 -3 -40 7 -12 20 -37 30
-56 10 -19 25 -39 33 -45 21 -16 28 -41 19 -73 -5 -18 -13 -27 -24 -25 -12 2
-17 -4 -17 -18 0 -16 5 -20 18 -16 15 5 21 -2 30 -31 12 -42 6 -86 -11 -80 -7
2 -14 14 -17 28 -3 13 -14 25 -23 27 -27 5 -21 -39 11 -81 31 -42 38 -44 47
-17 7 21 35 28 35 8 0 -7 -12 -29 -26 -50 -27 -38 -27 -68 1 -68 9 0 15 9 15
25 0 17 8 29 25 37 33 15 33 59 1 121 -14 25 -21 48 -18 52 12 11 11 188 0
209 -11 20 -12 139 -5 471 2 66 1 126 -1 133 -6 18 -32 15 -39 -5z m7 -340 c0
-42 -13 -63 -36 -63 -45 0 -22 79 24 80 6 0 12 -8 12 -17z"/>
<path d="M4586 6222 c-9 -15 2 -72 15 -72 10 0 10 23 0 60 -5 17 -9 21 -15 12z"/>
<path d="M4805 6187 c-4 -10 -5 -21 -1 -24 10 -10 18 4 13 24 -4 17 -4 17 -12
0z"/>
<path d="M3568 6135 c-3 -6 -6 -27 -6 -47 -1 -32 2 -38 19 -38 16 0 19 4 14
18 -4 9 -10 30 -14 47 -4 16 -9 25 -13 20z"/>
<path d="M4252 6117 c-16 -20 -24 -55 -13 -61 13 -9 41 21 41 44 0 24 -15 33
-28 17z"/>
<path d="M5277 6110 c-3 -8 -7 -30 -10 -47 -4 -40 19 -46 29 -7 7 29 -10 79
-19 54z"/>
<path d="M5125 6070 c-9 -15 4 -30 20 -23 8 3 15 9 15 13 0 12 -29 20 -35 10z"/>
<path d="M4616 5731 c-8 -13 11 -51 25 -51 6 0 8 9 4 23 -10 30 -21 41 -29 28z"/>
<path d="M4013 5558 c-67 -68 -91 -125 -99 -236 -7 -96 1 -126 49 -170 31 -29
90 -50 123 -44 20 4 23 8 18 29 -17 67 83 55 185 -21 22 -16 42 -24 53 -20 11
3 26 0 35 -8 15 -11 16 -10 10 12 -4 14 -7 33 -7 44 0 15 -5 17 -27 13 -34 -6
-68 11 -112 57 -47 48 -76 47 -132 -5 -52 -49 -77 -47 -128 9 -32 36 -33 40
-29 102 6 80 35 150 71 169 25 13 29 13 42 -5 8 -10 15 -35 16 -54 1 -34 2
-34 11 10 18 89 7 169 -22 170 -3 0 -29 -24 -57 -52z"/>
<path d="M4694 5555 c-7 -16 1 -83 11 -93 10 -11 17 7 18 54 2 47 -17 72 -29
39z"/>
<path d="M4815 5538 c4 -13 19 -43 33 -68 44 -74 51 -97 54 -168 1 -51 -3 -74
-16 -95 -29 -43 -52 -42 -140 3 -68 35 -87 41 -132 39 -34 -2 -59 2 -70 12
-15 12 -16 11 -10 -18 6 -26 3 -34 -21 -52 -46 -34 -63 -54 -63 -73 0 -11 7
-18 19 -18 13 0 24 14 35 45 20 51 32 54 97 29 34 -14 46 -15 78 -4 41 13 63
9 99 -18 20 -15 22 -22 13 -45 -13 -34 -1 -35 56 -4 62 33 96 88 101 165 5 67
-19 183 -43 212 -7 8 -16 24 -19 36 -6 19 -43 44 -67 44 -6 0 -8 -9 -4 -22z"/>
<path d="M6370 5341 c0 -4 11 -6 25 -3 14 2 25 6 25 8 0 2 -11 4 -25 4 -14 0
-25 -4 -25 -9z"/>
<path d="M2400 5322 c0 -13 25 -22 62 -22 19 0 28 4 26 13 -5 14 -88 23 -88 9z"/>
<path d="M4570 5314 c0 -9 7 -14 17 -12 25 5 28 28 4 28 -12 0 -21 -6 -21 -16z"/>
<path d="M6314 5306 c-22 -17 -11 -35 13 -20 19 12 29 34 16 34 -5 0 -18 -6
-29 -14z"/>
<path d="M4186 5303 c-11 -11 -6 -23 9 -23 8 0 15 4 15 9 0 13 -16 22 -24 14z"/>
<path d="M2627 5276 c-7 -19 18 -42 28 -26 8 13 -1 40 -14 40 -5 0 -11 -6 -14
-14z"/>
<path d="M2634 5185 c-7 -18 3 -35 21 -35 21 0 28 19 15 35 -16 19 -29 19 -36
0z"/>
<path d="M2455 5129 c-4 -6 -5 -13 -2 -16 7 -7 27 6 27 18 0 12 -17 12 -25 -2z"/>
<path d="M4430 5035 c0 -14 7 -28 15 -32 22 -8 28 2 21 32 -8 33 -36 33 -36 0z"/>
<path d="M4146 5031 c-4 -5 -1 -22 4 -37 12 -30 6 -59 -10 -49 -5 3 -10 15
-10 25 0 20 -37 37 -50 23 -5 -4 -10 -21 -12 -38 -2 -21 -9 -31 -27 -35 -37
-8 -36 -25 2 -49 44 -27 77 -27 84 -1 3 13 14 20 28 20 29 0 46 20 39 47 -4
12 1 32 10 45 27 38 21 58 -18 58 -19 0 -37 -4 -40 -9z"/>
<path d="M4715 4980 c3 -5 13 -10 21 -10 8 0 14 5 14 10 0 6 -9 10 -21 10 -11
0 -17 -4 -14 -10z"/>
<path d="M4620 4956 c-11 -31 -7 -56 10 -56 5 0 16 -16 24 -35 14 -32 18 -35
58 -35 24 0 49 -5 55 -11 8 -8 17 -8 32 0 40 22 24 34 -34 27 -54 -6 -55 -6
-55 19 0 15 6 25 15 25 19 0 36 32 25 49 -6 11 -14 11 -41 -3 -26 -13 -35 -14
-40 -4 -4 7 -14 22 -23 33 -14 20 -15 19 -26 -9z"/>
<path d="M3872 4867 c-40 -41 -53 -67 -33 -67 6 0 13 5 16 10 3 6 14 10 24 10
25 0 75 55 68 74 -10 26 -30 19 -75 -27z"/>
<path d="M4280 4890 c0 -21 27 -40 57 -40 10 0 29 -9 43 -20 32 -25 66 -25 80
0 7 13 21 20 38 20 37 0 67 22 59 44 -8 20 -37 21 -37 2 0 -21 -19 -30 -35
-16 -9 7 -15 8 -20 0 -11 -18 -97 -12 -130 10 -38 25 -55 25 -55 0z"/>
<path d="M3977 4874 c-8 -8 1 -24 13 -24 4 0 10 7 14 15 5 15 -14 21 -27 9z"/>
<path d="M3762 4858 c-7 -7 -23 -13 -35 -13 -30 -2 -47 -13 -47 -30 0 -22 -76
-100 -84 -86 -12 19 -24 13 -40 -21 -18 -35 -21 -62 -6 -53 6 3 10 15 10 26 0
28 29 23 36 -6 8 -30 24 -33 24 -4 0 17 4 20 22 16 37 -10 59 19 51 67 -6 38
-5 40 11 27 13 -11 24 -12 56 -2 47 14 51 20 42 56 -9 33 -22 41 -40 23z"/>
<path d="M5030 4815 c0 -8 7 -15 15 -15 9 0 12 6 9 15 -4 8 -10 15 -15 15 -5
0 -9 -7 -9 -15z"/>
<path d="M4905 4810 c-3 -5 0 -10 8 -10 8 0 22 -9 32 -20 21 -23 55 -27 55 -6
0 15 -52 46 -76 46 -7 0 -16 -4 -19 -10z"/>
<path d="M4282 4730 c13 -20 38 -28 38 -12 0 12 -23 32 -37 32 -11 0 -11 -4
-1 -20z"/>
<path d="M4455 4710 c-3 -6 5 -10 19 -10 14 0 28 5 31 10 3 6 -5 10 -19 10
-14 0 -28 -4 -31 -10z"/>
<path d="M5197 4683 c-4 -3 -7 -15 -7 -25 0 -13 7 -18 25 -18 20 0 25 5 25 25
0 18 -5 25 -18 25 -10 0 -22 -3 -25 -7z"/>
<path d="M3907 4628 c-11 -5 -50 -11 -88 -13 -77 -3 -112 -23 -107 -59 3 -19
9 -21 85 -19 57 2 90 7 108 19 14 9 34 14 44 11 21 -5 61 17 61 34 0 5 -9 9
-20 9 -12 0 -31 6 -43 14 -16 11 -27 12 -40 4z"/>
<path d="M4046 4633 c-3 -3 4 -19 16 -35 20 -29 23 -30 78 -24 38 4 67 2 91
-7 21 -9 69 -13 127 -13 65 1 96 -2 104 -11 7 -8 15 -10 22 -4 20 17 126 32
147 20 11 -5 56 -9 102 -8 68 1 88 -2 119 -20 27 -16 42 -20 55 -13 20 10 40
6 63 -13 8 -8 35 -14 60 -14 25 -1 56 -2 70 -3 19 -2 26 2 28 19 4 26 -40 53
-85 53 -31 0 -102 23 -136 44 -43 25 -107 40 -119 28 -8 -8 -51 -12 -119 -12
-58 0 -120 -5 -138 -11 -28 -10 -34 -9 -46 7 -13 18 -14 17 -20 -9 -7 -26 -28
-36 -39 -18 -3 5 -15 7 -26 4 -13 -4 -20 0 -20 9 0 12 -23 17 -102 23 -159 12
-225 15 -232 8z m796 -45 c-9 -9 -15 -9 -24 0 -10 10 -10 15 2 22 20 12 38 -6
22 -22z"/>
<path d="M5160 4510 c0 -5 10 -10 23 -10 18 0 19 2 7 10 -19 13 -30 13 -30 0z"/>
<path d="M3650 4495 c0 -8 5 -15 10 -15 6 0 10 7 10 15 0 8 -4 15 -10 15 -5 0
-10 -7 -10 -15z"/>
<path d="M4001 4276 c-11 -13 -6 -23 31 -60 67 -67 133 -71 237 -15 58 31 201
20 286 -21 68 -33 105 -35 153 -10 41 22 48 33 36 64 -7 18 -39 22 -49 6 -10
-17 -54 -11 -84 11 -23 17 -49 21 -172 28 -164 8 -226 1 -250 -31 -16 -20 -18
-21 -41 -6 -14 9 -44 21 -67 28 -23 6 -48 13 -55 16 -7 3 -18 -2 -25 -10z"/>
<path d="M3640 3732 c0 -5 6 -16 13 -27 16 -20 33 -5 23 20 -6 16 -36 21 -36
7z"/>
<path d="M3286 3703 c-3 -3 -3 -10 0 -14 7 -12 34 -11 34 0 0 11 -26 22 -34
14z"/>
<path d="M3730 3642 c0 -16 38 -44 55 -40 14 3 14 5 0 26 -15 21 -55 31 -55
14z"/>
<path d="M3832 3218 c5 -15 28 -18 29 -3 0 6 -7 12 -17 13 -10 3 -15 -1 -12
-10z"/>
<path d="M4658 3183 c12 -2 30 -2 40 0 9 3 -1 5 -23 4 -22 0 -30 -2 -17 -4z"/>
<path d="M6033 3125 c-39 -28 -24 -55 28 -55 11 0 37 -11 59 -25 22 -14 49
-25 61 -25 11 0 35 -6 52 -14 31 -13 53 -22 169 -66 74 -28 170 -91 192 -126
13 -19 20 -23 26 -14 5 8 41 13 105 15 89 3 98 1 102 -16 5 -18 41 -40 91 -54
17 -5 27 -2 36 11 12 16 16 15 55 -17 27 -22 40 -40 37 -52 -3 -13 6 -22 32
-33 34 -14 37 -14 52 5 14 20 17 20 64 6 28 -9 60 -25 73 -37 21 -20 21 -22 5
-34 -22 -17 -8 -18 18 -2 24 15 55 1 55 -25 0 -24 10 -29 38 -16 21 10 31 8
59 -8 18 -10 52 -25 76 -33 38 -12 45 -12 53 1 15 24 10 29 -30 29 -25 0 -41
5 -45 15 -3 8 -13 15 -21 15 -9 0 -13 5 -9 11 4 8 9 8 17 0 6 -6 20 -11 32
-11 11 0 33 -7 49 -15 15 -8 35 -15 44 -15 18 0 192 -59 207 -70 6 -4 22 -10
36 -14 15 -3 29 -15 32 -26 6 -23 33 -26 71 -9 22 10 28 9 44 -11 17 -21 21
-22 92 -12 41 5 80 6 85 2 6 -4 28 -11 50 -15 21 -3 52 -18 68 -31 21 -18 40
-24 77 -24 30 0 52 -5 60 -15 7 -8 25 -15 41 -15 15 0 31 -4 34 -10 3 -5 24
-10 45 -10 32 0 44 -6 62 -30 15 -21 37 -34 65 -42 23 -5 48 -16 54 -24 6 -8
23 -14 38 -14 14 0 39 -7 55 -15 15 -8 36 -15 45 -15 25 0 33 -11 20 -27 -9
-11 0 -13 50 -13 54 0 61 2 61 20 0 13 -7 20 -20 20 -10 0 -34 13 -53 30 -19
16 -45 34 -58 40 -13 6 -58 28 -99 50 -41 22 -80 40 -87 40 -6 0 -24 6 -40 14
-15 8 -48 22 -73 31 -25 9 -53 21 -62 26 -10 5 -34 13 -55 18 -21 5 -58 17
-83 26 -76 28 -209 65 -235 65 -13 0 -36 5 -52 11 -15 7 -46 15 -68 19 -125
24 -161 33 -179 46 -11 8 -29 14 -39 14 -11 0 -40 7 -66 15 -25 8 -75 22 -111
31 -36 9 -103 30 -150 45 -47 15 -130 42 -185 59 -55 17 -114 38 -132 46 -17
8 -36 14 -42 14 -38 0 -196 64 -254 104 -38 25 -76 46 -86 46 -9 0 -37 20 -61
45 -24 25 -48 45 -52 45 -4 0 -29 13 -55 29 -39 24 -70 32 -173 45 -69 9 -145
21 -170 27 -25 6 -81 13 -125 16 -64 4 -84 1 -102 -12z m552 -149 c25 -14 41
-31 43 -45 3 -16 8 -21 19 -17 20 8 53 -2 53 -15 0 -6 -8 -9 -17 -7 -10 1 -24
-1 -30 -5 -19 -12 -53 11 -65 43 -6 18 -20 32 -39 39 -16 5 -29 15 -29 20 0
17 21 12 65 -13z"/>
<path d="M4114 3105 c21 -14 42 -22 48 -19 15 10 -32 44 -61 44 -22 0 -20 -2
13 -25z"/>
<path d="M2780 3093 c-19 -9 -61 -29 -92 -44 -31 -16 -64 -29 -72 -29 -8 0
-50 -26 -93 -57 -96 -70 -111 -80 -142 -93 -13 -6 -37 -20 -53 -31 -23 -17
-38 -20 -72 -15 -34 5 -51 2 -77 -13 -19 -12 -41 -24 -49 -28 -8 -3 -33 -18
-55 -32 -64 -41 -75 -47 -170 -95 -49 -26 -146 -75 -214 -110 -69 -36 -135
-67 -148 -71 -13 -3 -23 -10 -23 -15 0 -6 -5 -10 -12 -10 -11 0 -126 -48 -178
-75 -14 -7 -41 -16 -60 -20 -31 -7 -91 -29 -188 -71 -18 -7 -47 -20 -65 -27
-17 -8 -85 -31 -150 -53 -65 -21 -121 -42 -123 -46 -3 -5 -13 -8 -23 -8 -24 0
-153 -40 -165 -51 -6 -5 -19 -9 -30 -9 -56 0 -359 -118 -473 -184 -84 -49 -61
-89 28 -52 19 8 46 12 62 9 16 -3 27 -1 27 6 0 14 77 51 106 51 31 0 86 25
108 49 11 12 31 21 47 21 15 0 31 5 34 11 4 6 19 7 36 4 20 -5 38 -1 54 9 13
9 46 23 72 32 26 9 63 27 81 41 35 26 92 36 99 17 2 -6 -13 -14 -34 -18 -21
-3 -49 -15 -63 -25 -23 -18 -23 -20 -7 -27 20 -7 107 30 107 46 0 5 12 15 28
22 15 7 31 23 37 36 10 24 31 31 22 8 -3 -8 1 -17 9 -20 8 -3 14 -15 14 -26 0
-23 4 -24 31 -9 13 7 18 17 14 28 -8 26 80 62 130 54 27 -4 41 -1 58 14 12 11
38 26 56 33 19 8 49 26 65 40 30 26 46 35 130 76 l39 19 15 -23 c19 -28 22
-28 67 8 21 17 43 29 49 27 6 -3 36 7 66 22 45 21 56 31 58 54 3 28 20 35 39
16 18 -18 43 -3 43 25 0 27 25 42 34 20 9 -24 46 -17 56 11 8 21 16 25 49 25
22 0 46 7 55 15 8 8 20 15 26 15 7 0 33 23 60 50 27 28 52 50 56 50 4 0 18 9
30 21 12 11 41 25 65 30 24 6 49 19 56 29 12 16 26 20 77 20 55 0 66 -3 78
-22 15 -22 15 -22 22 16 4 21 5 40 3 43 -9 9 56 63 76 63 15 0 18 -4 12 -22
-25 -79 -12 -101 28 -52 42 50 66 69 134 104 205 105 333 188 310 202 -23 15
-190 9 -227 -9z"/>
<path d="M4564 3084 c-18 -14 -16 -15 25 -9 64 9 87 24 35 25 -22 0 -49 -7
-60 -16z"/>
<path d="M4280 3070 c-23 -6 -23 -7 10 -12 19 -3 44 -2 55 2 11 4 30 4 43 -1
12 -5 51 -6 85 -2 62 7 62 7 22 14 -50 9 -182 8 -215 -1z"/>
<path d="M6623 2686 c-1 -52 -6 -104 -13 -116 -6 -12 -15 -42 -20 -68 -22
-121 -80 -266 -129 -321 -11 -13 -21 -28 -21 -33 0 -4 -20 -34 -45 -66 -25
-31 -45 -62 -45 -68 0 -6 -7 -18 -17 -25 -9 -8 -24 -26 -33 -41 -9 -16 -32
-45 -51 -66 -19 -20 -66 -75 -105 -122 -40 -47 -130 -139 -200 -205 -71 -66
-197 -187 -281 -269 -83 -82 -173 -164 -201 -182 -27 -19 -121 -70 -208 -114
-88 -45 -166 -85 -174 -90 -24 -15 -81 -38 -150 -61 -36 -12 -73 -30 -84 -41
-21 -23 -58 -18 -91 11 -11 10 -47 27 -79 37 -33 10 -78 33 -100 51 -23 18
-59 41 -81 50 -22 10 -88 41 -147 70 -59 29 -110 53 -115 53 -5 0 -14 5 -21
12 -12 12 -39 23 -147 60 -87 29 -179 74 -227 108 -22 17 -45 30 -50 30 -5 0
-23 13 -41 30 -18 16 -37 30 -43 30 -6 0 -42 20 -80 45 -37 25 -73 45 -78 45
-12 0 -142 86 -176 116 -35 32 -178 142 -245 189 -65 45 -275 249 -275 266 0
6 -31 43 -69 83 -63 65 -134 177 -156 246 -4 14 -17 37 -28 52 -21 28 -56 195
-64 306 -3 34 -8 62 -13 62 -17 0 -30 -29 -28 -61 2 -23 -1 -34 -11 -34 -22 0
-24 -23 -3 -34 16 -9 20 -25 24 -101 4 -64 10 -96 22 -109 9 -10 16 -33 16
-51 0 -23 8 -43 25 -60 20 -21 26 -39 30 -95 3 -37 7 -70 9 -73 9 -9 26 10 26
29 0 29 19 23 26 -8 4 -16 18 -40 32 -55 14 -16 22 -33 19 -42 -4 -10 -1 -16
7 -16 7 0 21 -16 32 -35 10 -19 26 -35 34 -35 23 0 40 -20 40 -47 0 -30 -39
-32 -47 -3 -6 24 -23 17 -23 -10 0 -20 19 -30 56 -30 15 0 24 -6 24 -15 0 -8
-7 -15 -15 -15 -8 0 -15 -4 -15 -10 0 -5 9 -10 20 -10 11 0 20 5 20 10 0 15
48 12 57 -4 4 -7 18 -18 31 -25 12 -7 22 -21 22 -34 0 -23 37 -47 73 -47 10 0
44 -26 75 -59 32 -32 68 -61 82 -64 18 -4 29 -16 35 -39 8 -28 15 -34 43 -36
18 -2 43 -12 55 -23 12 -11 42 -36 65 -56 40 -33 43 -40 38 -71 -4 -29 -3 -33
12 -27 9 4 41 7 71 6 45 -2 62 -8 107 -42 30 -22 54 -44 54 -49 0 -6 5 -10 11
-10 6 0 27 -17 47 -38 42 -43 90 -71 175 -101 32 -12 74 -37 94 -56 20 -19 40
-35 45 -35 12 0 10 34 -4 48 -16 16 -9 20 33 15 26 -4 40 -12 47 -28 6 -13 23
-25 41 -28 17 -4 39 -15 50 -26 26 -26 55 -41 81 -41 12 0 33 -9 47 -20 14
-11 34 -20 43 -20 10 0 23 -7 30 -15 7 -8 20 -15 30 -15 10 0 23 -6 29 -14 7
-8 25 -18 41 -21 39 -9 54 -29 46 -65 -4 -25 -2 -30 14 -30 12 0 26 -15 41
-46 30 -59 38 -63 32 -16 -4 27 -1 42 11 51 13 11 17 9 27 -13 8 -17 20 -26
35 -26 17 0 23 -6 26 -28 3 -27 4 -27 66 -25 35 2 101 14 146 28 45 14 95 25
112 25 17 0 37 8 47 20 9 11 23 20 31 20 9 0 16 12 18 28 3 23 10 29 48 38 34
8 45 16 45 30 0 29 12 42 47 49 17 4 43 19 58 34 29 29 84 61 105 61 7 0 18
-7 25 -15 18 -22 37 -18 36 6 -1 12 5 24 12 26 6 3 12 -2 12 -11 0 -9 7 -16
15 -16 17 0 20 16 5 25 -32 20 24 85 73 85 29 0 47 18 47 47 0 15 9 27 25 35
14 6 25 19 25 29 0 18 90 119 106 119 12 0 64 52 64 64 0 4 32 38 70 75 39 37
70 74 70 84 0 10 11 19 27 23 15 4 44 19 65 33 31 21 38 31 35 53 -3 21 1 27
22 32 34 7 81 52 81 77 0 36 32 80 53 73 24 -8 47 13 47 42 0 12 4 25 9 28 5
3 7 15 4 25 -3 13 2 21 15 26 13 3 22 16 24 33 2 19 8 26 21 24 16 -3 21 7 18
34 -1 6 12 26 29 44 16 18 30 41 30 51 0 10 4 19 10 19 12 0 50 73 50 95 0 9
7 27 16 41 9 14 20 42 24 62 8 37 16 62 52 158 20 53 18 105 -4 151 -7 15 -7
31 1 53 13 38 8 50 -22 50 -22 0 -23 -4 -24 -94z m-265 -794 c2 -7 -3 -12 -12
-12 -9 0 -16 7 -16 16 0 17 22 14 28 -4z"/>
<path d="M2210 2532 c0 -17 10 -38 25 -52 24 -23 25 -23 25 -3 0 11 -7 26 -15
33 -8 7 -15 21 -15 31 0 11 -4 19 -10 19 -5 0 -10 -13 -10 -28z"/>
<path d="M6930 2473 c0 -15 -9 -36 -20 -48 -26 -28 -80 -134 -80 -157 0 -41
31 -14 49 43 13 40 38 91 65 131 18 28 16 58 -4 58 -5 0 -10 -12 -10 -27z"/>
<path d="M6784 2193 c-3 -10 -10 -25 -15 -33 -5 -8 -12 -22 -15 -30 -6 -14
-59 -97 -126 -198 -15 -23 -28 -47 -28 -52 0 -6 -13 -22 -30 -37 -33 -29 -39
-53 -14 -53 21 0 64 41 64 61 0 9 11 24 25 33 14 9 25 23 25 30 0 23 51 106
74 121 14 9 27 34 35 66 7 28 19 53 27 56 19 7 18 53 -1 53 -9 0 -18 -8 -21
-17z"/>
<path d="M8580 2200 c0 -5 7 -10 15 -10 8 0 15 5 15 10 0 6 -7 10 -15 10 -8 0
-15 -4 -15 -10z"/>
<path d="M4526 2124 c-3 -9 -3 -20 0 -25 8 -13 34 9 34 27 0 19 -26 18 -34 -2z"/>
<path d="M2450 2081 c0 -21 13 -41 26 -41 17 0 17 5 4 31 -11 20 -30 26 -30
10z"/>
<path d="M5182 1979 c2 -6 8 -10 13 -10 5 0 11 4 13 10 2 6 -4 11 -13 11 -9 0
-15 -5 -13 -11z"/>
<path d="M2527 1942 c-16 -18 -15 -20 22 -50 65 -52 81 -37 35 30 -30 43 -35
45 -57 20z"/>
<path d="M2630 1822 c0 -21 18 -42 37 -42 19 0 16 24 -5 43 -24 22 -32 21 -32
-1z"/>
<path d="M2690 1745 c0 -8 5 -15 10 -15 6 0 10 7 10 15 0 8 -4 15 -10 15 -5 0
-10 -7 -10 -15z"/>
<path d="M4706 1725 c-35 -36 -11 -72 40 -59 21 5 25 12 22 38 -4 36 -35 47
-62 21z"/>
<path d="M6320 1725 c0 -8 5 -15 10 -15 6 0 10 7 10 15 0 8 -4 15 -10 15 -5 0
-10 -7 -10 -15z"/>
<path d="M6481 1717 c-5 -14 -14 -26 -18 -28 -5 -2 -21 -21 -37 -41 -15 -21
-36 -40 -47 -43 -20 -7 -27 -45 -8 -45 6 0 23 13 37 29 15 16 46 50 70 75 24
26 42 52 40 58 -8 22 -28 19 -37 -5z"/>
<path d="M2743 1713 c-16 -6 -5 -33 13 -33 8 0 14 6 14 14 0 18 -11 25 -27 19z"/>
<path d="M2790 1652 c0 -12 9 -26 20 -32 16 -8 20 -8 20 3 0 8 -9 22 -20 32
-19 18 -20 17 -20 -3z"/>
<path d="M6325 1519 c-10 -15 3 -25 16 -12 7 7 7 13 1 17 -6 3 -14 1 -17 -5z"/>
<path d="M2970 1472 c0 -12 117 -122 131 -122 5 0 9 4 9 9 0 15 -83 111 -96
111 -7 0 -19 3 -28 6 -9 3 -16 2 -16 -4z"/>
<path d="M6220 1425 c-23 -12 -23 -14 -7 -21 20 -7 42 8 36 24 -3 7 -13 6 -29
-3z"/>
<path d="M3179 1302 c5 -10 17 -24 25 -32 14 -10 16 -9 16 7 0 22 -18 43 -37
43 -10 0 -11 -5 -4 -18z"/>
<path d="M6055 1279 c-10 -15 3 -25 16 -12 7 7 7 13 1 17 -6 3 -14 1 -17 -5z"/>
<path d="M3300 1214 c0 -8 7 -14 16 -14 9 0 27 -11 40 -25 25 -28 54 -33 54
-10 0 15 -26 33 -77 51 -27 10 -33 9 -33 -2z"/>
<path d="M3434 1138 c3 -7 9 -21 12 -31 4 -11 13 -16 21 -13 8 3 21 6 29 6 23
0 16 14 -17 33 -36 20 -53 22 -45 5z"/>
<path d="M3530 1075 c7 -8 19 -15 27 -15 13 0 13 3 3 15 -7 8 -19 15 -27 15
-13 0 -13 -3 -3 -15z"/>
<path d="M3610 1032 c0 -11 59 -32 65 -22 6 10 -1 15 -37 24 -16 3 -28 3 -28
-2z"/>
<path d="M3712 974 c4 -18 56 -47 118 -65 25 -7 52 -18 60 -24 17 -14 120 -28
120 -17 0 13 -23 32 -40 32 -8 0 -28 7 -43 15 -16 8 -51 21 -78 29 -27 8 -59
22 -71 30 -30 21 -71 21 -66 0z"/>
<path d="M5332 888 c-18 -18 -14 -28 8 -28 11 0 20 6 20 14 0 21 -15 27 -28
14z"/>
<path d="M4042 828 c3 -7 23 -14 47 -16 32 -2 42 0 39 10 -3 7 -23 14 -47 16
-32 2 -42 0 -39 -10z"/>
<path d="M4490 720 c0 -5 7 -10 15 -10 8 0 15 5 15 10 0 6 -7 10 -15 10 -8 0
-15 -4 -15 -10z"/>
<path d="M4260 692 c0 -10 22 -32 32 -32 15 0 8 15 -12 28 -11 7 -20 9 -20 4z"/>
<path d="M3455 431 c-6 -11 9 -23 19 -14 9 9 7 23 -3 23 -6 0 -12 -4 -16 -9z"/>
</g>
</svg>
