<?xml version="1.0" encoding="UTF-8"?>
<svg version="1.1" xmlns="http://www.w3.org/2000/svg" width="1024" height="1024">
<path d="M0 0 C0.88300781 0.78890625 1.76601563 1.5778125 2.67578125 2.390625 C2.67578125 3.050625 2.67578125 3.710625 2.67578125 4.390625 C3.33578125 4.390625 3.99578125 4.390625 4.67578125 4.390625 C20.07795301 20.08203943 28.13337758 41.39512741 28.04003906 63.07299805 C27.22556075 95.06633278 6.11429039 122.68166509 -12.20703125 147.2578125 C-17.17974454 153.94709765 -21.9601725 160.71814443 -26.51171875 167.703125 C-26.99398926 168.43926025 -27.47625977 169.17539551 -27.97314453 169.93383789 C-30.44750806 173.38336681 -30.44750806 173.38336681 -31.32421875 177.390625 C-30.14666016 176.66746094 -30.14666016 176.66746094 -28.9453125 175.9296875 C-19.30747027 170.13515659 -11.67837887 167.22609576 -0.32421875 168.390625 C6.34470278 170.14770612 12.29072823 173.70098077 18.23046875 177.12109375 C22.68879199 179.43571843 26.66298296 179.89190483 31.67578125 179.390625 C36.77911979 177.05996645 40.85386726 173.42891941 45.01953125 169.74609375 C52.15379315 163.90744073 60.87310661 163.6637073 69.67578125 164.390625 C77.57375301 165.97185794 85.11733125 168.357353 92.51953125 171.515625 C94.55703218 172.34243697 96.55112199 172.95833733 98.67578125 173.515625 C101.67578125 174.390625 101.67578125 174.390625 103.67578125 176.390625 C103.54259775 180.05317138 103.39903132 182.50047107 101.05078125 185.390625 C94.24493176 188.25624584 85.06016681 183.23945354 78.58984375 180.91796875 C70.64576299 178.15832442 63.15057409 176.05368327 55.00390625 179.1015625 C51.1817633 181.2178497 48.21476067 184.16775991 45.1328125 187.234375 C39.60137665 192.08867164 33.38280167 193.84407352 26.1015625 193.734375 C18.5331122 192.66187319 11.5210955 188.975124 5.05078125 185.078125 C-0.49053132 181.97370315 -5.06819083 181.18649806 -11.32421875 182.390625 C-17.4087421 184.50194569 -22.07879018 187.80598415 -26.80859375 192.09375 C-29.86857766 194.71208675 -32.2434384 195.44444582 -36.2265625 195.24609375 C-40.21854595 194.14364183 -41.03287041 192.65645098 -43.32421875 189.265625 C-47.67101702 183.6594067 -51.7622547 181.21682593 -58.1640625 178.33984375 C-63.34792814 175.99704903 -68.21930559 173.11566634 -73.13671875 170.265625 C-74.87229093 169.26283926 -76.60796507 168.26022995 -78.34375 167.2578125 C-79.57859131 166.54383301 -79.57859131 166.54383301 -80.83837891 165.81542969 C-84.64479148 163.63371452 -88.48142768 161.50745125 -92.32421875 159.390625 C-92.20828369 160.42356689 -92.09234863 161.45650879 -91.97290039 162.52075195 C-91.53749999 166.40278457 -91.10361934 170.28498587 -90.67016602 174.16723633 C-90.48339738 175.83818018 -90.29623255 177.5090798 -90.10864258 179.17993164 C-89.83697549 181.60030424 -89.56655073 184.020811 -89.296875 186.44140625 C-89.1658287 187.61499191 -89.1658287 187.61499191 -89.03213501 188.81228638 C-88.45748218 194.01740108 -87.96241537 199.22372486 -87.56811523 204.44604492 C-87.42391549 206.46825375 -87.42391549 206.46825375 -86.32421875 208.390625 C-86.27740316 210.16083939 -86.28669958 211.93268918 -86.32421875 213.703125 C-86.36610745 218.09620279 -86.21080386 222.38969627 -85.82421875 226.765625 C-84.19610874 246.35013671 -84.19610874 246.35013671 -87.32421875 252.390625 C-89.63671875 253.890625 -89.63671875 253.890625 -92.32421875 254.390625 C-120.72983195 240.00455638 -138.21680233 189.1143488 -147.56738281 160.67919922 C-148.25574485 158.59768122 -148.96941434 156.52705946 -149.69140625 154.45703125 C-162.49681598 116.23964383 -166.34267493 71.6150001 -148.32421875 34.390625 C-147.82277344 33.34777344 -147.32132813 32.30492187 -146.8046875 31.23046875 C-134.48540198 7.02465949 -114.68200363 -10.25036028 -88.94921875 -18.859375 C-56.92755691 -28.14101611 -25.56732526 -20.43736978 0 0 Z M-111.32421875 7.390625 C-112.2265625 8.10734375 -113.12890625 8.8240625 -114.05859375 9.5625 C-133.48293402 25.91406328 -143.4181551 50.75964177 -146.73828125 75.47265625 C-150.79695766 128.0099676 -130.50216817 185.54903642 -100.32421875 228.390625 C-99.99421875 228.390625 -99.66421875 228.390625 -99.32421875 228.390625 C-99.90740936 213.890473 -100.85624888 199.44327697 -102.05371094 184.98120117 C-102.32935301 181.64090688 -102.59656239 178.30000183 -102.86328125 174.95898438 C-103.03726406 172.82808442 -103.21172426 170.69722337 -103.38671875 168.56640625 C-103.46591553 167.57079178 -103.5451123 166.57517731 -103.62670898 165.5493927 C-103.70348877 164.63630844 -103.78026855 163.72322418 -103.859375 162.7824707 C-103.92519775 161.97977249 -103.99102051 161.17707428 -104.05883789 160.35005188 C-104.22685637 158.31607973 -104.22685637 158.31607973 -105.32421875 156.390625 C-105.0546875 154.078125 -105.0546875 154.078125 -104.51171875 151.390625 C-104.34027344 150.50375 -104.16882813 149.616875 -103.9921875 148.703125 C-103.32421875 146.390625 -103.32421875 146.390625 -101.32421875 144.390625 C-95.27579092 143.38099562 -90.88148936 146.32653133 -85.76171875 149.140625 C-84.85220459 149.62853516 -83.94269043 150.11644531 -83.00561523 150.61914062 C-74.5051981 155.21104335 -66.1234992 160.01408791 -57.765625 164.859375 C-50.97978667 169.02007893 -50.97978667 169.02007893 -43.32421875 170.390625 C-41.69625899 168.53388236 -41.69625899 168.53388236 -40.32421875 165.953125 C-37.30270511 160.9258406 -34.09864798 156.10822855 -30.69921875 151.328125 C-30.19100586 150.61124512 -29.68279297 149.89436523 -29.15917969 149.15576172 C-25.88280639 144.54753761 -22.57155111 139.96517201 -19.25073242 135.38891602 C-4.03451606 114.42185636 -4.03451606 114.42185636 7.67578125 91.390625 C8.34480469 89.78380859 8.34480469 89.78380859 9.02734375 88.14453125 C16.30715222 69.39157435 16.34331724 50.66963798 8.2421875 32.10546875 C3.97372805 23.51736929 -1.58549338 17.07023875 -8.32421875 10.390625 C-8.9584375 9.72289062 -9.59265625 9.05515625 -10.24609375 8.3671875 C-23.98681631 -5.06953677 -44.75926715 -9.609375 -63.32421875 -9.609375 C-64.00742188 -9.63257813 -64.690625 -9.65578125 -65.39453125 -9.6796875 C-82.39577068 -9.27165775 -98.29273958 -3.4559355 -111.32421875 7.390625 Z " fill="#161615" transform="translate(260.32421875,413.609375)"/>
<path d="M0 0 C3.63434194 1.81717097 5.13989924 3.52618915 6.609375 7.34692383 C7.39537566 9.73933961 8.11444821 12.14295427 8.8125 14.5625 C9.07047363 15.44035156 9.32844727 16.31820313 9.59423828 17.22265625 C11.33220842 23.25309901 12.87716609 29.31391322 14.25 35.4375 C14.41749756 36.18402832 14.58499512 36.93055664 14.75756836 37.69970703 C15.47716328 41.05316662 15.875 43.98829576 15.875 47.4375 C32.34410689 39.95261389 46.86384457 31.98791487 60.875 20.4375 C66.85973067 15.6027764 66.85973067 15.6027764 70.5625 15 C72.9765207 15.45670662 74.76690926 16.18826104 76.875 17.4375 C77.47263328 21.52132742 77.03276262 23.196216 74.75 26.6875 C65.4532848 36.57206371 51.70325666 44.6399781 39.5703125 50.5625 C37.68093686 51.42886969 37.68093686 51.42886969 35.875 53.4375 C34.555 53.4375 33.235 53.4375 31.875 53.4375 C31.38 54.4275 31.38 54.4275 30.875 55.4375 C28.66015625 56.5078125 28.66015625 56.5078125 25.9375 57.5625 C25.04160156 57.91570313 24.14570313 58.26890625 23.22265625 58.6328125 C20.875 59.4375 20.875 59.4375 18.875 59.4375 C19.1378479 60.46713867 19.1378479 60.46713867 19.40600586 61.51757812 C20.87883791 67.34145572 22.28877962 73.17533418 23.62890625 79.03125 C23.77693695 79.67715088 23.92496765 80.32305176 24.07748413 80.98852539 C24.68733718 83.6508707 25.29654539 86.31332578 25.89819336 88.97753906 C26.34544697 90.95487082 26.79913275 92.9306362 27.25390625 94.90625 C27.5176001 96.06576172 27.78129395 97.22527344 28.05297852 98.41992188 C28.75821887 101.00880539 29.56236834 103.11249093 30.875 105.4375 C33.83424632 105.10486909 35.46654925 104.82206506 37.66601562 102.7512207 C41.95263008 96.9115508 45.75909442 90.90057469 49.375 84.625 C49.94033447 83.65739746 50.50566895 82.68979492 51.08813477 81.69287109 C53.43036898 77.67963422 55.75377423 73.65592308 58.05859375 69.62109375 C60.43192274 65.482304 62.75803038 61.4585852 65.6875 57.6875 C72.27505951 49.17708528 78.75507947 39.97904719 81.3125 29.4296875 C82.16866931 26.39742119 83.56810247 24.54084775 85.875 22.4375 C88.79295329 21.31521027 90.43972268 21.35459003 93.5 21.9375 C97.01487854 24.15742329 97.65622289 26.52458401 98.875 30.4375 C99.43209015 35.72985646 98.60098031 38.89419948 95.875 43.4375 C95.37742187 43.96085938 94.87984375 44.48421875 94.3671875 45.0234375 C92.07402974 48.73331053 91.84308874 52.59564417 91.3125 56.875 C91.19173096 57.7935376 91.07096191 58.7120752 90.9465332 59.65844727 C90.57150122 62.5829014 90.22027743 65.50939307 89.875 68.4375 C89.75705078 69.40816406 89.63910156 70.37882813 89.51757812 71.37890625 C89.18045588 74.20920942 88.86649702 77.0409633 88.5625 79.875 C88.46187256 80.74374756 88.36124512 81.61249512 88.25756836 82.50756836 C87.77873223 87.35441713 87.88575028 90.8555203 89.875 95.4375 C94.24624392 94.92777898 96.31832657 93.55263456 99.5 90.5625 C100.36882812 89.75425781 101.23765625 88.94601562 102.1328125 88.11328125 C104.93707043 85.3769327 107.6532192 82.56816114 110.375 79.75 C116.02014048 74.07296607 121.54998854 69.15833524 129.625 67.8125 C135.82254286 69.00433516 139.27361584 72.47590616 142.875 77.4375 C143.8627786 79.50923564 144.78068949 81.61577065 145.625 83.75 C146.05296875 84.81863281 146.4809375 85.88726563 146.921875 86.98828125 C147.23640625 87.79652344 147.5509375 88.60476563 147.875 89.4375 C150.81591587 89.25334568 150.81591587 89.25334568 153.875 88.4375 C155.16393237 86.64135561 155.16393237 86.64135561 155.875 84.4375 C159.41578831 79.12112576 163.03009163 74.42196884 168.8125 71.4375 C172.30038216 71.4375 174.2100069 73.32771379 176.875 75.4375 C179.34487124 78.12530105 181.14421999 80.87598642 182.875 84.0625 C184.7835411 87.28316311 185.78009171 88.53466308 188.875 90.4375 C193.48105765 91.57054092 197.4664858 91.15250166 201.69140625 89.0078125 C204.46506785 87.21014031 207.17330918 85.34124016 209.875 83.4375 C212.59326379 81.68166122 214.79940932 80.58433042 217.875 79.4375 C221.25 80.375 221.25 80.375 223.875 82.4375 C225.25 85.125 225.25 85.125 225.875 87.4375 C226.535 87.4375 227.195 87.4375 227.875 87.4375 C228.473125 88.365625 229.07125 89.29375 229.6875 90.25 C231.93989413 93.53206002 233.25665959 94.88678268 236.875 96.4375 C240.6925355 97.00606912 242.48475216 96.63660604 245.9375 94.875 C251.37249927 90.36510699 254.67671225 85.50739772 255.875 78.4375 C256.17610552 71.47733014 254.509498 66.98761773 250.34765625 61.4453125 C248.875 59.4375 248.875 59.4375 247.80859375 57.2421875 C247.00665694 55.25793753 247.00665694 55.25793753 244.875 54.4375 C246.35432172 51.47885656 247.42574827 49.72123794 250.25 47.9375 C252.875 47.4375 252.875 47.4375 255.25 48.25 C259.15019663 51.50016386 261.98356302 55.28534168 264.875 59.4375 C265.31585937 60.03304687 265.75671875 60.62859375 266.2109375 61.2421875 C270.53419108 68.1409964 269.87094219 78.53799914 268.29296875 86.30078125 C267.64117548 88.47868615 267.64117548 88.47868615 268.875 90.4375 C267.39 90.9325 267.39 90.9325 265.875 91.4375 C264.47925069 93.29579886 264.47925069 93.29579886 263.1875 95.5625 C258.40065491 102.94859022 253.08307457 107.93169306 244.38671875 110.0625 C237.47019451 111.09513814 232.4023726 109.79102773 226.6640625 105.8359375 C223.11407559 103.0610569 220.36938638 100.17907958 217.875 96.4375 C213.8654625 97.01234409 211.15564567 98.27121774 207.75 100.4375 C200.80667042 104.8272038 194.99599382 104.97956881 186.875 104.4375 C180.6461843 102.3612281 175.08656217 97.65120534 171.625 92.0625 C171.0475 91.19625 170.47 90.33 169.875 89.4375 C168.885 89.4375 167.895 89.4375 166.875 89.4375 C166.648125 89.97375 166.42125 90.51 166.1875 91.0625 C162.77330591 97.2405655 158.69309244 101.34262809 151.875 103.4375 C146.34548836 103.4375 143.16430264 101.82955056 138.875 98.4375 C137.13112241 95.98515054 135.81298485 93.39010306 134.5 90.6875 C134.14550781 89.99011719 133.79101562 89.29273438 133.42578125 88.57421875 C132.5614993 86.86901381 131.71625871 85.15418021 130.875 83.4375 C127.58526695 83.04785004 126.27640056 83.12561263 123.61425781 85.1940918 C122.85983398 86.00015869 122.10541016 86.80622559 121.328125 87.63671875 C120.4825 88.51650391 119.636875 89.39628906 118.765625 90.30273438 C117.45851563 91.69975586 117.45851563 91.69975586 116.125 93.125 C103.01264841 107.0963686 103.01264841 107.0963686 93.8359375 109.1015625 C88.3200165 109.01824043 84.53049036 108.49890811 80.2421875 104.8671875 C75.08880977 99.47822679 74.70913963 94.07444457 74.75 86.9375 C74.74613281 84.97296875 74.74613281 84.97296875 74.7421875 82.96875 C74.83195003 77.43937822 75.36781224 71.94146921 75.875 66.4375 C75.50850342 67.03997559 75.14200684 67.64245117 74.7644043 68.26318359 C74.24789307 69.11219238 73.73138184 69.96120117 73.19921875 70.8359375 C72.62373291 71.78202881 72.04824707 72.72812012 71.45532227 73.70288086 C70.18472827 75.79027357 68.91306647 77.87701666 67.64038086 79.96313477 C64.65354464 84.86046645 61.67456621 89.76123736 58.7421875 94.69140625 C46.26028478 115.61669845 46.26028478 115.61669845 36.42578125 118.9296875 C32.08758304 119.79334105 28.83146998 119.43415431 24.875 117.4375 C11.91829589 108.07843204 9.50437244 82.95419578 6.875 68.4375 C6.875 67.1175 6.875 65.7975 6.875 64.4375 C5.83666016 64.83582031 5.83666016 64.83582031 4.77734375 65.2421875 C-6.68845586 69.38135627 -25.35491174 74.52941021 -36.98828125 69.1015625 C-39.125 67.4375 -39.125 67.4375 -39.6875 64.5 C-38.99061603 60.70585396 -38.19201096 59.742642 -35.125 57.4375 C-32.41083468 57.05568176 -30.02654558 56.88504413 -27.3125 56.875 C-16.87597433 56.55833185 -7.02058527 54.90621047 2.875 51.4375 C2.00430952 42.49959573 -0.19875701 34.060759 -2.625 25.4375 C-2.93381104 24.33929932 -3.24262207 23.24109863 -3.56079102 22.10961914 C-5.17848885 16.38109567 -5.17848885 16.38109567 -7.20117188 10.7890625 C-8.39239738 7.75685213 -8.61575283 5.66244717 -8.125 2.4375 C-5.22932175 -0.28784423 -3.92880595 -0.70718507 0 0 Z " fill="#171615" transform="translate(371.125,472.5625)"/>
<path d="M0 0 C4.42274514 1.92786326 6.15395784 5.41607906 8.04296875 9.72265625 C8.58132293 11.18610068 9.10790547 12.65390923 9.625 14.125 C10.06283813 15.3313208 10.06283813 15.3313208 10.50952148 16.56201172 C12.35948069 21.74460027 14.04898625 26.96716699 15.6796875 32.22265625 C16.25746948 34.07395142 16.25746948 34.07395142 16.84692383 35.96264648 C17.60040177 38.39665305 18.34042837 40.83487546 19.06518555 43.27758789 C21.43158425 50.95032475 23.96554204 58.91675041 30.79443359 63.72045898 C33.49299634 65.09067877 35.80308736 65.78384469 38.76171875 66.38671875 C40.30762695 66.72413086 40.30762695 66.72413086 41.88476562 67.06835938 C43.9923751 67.51173232 46.1016966 67.94706908 48.21289062 68.37304688 C65.33710614 72.15618126 80.96668527 81.19391409 96.5 89.0625 C99.88526062 90.77373776 103.27212386 92.48175703 106.66015625 94.1875 C107.47723053 94.59991943 108.29430481 95.01233887 109.13613892 95.43725586 C115.40757654 98.58722954 121.74038318 101.59128045 128.14405823 104.46337891 C134.48112434 107.36467101 134.48112434 107.36467101 136.4375 110.0625 C136.875 113.0625 136.875 113.0625 136.4375 116.0625 C134.9375 118 134.9375 118 132.4375 119.0625 C126.81661567 118.69910602 122.90876945 117.65395724 117.875 115 C116.90216064 114.49629883 116.90216064 114.49629883 115.90966797 113.98242188 C114.35966837 113.1783875 112.81273184 112.36843427 111.26806641 111.55419922 C75.005122 91.31046943 75.005122 91.31046943 35.5625 79.625 C28.71247577 78.59032497 23.63023692 76.74327695 18.4375 72.0625 C17.93992187 71.65257812 17.44234375 71.24265625 16.9296875 70.8203125 C14.66677885 68.15458241 13.34681226 65.10591785 11.9375 61.9375 C11.43234863 60.80852295 11.43234863 60.80852295 10.91699219 59.65673828 C6.71249376 49.88080808 3.53281821 39.7168139 0.29492188 29.58935547 C-1.8899129 22.7960824 -4.20253857 16.38261051 -7.5625 10.0625 C-8.125 6.8125 -8.125 6.8125 -7.5625 4.0625 C-5.10218103 1.32100171 -3.73173088 0.09101783 0 0 Z " fill="#181716" transform="translate(720.5625,474.9375)"/>
<path d="M0 0 C2.87553044 2.02064301 3.82482641 3.35769685 4.75 6.75 C2.64227127 15.88349116 -10.166102 23.82753065 -17.63671875 28.73046875 C-20.70256095 30.37740878 -22.57488341 30.59567245 -26 30 C-28 27.8125 -28 27.8125 -29 25 C-28.0112957 18.73820607 -21.52935588 14.20941754 -16.875 10.375 C-13.9624714 8.04542936 -13.9624714 8.04542936 -11.375 5.375 C-5.10638298 -0.89361702 -5.10638298 -0.89361702 0 0 Z " fill="#1A1918" transform="translate(789,499)"/>
<path d="M0 0 C2.11453179 1.61066169 4.03437852 3.34128937 5.96875 5.1640625 C7.87348503 6.88564993 9.78339726 8.23895848 11.9375 9.625 C15 12 15 12 16.25 14.5 C16 17 16 17 13.875 19.8125 C10.67697912 22.24577676 9.86105641 22.45769362 6 22 C3.9375 20.86328125 3.9375 20.86328125 2 19.3125 C1.31550781 18.7659375 0.63101563 18.219375 -0.07421875 17.65625 C-2.51707998 15.55529024 -4.78620161 13.34030115 -7 11 C-7.598125 10.525625 -8.19625 10.05125 -8.8125 9.5625 C-10 8 -10 8 -10.4375 5 C-10 2 -10 2 -8.375 0.0625 C-4.95727817 -1.46648082 -3.56164248 -1.23287624 0 0 Z " fill="#181716" transform="translate(678,545)"/>
<path d="M0 0 C4.11981746 1.68537987 7.29480371 4.36084297 10.75 7.125 C12.2040625 8.1459375 12.2040625 8.1459375 13.6875 9.1875 C15.75 11.125 15.75 11.125 16.6875 13.625 C16.75969831 16.51293248 16.44055226 17.79042783 14.75 20.125 C12.48116354 21.76795054 11.27303206 22.16357698 8.47265625 21.95703125 C4.86053628 20.85318397 2.80763662 19.01169654 0 16.5 C-0.96421875 15.66210938 -1.9284375 14.82421875 -2.921875 13.9609375 C-5.70121006 10.57537163 -6.15810127 8.46466245 -6.25 4.125 C-4.40661415 1.28902177 -3.42570817 0.19031712 0 0 Z " fill="#1A1A19" transform="translate(648.25,474.875)"/>
<path d="M0 0 C0.33 0 0.66 0 1 0 C1.01981934 1.14065918 1.03963867 2.28131836 1.06005859 3.45654297 C1.13600567 7.67975323 1.22473928 11.90261399 1.31738281 16.12548828 C1.35571777 17.95484529 1.39056263 19.78427885 1.421875 21.61376953 C1.46742805 24.24018759 1.52543731 26.86607659 1.5859375 29.4921875 C1.60326431 30.72350906 1.60326431 30.72350906 1.62094116 31.97970581 C1.5572544 36.4624644 1.5572544 36.4624644 4 40 C3.9765625 42.8203125 3.9765625 42.8203125 3.625 46.125 C3.51414062 47.22070312 3.40328125 48.31640625 3.2890625 49.4453125 C3.19367188 50.28835938 3.09828125 51.13140625 3 52 C2.67 52 2.34 52 2 52 C-0.64209365 34.48441815 -2.17921839 17.66723484 0 0 Z " fill="#504F4E" transform="translate(101,486)"/>
<path d="M0 0 C0.99 0 1.98 0 3 0 C5.90322818 3.64977257 7 5.25852179 7 10 C7.84111328 10.31130859 7.84111328 10.31130859 8.69921875 10.62890625 C11.81864928 12.48785381 13.691006 15.06443003 15.8125 17.9375 C16.23208984 18.47568359 16.65167969 19.01386719 17.08398438 19.56835938 C18.26953125 21.15234375 18.26953125 21.15234375 20 24 C19.67 24.99 19.34 25.98 19 27 C13.74798321 21.58244686 9.27485203 15.76127845 5 9.5625 C4.50717529 8.85222656 4.01435059 8.14195312 3.5065918 7.41015625 C0 2.25467935 0 2.25467935 0 0 Z " fill="#292827" transform="translate(143,637)"/>
<path d="M0 0 C0.33 0 0.66 0 1 0 C3.80054712 22.80127986 3.80054712 22.80127986 1 32 C0.01 32 -0.98 32 -2 32 C-1.855625 30.77925781 -1.71125 29.55851562 -1.5625 28.30078125 C-0.47907409 18.81163111 0.30900519 9.56199405 0 0 Z " fill="#333231" transform="translate(274,462)"/>
<path d="M0 0 C0 0.66 0 1.32 0 2 C0.99 2.33 1.98 2.66 3 3 C1 4 1 4 -0.78417969 3.57861328 C-1.48961914 3.32837402 -2.19505859 3.07813477 -2.921875 2.8203125 C-3.70046875 2.55089844 -4.4790625 2.28148437 -5.28125 2.00390625 C-6.0959375 1.71386719 -6.910625 1.42382812 -7.75 1.125 C-12.8206094 -0.66607009 -17.63326889 -2.3248306 -23 -3 C-23 -3.33 -23 -3.66 -23 -4 C-14.98096674 -5.99407577 -7.42849258 -3.0264229 0 0 Z " fill="#282726" transform="translate(782,558)"/>
<path d="M0 0 C0.33 0 0.66 0 1 0 C1.268125 0.969375 1.53625 1.93875 1.8125 2.9375 C2.204375 3.948125 2.59625 4.95875 3 6 C11.7117485 8.90391617 22.21025672 6.79730572 31 5 C31.66 4.67 32.32 4.34 33 4 C34.99960012 3.960008 37.00047242 3.95653201 39 4 C30.05498171 9.96334553 15.30418415 10.04535202 5 9 C2.09765625 7.68359375 2.09765625 7.68359375 0 6 C-0.3125 2.8125 -0.3125 2.8125 0 0 Z " fill="#535250" transform="translate(332,534)"/>
<path d="M0 0 C0.33 0 0.66 0 1 0 C1.66509667 13.34261759 2.16139646 26.63995943 2 40 C1.67 40 1.34 40 1 40 C0.91697632 38.74340576 0.91697632 38.74340576 0.83227539 37.46142578 C0.62508453 34.35636559 0.41406729 31.2515961 0.20043945 28.14697266 C0.1087312 26.80267572 0.01855335 25.45827347 -0.07006836 24.11376953 C-0.19764199 22.18234758 -0.33115854 20.25132106 -0.46484375 18.3203125 C-0.543396 17.15773926 -0.62194824 15.99516602 -0.70288086 14.79736328 C-0.82968626 12.04875846 -0.82968626 12.04875846 -2 10 C-1.66015625 7.6171875 -1.66015625 7.6171875 -1.0625 4.875 C-0.86785156 3.96492187 -0.67320312 3.05484375 -0.47265625 2.1171875 C-0.31667969 1.41851563 -0.16070312 0.71984375 0 0 Z " fill="#595857" transform="translate(156,560)"/>
<path d="M0 0 C0.33 0 0.66 0 1 0 C1.08564209 0.95890137 1.17128418 1.91780273 1.25952148 2.90576172 C1.57787485 6.45822089 1.90153205 10.01018015 2.22680664 13.56201172 C2.36693072 15.10029158 2.50560974 16.63870379 2.64282227 18.17724609 C2.84012539 20.38675617 3.04259467 22.59574056 3.24609375 24.8046875 C3.3065538 25.49432587 3.36701385 26.18396423 3.42930603 26.89450073 C3.74675614 30.56819039 3.74675614 30.56819039 5 34 C4.91219597 36.04498425 4.75758462 38.08744948 4.5625 40.125 C4.46066406 41.22070312 4.35882813 42.31640625 4.25390625 43.4453125 C4.12822266 44.70988281 4.12822266 44.70988281 4 46 C3.67 46 3.34 46 3 46 C2.56388064 41.69989403 2.13713981 37.39897946 1.71826172 33.09716797 C1.57519208 31.64054622 1.42976837 30.18415334 1.28173828 28.72802734 C0.30563452 19.10643308 -0.20677238 9.68192506 0 0 Z " fill="#51504F" transform="translate(169,588)"/>
<path d="M0 0 C0.28875 0.598125 0.5775 1.19625 0.875 1.8125 C2.04742026 4.19327792 2.04742026 4.19327792 4 7 C3.625 9.1875 3.625 9.1875 3 11 C-3.625 13.125 -3.625 13.125 -7 12 C-7.33 12.66 -7.66 13.32 -8 14 C-10.97 13.505 -10.97 13.505 -14 13 C-10.99049877 11.38274466 -8.02896392 10.32417377 -4.75 9.375 C-3.85796875 9.11460937 -2.9659375 8.85421875 -2.046875 8.5859375 C-1.37140625 8.39257812 -0.6959375 8.19921875 0 8 C0 5.36 0 2.72 0 0 Z " fill="#343332" transform="translate(374,516)"/>
<path d="M0 0 C5.37535085 0.64842519 7.68916615 3.05918649 11.328125 6.85546875 C13.40332524 9.51734943 14 11.6333489 14 15 C12.9029946 13.9029946 11.80635878 12.80561849 10.7109375 11.70703125 C9.36694043 10.36610267 8.01666607 9.03146541 6.6640625 7.69921875 C5.43816406 6.48685547 5.43816406 6.48685547 4.1875 5.25 C3.39730469 4.47140625 2.60710937 3.6928125 1.79296875 2.890625 C0 1 0 1 0 0 Z " fill="#292928" transform="translate(248,420)"/>
<path d="M0 0 C5.76044212 0.60636233 10.72014369 2.75658279 16 5 C16.33 4.01 16.66 3.02 17 2 C17.66 3.32 18.32 4.64 19 6 C16 8 16 8 14.125 7.75 C13.42375 7.5025 12.7225 7.255 12 7 C10.8553125 6.5978125 10.8553125 6.5978125 9.6875 6.1875 C6.29763285 4.68965172 3.19438912 2.87905243 0 1 C0 0.67 0 0.34 0 0 Z " fill="#1E1D1C" transform="translate(201,579)"/>
<path d="M0 0 C0 0.33 0 0.66 0 1 C-10.15293327 1.7903481 -19.85101699 2.14727634 -30 1 C-30 0.67 -30 0.34 -30 0 C-19.8725856 -1.32818549 -10.13582468 -1.23124985 0 0 Z " fill="#484847" transform="translate(214,392)"/>
<path d="M0 0 C4.3598028 3.73697383 7.65335592 8.10419327 8.171875 13.93164062 C8.3427994 18.62778863 8.20503378 23.30700451 8 28 C7.67 28 7.34 28 7 28 C6.94392578 26.42798828 6.94392578 26.42798828 6.88671875 24.82421875 C6.82105485 23.44527695 6.75460765 22.06637229 6.6875 20.6875 C6.66494141 19.99720703 6.64238281 19.30691406 6.61914062 18.59570312 C6.45223163 14.60392753 6.45223163 14.60392753 4.5625 11.203125 C4.046875 10.80609375 3.53125 10.4090625 3 10 C0.84143263 6.24249383 0 4.39997916 0 0 Z " fill="#3C3A39" transform="translate(632,528)"/>
<path d="M0 0 C6.26418531 1.48362284 10.91513505 5.24162156 16 9 C14.28125 9.67578125 14.28125 9.67578125 12 10 C9.78125 8.85546875 9.78125 8.85546875 7.5 7.1875 C4.73551117 5.19460651 2.09308975 3.44109863 -1 2 C-0.67 1.34 -0.34 0.68 0 0 Z " fill="#242423" transform="translate(238,400)"/>
<path d="M0 0 C2 4 2 4 2 8 C2.77085937 7.6390625 3.54171875 7.278125 4.3359375 6.90625 C5.33882813 6.4421875 6.34171875 5.978125 7.375 5.5 C8.87160156 4.80390625 8.87160156 4.80390625 10.3984375 4.09375 C13 3 13 3 15 3 C15 3.66 15 4.32 15 5 C11.39019882 8.10589492 8.30975136 10.07016525 3.5 9.8125 C2.675 9.544375 1.85 9.27625 1 9 C0.67 6.03 0.34 3.06 0 0 Z " fill="#383736" transform="translate(385,512)"/>
<path d="M0 0 C3.18019683 2.9238411 5.25351309 5.83401169 7.3125 9.625 C7.84488281 10.58664062 8.37726563 11.54828125 8.92578125 12.5390625 C9.28027344 13.35117187 9.63476562 14.16328125 10 15 C9.67 15.66 9.34 16.32 9 17 C4.0454296 12.32068351 0.51811445 6.90819264 0 0 Z " fill="#222120" transform="translate(271,427)"/>
<path d="M0 0 C0.99 0 1.98 0 3 0 C3.46557346 3.18141867 3.50963377 5.25343123 1.6640625 7.95703125 C0.15741976 9.6935608 -1.37936464 11.369718 -3 13 C-3.66 12.67 -4.32 12.34 -5 12 C-4.67 11.01 -4.34 10.02 -4 9 C-3.34 9 -2.68 9 -2 9 C-1.34 6.03 -0.68 3.06 0 0 Z " fill="#312F2E" transform="translate(445,490)"/>
<path d="M0 0 C0.33 0 0.66 0 1 0 C1.22577402 5.4185766 0.46670113 9.77487721 -1 15 C-1.66 15 -2.32 15 -3 15 C-3.33 15.66 -3.66 16.32 -4 17 C-3.63223832 10.69732561 -2.83374078 5.66748157 0 0 Z " fill="#222120" transform="translate(118,462)"/>
<path d="M0 0 C1.875 1.5 1.875 1.5 3 3 C-0.22458954 4.61229477 -3.62471601 4.01501302 -7.17578125 3.9375 C-9.91079811 3.99802596 -12.34146987 4.38016055 -15 5 C-10.30193507 1.17194709 -6.14384022 -0.66780872 0 0 Z " fill="#373634" transform="translate(259,592)"/>
<path d="M0 0 C2.69481258 2.69481258 2.96558486 4.54399943 3.25 8.3125 C2.97893713 12.31067733 2.09575015 14.61455745 0 18 C-0.66 18.33 -1.32 18.66 -2 19 C-1.67 17.02 -1.34 15.04 -1 13 C-0.34 13 0.32 13 1 13 C1 10.03 1 7.06 1 4 C0.34 3.67 -0.32 3.34 -1 3 C-0.67 2.01 -0.34 1.02 0 0 Z " fill="#373635" transform="translate(467,498)"/>
<path d="M0 0 C0.66 0 1.32 0 2 0 C3.98046875 2.30078125 3.98046875 2.30078125 6.1875 5.3125 C6.92355469 6.29863281 7.65960938 7.28476562 8.41796875 8.30078125 C8.94003906 9.19152344 9.46210938 10.08226562 10 11 C9.67 11.99 9.34 12.98 9 14 C7.67569475 12.61536194 6.36597197 11.2167677 5.0625 9.8125 C4.33160156 9.03519531 3.60070312 8.25789062 2.84765625 7.45703125 C0.90131937 4.86877354 0.35600114 3.18140701 0 0 Z " fill="#2A2A29" transform="translate(153,650)"/>
<path d="M0 0 C0.67546875 0.23976563 1.3509375 0.47953125 2.046875 0.7265625 C2.93890625 1.02304687 3.8309375 1.31953125 4.75 1.625 C5.63171875 1.92664063 6.5134375 2.22828125 7.421875 2.5390625 C10.41017471 3.07333427 11.49923002 2.62433191 14 1 C14 1.99 14 2.98 14 4 C9.94405371 6.02797315 7.37353074 6.23599782 3 5 C1.125 3.5625 1.125 3.5625 0 2 C0 1.34 0 0.68 0 0 Z " fill="#2D2C2A" transform="translate(218,603)"/>
<path d="M0 0 C6.93 0 13.86 0 21 0 C17.76775653 3.23224347 14.53226557 2.97465402 10.0625 3.1875 C6.40944787 3.15284106 3.40851413 2.36340565 0 1 C0 0.67 0 0.34 0 0 Z " fill="#424140" transform="translate(278,604)"/>
<path d="M0 0 C4.30764815 1.56641751 8.06171464 3.68336156 12 6 C12 6.66 12 7.32 12 8 C8.2397015 7.41892368 5.46964968 6.34800504 2.1875 4.4375 C1.39730469 3.98246094 0.60710937 3.52742187 -0.20703125 3.05859375 C-0.79871094 2.70925781 -1.39039063 2.35992188 -2 2 C-1.34 1.34 -0.68 0.68 0 0 Z " fill="#2B2A29" transform="translate(264,595)"/>
<path d="M0 0 C5.23272633 1.63958758 10.15196636 3.38952035 15 6 C15 6.33 15 6.66 15 7 C9.33895411 6.50341703 5.12325529 5.45489316 0 3 C0 2.01 0 1.02 0 0 Z " fill="#292727" transform="translate(784,549)"/>
<path d="M0 0 C0.598125 0.20625 1.19625 0.4125 1.8125 0.625 C0.8225 0.955 -0.1675 1.285 -1.1875 1.625 C-2.43774577 4.17807196 -2.98969243 6.79525281 -3.1875 9.625 C-1.98429557 12.12541272 -1.98429557 12.12541272 -0.1875 13.625 C-3.34865776 12.25516497 -4.1802092 11.6359362 -6.1875 8.625 C-6 5.0625 -6 5.0625 -5.1875 1.625 C-2.1875 -0.375 -2.1875 -0.375 0 0 Z " fill="#3D3C3B" transform="translate(648.1875,475.375)"/>
<path d="M0 0 C1.98 0 3.96 0 6 0 C4.6856247 2.6287506 3.49434485 2.8189416 0.8125 3.9375 C-2.8617258 5.50462187 -6.44382182 7.17631888 -10 9 C-9.6875 7.125 -9.6875 7.125 -9 5 C-5.77208445 2.8480563 -4.71599191 2.79913557 -1 3 C-0.67 2.01 -0.34 1.02 0 0 Z " fill="#343332" transform="translate(163,409)"/>
<path d="M0 0 C5.68502535 1.64566523 10.76681636 4.29032784 16 7 C16 7.33 16 7.66 16 8 C10.46103154 7.5384193 5.60352101 6.25614901 1 3 C0.67 2.01 0.34 1.02 0 0 Z " fill="#272625" transform="translate(807,560)"/>
<path d="M0 0 C0.66386719 0.34933594 1.32773437 0.69867187 2.01171875 1.05859375 C3.33623047 1.74115234 3.33623047 1.74115234 4.6875 2.4375 C5.99267578 3.11619141 5.99267578 3.11619141 7.32421875 3.80859375 C9.90998264 4.95991928 12.21356528 5.56320753 15 6 C15 6.33 15 6.66 15 7 C8.18848171 6.75759721 3.31944433 6.45683174 -2 2 C-1.34 1.34 -0.68 0.68 0 0 Z " fill="#313030" transform="translate(744,547)"/>
<path d="M0 0 C2.20805524 -0.0544452 4.41650554 -0.09299283 6.625 -0.125 C7.85476563 -0.14820313 9.08453125 -0.17140625 10.3515625 -0.1953125 C13.94316041 -0.0030428 16.66661175 0.69741444 20 2 C16.99774423 2.92428998 14.89253477 2.97047505 11.8125 2.4375 C6.8802468 1.78205107 2.74295397 2.64326849 -2 4 C-1.34 2.68 -0.68 1.36 0 0 Z " fill="#41403F" transform="translate(315,589)"/>
<path d="M0 0 C2.99588024 1.4595314 4.67519006 2.31429012 6.125 5.375 C6 8 6 8 3.875 10.8125 C1 13 1 13 -1.8125 13.3125 C-2.534375 13.209375 -3.25625 13.10625 -4 13 C-4.33 12.34 -4.66 11.68 -5 11 C-2.525 11.495 -2.525 11.495 0 12 C0.33 11.01 0.66 10.02 1 9 C1.99 9 2.98 9 4 9 C3.39816251 6.97954558 2.72693904 4.97888961 2 3 C1.34 2.67 0.68 2.34 0 2 C0 1.34 0 0.68 0 0 Z " fill="#434241" transform="translate(688,554)"/>
<path d="M0 0 C0.66 0.33 1.32 0.66 2 1 C1.52 7.36 1.52 7.36 -0.625 10 C-3.98844312 11.41618658 -6.49623443 10.74118118 -10 10 C-10 9.67 -10 9.34 -10 9 C-7.69 9 -5.38 9 -3 9 C-3 8.34 -3 7.68 -3 7 C-2.01 7 -1.02 7 0 7 C-0.2784375 5.824375 -0.2784375 5.824375 -0.5625 4.625 C-1 2 -1 2 0 0 Z " fill="#393837" transform="translate(362,589)"/>
<path d="M0 0 C0 3.88291746 -1.37860494 5.46752535 -3.5 8.6875 C-4.1496875 9.68136719 -4.799375 10.67523437 -5.46875 11.69921875 C-6.22671875 12.83810547 -6.22671875 12.83810547 -7 14 C-7.33 13.34 -7.66 12.68 -8 12 C-6.22520545 6.77421606 -4.18811925 3.7353496 0 0 Z " fill="#302F2E" transform="translate(270,526)"/>
<path d="M0 0 C5.28 0 10.56 0 16 0 C15.01 0.495 15.01 0.495 14 1 C14 1.66 14 2.32 14 3 C9.71 3 5.42 3 1 3 C0.67 2.01 0.34 1.02 0 0 Z " fill="#242423" transform="translate(557,574)"/>
<path d="M0 0 C0.33 0 0.66 0 1 0 C0.98839844 0.7734375 0.97679687 1.546875 0.96484375 2.34375 C0.91290155 8.33936364 1.08815844 14.07302983 2 20 C1.01 19.67 0.02 19.34 -1 19 C-1.10349817 12.58311325 -0.74507544 6.37305598 0 0 Z " fill="#3A3938" transform="translate(458,550)"/>
<path d="M0 0 C0.66 0.33 1.32 0.66 2 1 C-1.89706407 6.01051095 -5.41366471 9.89648039 -11 13 C-9.46356148 9.31930113 -7.21849055 7.01224796 -4.375 4.25 C-3.55773437 3.45078125 -2.74046875 2.6515625 -1.8984375 1.828125 C-0.95871094 0.92320312 -0.95871094 0.92320312 0 0 Z " fill="#41403D" transform="translate(138,413)"/>
<path d="M0 0 C0.33 0 0.66 0 1 0 C1.3125 2.3125 1.3125 2.3125 1 5 C-2.28889579 7.72508509 -4.78287443 8.36146791 -9 8 C-8.67 7.01 -8.34 6.02 -8 5 C-6.576875 4.87625 -6.576875 4.87625 -5.125 4.75 C-1.89538209 4.34925077 -1.89538209 4.34925077 -0.625 1.9375 C-0.41875 1.298125 -0.2125 0.65875 0 0 Z " fill="#222120" transform="translate(527,557)"/>
<path d="M0 0 C0 3.33896168 -0.59422625 4.40480889 -2.3125 7.1875 C-2.95638672 8.26064453 -2.95638672 8.26064453 -3.61328125 9.35546875 C-4.07089844 9.89816406 -4.52851563 10.44085937 -5 11 C-5.99 11 -6.98 11 -8 11 C-6.60366572 6.55711819 -4.39598172 4.13475236 -1 1 C-0.67 0.67 -0.34 0.34 0 0 Z " fill="#222220" transform="translate(447,518)"/>
<path d="M0 0 C4.9723422 1.49170266 9.41845739 3.60457417 14 6 C13.01 6.66 12.02 7.32 11 8 C11 7.34 11 6.68 11 6 C10.0925 5.87625 9.185 5.7525 8.25 5.625 C5.37912041 5.07290777 3.41259883 4.60839922 1 3 C0.67 2.01 0.34 1.02 0 0 Z " fill="#262524" transform="translate(823,568)"/>
<path d="M0 0 C2.0625 0.4375 2.0625 0.4375 4 1 C4 1.66 4 2.32 4 3 C4.639375 3.20625 5.27875 3.4125 5.9375 3.625 C8 5 8 5 8.75 8.125 C8.87375 9.548125 8.87375 9.548125 9 11 C5 7 5 7 3.375 5.25 C2.06306307 3.77577574 2.06306307 3.77577574 0 4 C-0.33 3.01 -0.66 2.02 -1 1 C-0.67 0.67 -0.34 0.34 0 0 Z " fill="#31302F" transform="translate(538,558)"/>
<path d="M0 0 C0.763125 0.20625 1.52625 0.4125 2.3125 0.625 C2.3125 0.955 2.3125 1.285 2.3125 1.625 C0.3325 1.625 -1.6475 1.625 -3.6875 1.625 C-4.0175 3.935 -4.3475 6.245 -4.6875 8.625 C-6.0075 7.965 -7.3275 7.305 -8.6875 6.625 C-4.66647727 -0.65113636 -4.66647727 -0.65113636 0 0 Z " fill="#343232" transform="translate(624.6875,520.375)"/>
<path d="M0 0 C-0.99 1.485 -0.99 1.485 -2 3 C-3.32 3 -4.64 3 -6 3 C-6.33 3.66 -6.66 4.32 -7 5 C-9.5625 5.625 -9.5625 5.625 -12 6 C-11 3 -11 3 -8.25 1.3125 C-5.14979295 0.06049331 -3.28328088 -0.28970125 0 0 Z " fill="#31302E" transform="translate(409,523)"/>
<path d="M0 0 C-2.97 2.64 -5.94 5.28 -9 8 C-9.33 6.68 -9.66 5.36 -10 4 C-9.01 3.67 -8.02 3.34 -7 3 C-6.67 2.01 -6.34 1.02 -6 0 C-3.42525708 -0.99667468 -2.51072708 -1.25536354 0 0 Z " fill="#2D2B2A" transform="translate(149,422)"/>
<path d="M0 0 C1.32 0.66 2.64 1.32 4 2 C4 2.66 4 3.32 4 4 C4.66 4 5.32 4 6 4 C7.625 6.5 7.625 6.5 9 9 C8.01 9 7.02 9 6 9 C6 8.34 6 7.68 6 7 C5.401875 6.7525 4.80375 6.505 4.1875 6.25 C1.71352479 4.83629988 0.56629745 3.34944617 -1 1 C-0.67 0.67 -0.34 0.34 0 0 Z " fill="#272626" transform="translate(259,414)"/>
<path d="M0 0 C1.22589844 0.01353516 1.22589844 0.01353516 2.4765625 0.02734375 C3.41628906 0.04474609 3.41628906 0.04474609 4.375 0.0625 C1.52089666 1.56810497 -1.30624642 2.69466796 -4.375 3.6875 C-5.17421875 3.94789063 -5.9734375 4.20828125 -6.796875 4.4765625 C-7.40015625 4.66992188 -8.0034375 4.86328125 -8.625 5.0625 C-6.51899199 0.39919656 -5.01778996 -0.07168271 0 0 Z " fill="#1D1C1A" transform="translate(245.625,583.9375)"/>
<path d="M0 0 C0.33 0 0.66 0 1 0 C1 5.28 1 10.56 1 16 C-2.125 9.75 -2.125 9.75 -1.0625 4.875 C-0.86785156 3.96492187 -0.67320312 3.05484375 -0.47265625 2.1171875 C-0.31667969 1.41851563 -0.16070312 0.71984375 0 0 Z " fill="#494847" transform="translate(156,560)"/>
<path d="M0 0 C2.00293347 3.00440021 2.49271626 4.70993945 3.125 8.1875 C3.29257812 9.08855469 3.46015625 9.98960937 3.6328125 10.91796875 C3.75398437 11.60503906 3.87515625 12.29210937 4 13 C3.01 12.67 2.02 12.34 1 12 C-0.67563646 7.64334521 -1.36503641 4.50462014 0 0 Z " fill="#2E2D2C" transform="translate(733,500)"/>
<path d="M0 0 C0.66 0.33 1.32 0.66 2 1 C-0.10605115 3.9484716 -2.18670333 6.69821181 -5 9 C-6.32 8.67 -7.64 8.34 -9 8 C-6.03 5.36 -3.06 2.72 0 0 Z " fill="#33312F" transform="translate(434,491)"/>
<path d="M0 0 C2.61500768 2.36595933 4.38999603 4.86049226 6 8 C5.67 8.66 5.34 9.32 5 10 C-0.73529412 4.70588235 -0.73529412 4.70588235 -1 1 C-0.67 0.67 -0.34 0.34 0 0 Z " fill="#2D2C2B" transform="translate(149,624)"/>
<path d="M0 0 C4.63425362 -0.32332002 7.28683289 0.1355568 11 3 C11.33 3.99 11.66 4.98 12 6 C7.76570244 4.68938409 3.92592596 3.05643741 0 1 C0 0.67 0 0.34 0 0 Z " fill="#2C2B2B" transform="translate(825,582)"/>
<path d="M0 0 C0.33 0.66 0.66 1.32 1 2 C-0.21484375 4.8203125 -0.21484375 4.8203125 -1.9375 8.125 C-2.50339844 9.22070312 -3.06929688 10.31640625 -3.65234375 11.4453125 C-4.09707031 12.28835938 -4.54179687 13.13140625 -5 14 C-5.625 12.1875 -5.625 12.1875 -6 10 C-5.34 9.01 -4.68 8.02 -4 7 C-3.67 5.96875 -3.34 4.9375 -3 3.875 C-2 1 -2 1 0 0 Z " fill="#3B3A39" transform="translate(279,508)"/>
<path d="M0 0 C1.32 0.33 2.64 0.66 4 1 C2.21475351 2.19713017 0.4215972 3.38247279 -1.375 4.5625 C-2.87160156 5.55443359 -2.87160156 5.55443359 -4.3984375 6.56640625 C-5.25695312 7.03949219 -6.11546875 7.51257813 -7 8 C-7.66 7.67 -8.32 7.34 -9 7 C-8.34 6.01 -7.68 5.02 -7 4 C-5.68 4 -4.36 4 -3 4 C-3 3.34 -3 2.68 -3 2 C-2.01 2 -1.02 2 0 2 C0 1.34 0 0.68 0 0 Z " fill="#32302F" transform="translate(427,510)"/>
<path d="M0 0 C1.60495567 0.11442461 3.20898119 0.24194694 4.8125 0.375 C5.70582031 0.44460938 6.59914062 0.51421875 7.51953125 0.5859375 C10 1 10 1 13 3 C8.98195309 3.84098656 5.98196457 4.05404945 2 3 C2 2.34 2 1.68 2 1 C1.34 0.67 0.68 0.34 0 0 Z " fill="#343333" transform="translate(214,393)"/>
<path d="M0 0 C2.97069541 2.54631035 4.4775751 5.42230149 6 9 C5.67 9.66 5.34 10.32 5 11 C0.25316456 5.30379747 0.25316456 5.30379747 -1 2 C-0.67 1.34 -0.34 0.68 0 0 Z " fill="#232321" transform="translate(155,634)"/>
<path d="M0 0 C0 0.99 0 1.98 0 3 C-5.2734375 6.22265625 -5.2734375 6.22265625 -7 7 C-7.66 6.67 -8.32 6.34 -9 6 C-3.2 0 -3.2 0 0 0 Z " fill="#282626" transform="translate(583,568)"/>
<path d="M0 0 C0.33 0.66 0.66 1.32 1 2 C-0.1796875 4.3828125 -0.1796875 4.3828125 -1.875 7.125 C-2.42929687 8.03507813 -2.98359375 8.94515625 -3.5546875 9.8828125 C-4.03164063 10.58148437 -4.50859375 11.28015625 -5 12 C-5.33 12 -5.66 12 -6 12 C-6.20086443 8.28400809 -6.1519437 7.22791555 -4 4 C-3.34 4 -2.68 4 -2 4 C-2 3.01 -2 2.02 -2 1 C-1.34 0.67 -0.68 0.34 0 0 Z " fill="#2F2E2D" transform="translate(438,550)"/>
<path d="M0 0 C2.39256506 1.19628253 2.79843378 2.12565265 4.0625 4.4375 C4.40410156 5.05496094 4.74570312 5.67242188 5.09765625 6.30859375 C5.74921553 7.52991482 6.38094352 8.76188703 7 10 C5.35 9.67 3.7 9.34 2 9 C0 3.375 0 3.375 0 0 Z " fill="#333231" transform="translate(742,528)"/>
<path d="M0 0 C0.66 1.32 1.32 2.64 2 4 C1.319375 4.8353125 1.319375 4.8353125 0.625 5.6875 C-1.03733768 8.05313439 -2.02144543 10.29015658 -3 13 C-4.39943663 10.20112673 -3.54753576 8.87861172 -2.625 5.9375 C-2.34914063 5.03902344 -2.07328125 4.14054687 -1.7890625 3.21484375 C-1 1 -1 1 0 0 Z " fill="#383635" transform="translate(454,499)"/>
<path d="M0 0 C1.09570312 0.00902344 2.19140625 0.01804687 3.3203125 0.02734375 C4.16335938 0.03894531 5.00640625 0.05054688 5.875 0.0625 C5.875 0.3925 5.875 0.7225 5.875 1.0625 C3.235 1.0625 0.595 1.0625 -2.125 1.0625 C-2.125 1.7225 -2.125 2.3825 -2.125 3.0625 C-4.105 3.0625 -6.085 3.0625 -8.125 3.0625 C-8.125 2.4025 -8.125 1.7425 -8.125 1.0625 C-5.36047967 -0.31976016 -3.0788637 -0.03275387 0 0 Z " fill="#413F3E" transform="translate(324.125,577.9375)"/>
<path d="M0 0 C0.33 0.66 0.66 1.32 1 2 C0.0390625 3.9453125 0.0390625 3.9453125 -1.375 6.125 C-1.83648437 6.84945312 -2.29796875 7.57390625 -2.7734375 8.3203125 C-3.17820312 8.87460937 -3.58296875 9.42890625 -4 10 C-4.33 10 -4.66 10 -5 10 C-5.3125 7.8125 -5.3125 7.8125 -5 5 C-2.5 2.1875 -2.5 2.1875 0 0 Z " fill="#2D2C2A" transform="translate(428,567)"/>
<path d="M0 0 C0.33 0 0.66 0 1 0 C0.67 2.97 0.34 5.94 0 9 C-0.66 8.34 -1.32 7.68 -2 7 C-2.99 7.99 -3.98 8.98 -5 10 C-4.34 7.69 -3.68 5.38 -3 3 C-2.34 3 -1.68 3 -1 3 C-0.67 2.01 -0.34 1.02 0 0 Z " fill="#3C3C3B" transform="translate(449,532)"/>
<path d="M0 0 C0.33 0 0.66 0 1 0 C2.33583899 4.84241633 3.25328119 8.93437617 3 14 C1 11 1 11 1 9 C0.34 9 -0.32 9 -1 9 C-0.67 6.03 -0.34 3.06 0 0 Z " fill="#3F3D3C" transform="translate(382,498)"/>
<path d="M0 0 C2.97069541 2.54631035 4.4775751 5.42230149 6 9 C5.67 9.66 5.34 10.32 5 11 C1.87729874 8.48169253 1.05476902 7.2738451 0.25 3.25 C0.1675 2.1775 0.085 1.105 0 0 Z " fill="#393837" transform="translate(143,613)"/>
<path d="M0 0 C0.9075 0.37125 1.815 0.7425 2.75 1.125 C2.75 2.115 2.75 3.105 2.75 4.125 C-0.55 3.135 -3.85 2.145 -7.25 1.125 C-3.25 -0.875 -3.25 -0.875 0 0 Z " fill="#2F2F2E" transform="translate(348.25,593.875)"/>
<path d="M0 0 C2.0625 0.4375 2.0625 0.4375 4 1 C-1.29230769 5.06153846 -1.29230769 5.06153846 -4.875 4.75 C-5.57625 4.5025 -6.2775 4.255 -7 4 C-6.67 3.34 -6.34 2.68 -6 2 C-4.34178227 1.62690101 -2.67422986 1.29299023 -1 1 C-0.67 0.67 -0.34 0.34 0 0 Z " fill="#282826" transform="translate(467,566)"/>
<path d="M0 0 C1.98 0 3.96 0 6 0 C6.33 3.3 6.66 6.6 7 10 C5 6 5 6 5 2 C3.02 2.33 1.04 2.66 -1 3 C-0.67 2.01 -0.34 1.02 0 0 Z " fill="#3F3F3E" transform="translate(373,535)"/>
<path d="M0 0 C3.87540045 -0.17615457 6.75515269 -0.28341107 10 2 C10.33 2.99 10.66 3.98 11 5 C7.27566618 3.7874262 3.62197194 2.49140021 0 1 C0 0.67 0 0.34 0 0 Z " fill="#2F2D2C" transform="translate(795,567)"/>
<path d="M0 0 C3.4375 0.8125 3.4375 0.8125 7 2 C7.33 2.99 7.66 3.98 8 5 C5.03 4.505 5.03 4.505 2 4 C2 3.34 2 2.68 2 2 C1.01 1.67 0.02 1.34 -1 1 C-0.67 0.67 -0.34 0.34 0 0 Z " fill="#242523" transform="translate(333,589)"/>
<path d="M0 0 C0 0.66 0 1.32 0 2 C0.99 2.33 1.98 2.66 3 3 C1 4 1 4 -0.9453125 3.44140625 C-1.66460938 3.15136719 -2.38390625 2.86132812 -3.125 2.5625 C-3.84945312 2.27503906 -4.57390625 1.98757813 -5.3203125 1.69140625 C-6.15175781 1.34916016 -6.15175781 1.34916016 -7 1 C-3.375 -1.125 -3.375 -1.125 0 0 Z " fill="#383736" transform="translate(782,558)"/>
<path d="M0 0 C3.92300495 2.35380297 4.83857315 4.64464931 6 9 C4.68 8.67 3.36 8.34 2 8 C1.34 5.36 0.68 2.72 0 0 Z " fill="#383836" transform="translate(548,550)"/>
<path d="M0 0 C1.10844919 3.32534757 0.84454356 5.62182575 0 9 C-0.99 9.33 -1.98 9.66 -3 10 C-2.49287967 6.28111761 -1.88391785 3.26545761 0 0 Z " fill="#3A3937" transform="translate(111,450)"/>
<path d="M0 0 C3.08089673 2.77280706 4.68775452 5.06326356 6 9 C5.01 9 4.02 9 3 9 C0 2.25 0 2.25 0 0 Z " fill="#2C2B2A" transform="translate(271,427)"/>
<path d="M0 0 C2.5 1.125 2.5 1.125 5 3 C5.3125 6.1875 5.3125 6.1875 5 9 C2.67527795 6.14693203 1.2491742 3.45925163 0 0 Z " fill="#313130" transform="translate(133,620)"/>
<path d="M0 0 C0.66 1.32 1.32 2.64 2 4 C1.01 4.66 0.02 5.32 -1 6 C-2.98 5.01 -4.96 4.02 -7 3 C-4.50907189 1.75453595 -3.58919267 2.2232422 -1 3 C-0.67 2.01 -0.34 1.02 0 0 Z " fill="#373534" transform="translate(218,581)"/>
<path d="M0 0 C3.68754757 0.49831724 5.60490662 1.10067643 8 4 C7.01 4.33 6.02 4.66 5 5 C3.35 3.35 1.7 1.7 0 0 Z " fill="#2C2C2B" transform="translate(676,560)"/>
<path d="M0 0 C0.93065133 2.60582371 1.14917407 3.64198224 0.0625 6.25 C-0.4634375 7.11625 -0.4634375 7.11625 -1 8 C-1.99 8 -2.98 8 -4 8 C-2.87548273 5.0280615 -1.77706209 2.66559313 0 0 Z " fill="#343332" transform="translate(120,434)"/>
<path d="M0 0 C0.66 0 1.32 0 2 0 C3.6875 1.75 3.6875 1.75 5 4 C4.6875 6.25 4.6875 6.25 4 8 C1.10067643 5.60490662 0.49831724 3.68754757 0 0 Z " fill="#21201F" transform="translate(153,650)"/>
<path d="M0 0 C0.94875 0.350625 1.8975 0.70125 2.875 1.0625 C2.875 2.0525 2.875 3.0425 2.875 4.0625 C-2.875 2.3125 -2.875 2.3125 -5.125 0.0625 C-3.125 -0.9375 -3.125 -0.9375 0 0 Z " fill="#2D2C2B" transform="translate(822.125,577.9375)"/>
<path d="M0 0 C-5.2734375 3.22265625 -5.2734375 3.22265625 -7 4 C-7.66 3.67 -8.32 3.34 -9 3 C-6.38220849 -0.01046024 -3.86655673 -1.93327837 0 0 Z " fill="#373635" transform="translate(627,577)"/>
<path d="M0 0 C2.12046792 3.53411321 2.53199289 6.94393835 3 11 C2.67 10.34 2.34 9.68 2 9 C1.34 9 0.68 9 0 9 C-1.15941038 5.52176885 -0.70820884 3.54104422 0 0 Z " fill="#454543" transform="translate(118,545)"/>
<path d="M0 0 C0.99 0.33 1.98 0.66 3 1 C-1.39453125 5.00390625 -1.39453125 5.00390625 -3 6 C-3.99 5.67 -4.98 5.34 -6 5 C-5.67 4.34 -5.34 3.68 -5 3 C-3.66666667 2.66666667 -2.33333333 2.33333333 -1 2 C-0.67 1.34 -0.34 0.68 0 0 Z " fill="#2E2E2C" transform="translate(437,503)"/>
<path d="M0 0 C0.66 0.99 1.32 1.98 2 3 C1.125 5.6875 1.125 5.6875 0 8 C-0.99 8 -1.98 8 -3 8 C-1.125 2.25 -1.125 2.25 0 0 Z " fill="#2E2D2B" transform="translate(115,442)"/>
<path d="M0 0 C5.75 1.75 5.75 1.75 8 4 C5.36 3.67 2.72 3.34 0 3 C0 2.01 0 1.02 0 0 Z " fill="#2F2D2D" transform="translate(238,400)"/>
<path d="M0 0 C0.66 0 1.32 0 2 0 C2 0.66 2 1.32 2 2 C3.32 2.66 4.64 3.32 6 4 C5.67 5.32 5.34 6.64 5 8 C4.16382818 6.8562364 3.33113541 5.70992861 2.5 4.5625 C2.0359375 3.92441406 1.571875 3.28632812 1.09375 2.62890625 C0 1 0 1 0 0 Z " fill="#353433" transform="translate(148,645)"/>
<path d="M0 0 C4.21912747 0.4794463 6.79663178 1.16625119 10 4 C8.1875 4.6875 8.1875 4.6875 6 5 C4.4375 3.6875 4.4375 3.6875 3 2 C2.01 1.34 1.02 0.68 0 0 Z " fill="#3D3C3B" transform="translate(260,583)"/>
<path d="M0 0 C0.99 0 1.98 0 3 0 C4.0625 1.8125 4.0625 1.8125 5 4 C4.67 4.99 4.34 5.98 4 7 C0 2.25 0 2.25 0 0 Z " fill="#2B2B2A" transform="translate(389,580)"/>
<path d="M0 0 C0 3.58534593 -1.02362045 5.07495826 -3 8 C-3.33 8 -3.66 8 -4 8 C-4.25 5.6875 -4.25 5.6875 -4 3 C-2 1.1875 -2 1.1875 0 0 Z " fill="#343331" transform="translate(235,576)"/>
<path d="M0 0 C3.375 0.25 3.375 0.25 7 1 C8.4375 3.0625 8.4375 3.0625 9 5 C5.9168649 3.80100302 2.93720508 2.52299523 0 1 C0 0.67 0 0.34 0 0 Z " fill="#363533" transform="translate(173,575)"/>
<path d="M0 0 C3.00617269 3.00617269 2.59585316 5.82381598 3 10 C0.64551835 7.44931155 0.01672076 6.28982642 -0.1875 2.75 C-0.125625 1.8425 -0.06375 0.935 0 0 Z " fill="#201E1E" transform="translate(506,558)"/>
<path d="M0 0 C1.98 1.65 3.96 3.3 6 5 C4.68 5.33 3.36 5.66 2 6 C0 3 0 3 0 0 Z " fill="#1C1B1B" transform="translate(671,553)"/>
<path d="M0 0 C1.2065625 0.0309375 1.2065625 0.0309375 2.4375 0.0625 C-0.11318845 2.41698165 -1.27267358 3.04577924 -4.8125 3.25 C-5.72 3.188125 -6.6275 3.12625 -7.5625 3.0625 C-7.8925 2.4025 -8.2225 1.7425 -8.5625 1.0625 C-7.3559375 1.0934375 -7.3559375 1.0934375 -6.125 1.125 C-3.0866539 1.050894 -3.0383461 0.074106 0 0 Z " fill="#373534" transform="translate(770.5625,525.9375)"/>
<path d="M0 0 C0.99 0.33 1.98 0.66 3 1 C3.33 2.98 3.66 4.96 4 7 C3.01 7.495 3.01 7.495 2 8 C1.34 5.36 0.68 2.72 0 0 Z " fill="#2E2E2D" transform="translate(365,484)"/>
<path d="M0 0 C0.66 0.33 1.32 0.66 2 1 C0.70700306 3.88437779 -0.65941363 5.87219421 -3 8 C-1.125 1.125 -1.125 1.125 0 0 Z " fill="#333130" transform="translate(136,430)"/>
<path d="M0 0 C2.875 -0.125 2.875 -0.125 6 0 C8 2 8 2 8 4 C2.25 2.25 2.25 2.25 0 0 Z " fill="#333231" transform="translate(231,410)"/>
<path d="M0 0 C0.33 0.66 0.66 1.32 1 2 C1.66 2.33 2.32 2.66 3 3 C2.01 3 1.02 3 0 3 C0 2.01 0 1.02 0 0 Z " fill="#434140" transform="translate(117,532)"/>
<path d="M0 0 C3 1 3 1 3 1 Z " fill="#474545" transform="translate(768,558)"/>
<path d="M0 0 C0.99 0.495 0.99 0.495 2 1 C1.01 1.495 1.01 1.495 0 2 C0 1.34 0 0.68 0 0 Z " fill="#3D3B3A" transform="translate(461,541)"/>
<path d="M0 0 C0.66 0.66 1.32 1.32 2 2 C1.34 2 0.68 2 0 2 C0 1.34 0 0.68 0 0 Z " fill="#454442" transform="translate(116,485)"/>
<path d="M0 0 C2 1 2 1 2 1 Z " fill="#545351" transform="translate(128,622)"/>
<path d="" fill="#525252" transform="translate(0,0)"/>
<path d="" fill="#504F4E" transform="translate(0,0)"/>
<path d="M0 0 C2 1 2 1 2 1 Z " fill="#4B4A49" transform="translate(412,590)"/>
<path d="M0 0 C2 1 2 1 2 1 Z " fill="#49494A" transform="translate(464,582)"/>
<path d="" fill="#413F3F" transform="translate(0,0)"/>
<path d="" fill="#383939" transform="translate(0,0)"/>
<path d="" fill="#434240" transform="translate(0,0)"/>
<path d="" fill="#42403F" transform="translate(0,0)"/>
<path d="" fill="#474542" transform="translate(0,0)"/>
<path d="" fill="#41413F" transform="translate(0,0)"/>
<path d="M0 0 C2 1 2 1 2 1 Z " fill="#403D3D" transform="translate(134,438)"/>
<path d="M0 0 C2 1 2 1 2 1 Z " fill="#3C3939" transform="translate(256,431)"/>
<path d="M0 0 C2 1 2 1 2 1 Z " fill="#424140" transform="translate(161,415)"/>
<path d="M0 0 C2 1 2 1 2 1 Z " fill="#424040" transform="translate(165,412)"/>
<path d="" fill="#ABADAC" transform="translate(0,0)"/>
<path d="" fill="#585B59" transform="translate(0,0)"/>
<path d="" fill="#4C4D4A" transform="translate(0,0)"/>
<path d="" fill="#4D4D4A" transform="translate(0,0)"/>
<path d="" fill="#484747" transform="translate(0,0)"/>
<path d="" fill="#4A494A" transform="translate(0,0)"/>
<path d="" fill="#3F403D" transform="translate(0,0)"/>
<path d="" fill="#403F3D" transform="translate(0,0)"/>
<path d="" fill="#4E4F4D" transform="translate(0,0)"/>
<path d="" fill="#4F4F4D" transform="translate(0,0)"/>
<path d="" fill="#4B4D4B" transform="translate(0,0)"/>
<path d="" fill="#3C393A" transform="translate(0,0)"/>
<path d="" fill="#3F3F3F" transform="translate(0,0)"/>
<path d="" fill="#4D4D4C" transform="translate(0,0)"/>
<path d="" fill="#4A4846" transform="translate(0,0)"/>
<path d="" fill="#3B3B38" transform="translate(0,0)"/>
<path d="" fill="#504F4F" transform="translate(0,0)"/>
<path d="" fill="#484445" transform="translate(0,0)"/>
<path d="" fill="#4A4545" transform="translate(0,0)"/>
<path d="" fill="#3C3B3B" transform="translate(0,0)"/>
<path d="" fill="#403F3F" transform="translate(0,0)"/>
<path d="" fill="#3F3E3C" transform="translate(0,0)"/>
<path d="" fill="#575856" transform="translate(0,0)"/>
<path d="" fill="#4D4B4B" transform="translate(0,0)"/>
<path d="" fill="#4A4B49" transform="translate(0,0)"/>
<path d="" fill="#3C3A38" transform="translate(0,0)"/>
<path d="" fill="#3A3A38" transform="translate(0,0)"/>
<path d="" fill="#474744" transform="translate(0,0)"/>
<path d="" fill="#696967" transform="translate(0,0)"/>
<path d="" fill="#555351" transform="translate(0,0)"/>
<path d="" fill="#393837" transform="translate(0,0)"/>
<path d="" fill="#4E4D4C" transform="translate(0,0)"/>
<path d="" fill="#4D4E4C" transform="translate(0,0)"/>
<path d="" fill="#3E3F3D" transform="translate(0,0)"/>
<path d="" fill="#4E4D4C" transform="translate(0,0)"/>
<path d="" fill="#3C3B39" transform="translate(0,0)"/>
<path d="" fill="#413F3F" transform="translate(0,0)"/>
<path d="" fill="#3D3D3A" transform="translate(0,0)"/>
<path d="" fill="#4B4B4B" transform="translate(0,0)"/>
<path d="" fill="#484746" transform="translate(0,0)"/>
<path d="" fill="#434141" transform="translate(0,0)"/>
<path d="" fill="#3F3E3D" transform="translate(0,0)"/>
<path d="" fill="#42403F" transform="translate(0,0)"/>
<path d="" fill="#3E3E3E" transform="translate(0,0)"/>
<path d="" fill="#403E3C" transform="translate(0,0)"/>
<path d="" fill="#3D3C3A" transform="translate(0,0)"/>
<path d="" fill="#524F4F" transform="translate(0,0)"/>
<path d="" fill="#3F3C3C" transform="translate(0,0)"/>
<path d="" fill="#3E3C3B" transform="translate(0,0)"/>
<path d="" fill="#403F3E" transform="translate(0,0)"/>
<path d="" fill="#383535" transform="translate(0,0)"/>
<path d="" fill="#42403F" transform="translate(0,0)"/>
<path d="" fill="#3C3C39" transform="translate(0,0)"/>
<path d="" fill="#403E3E" transform="translate(0,0)"/>
<path d="" fill="#3F403E" transform="translate(0,0)"/>
<path d="" fill="#3E3C3D" transform="translate(0,0)"/>
<path d="" fill="#3A383A" transform="translate(0,0)"/>
<path d="" fill="#3F403E" transform="translate(0,0)"/>
<path d="" fill="#4B4B48" transform="translate(0,0)"/>
<path d="" fill="#3F3D3F" transform="translate(0,0)"/>
<path d="" fill="#3D3C3D" transform="translate(0,0)"/>
<path d="" fill="#393736" transform="translate(0,0)"/>
<path d="" fill="#3F3C3D" transform="translate(0,0)"/>
<path d="" fill="#3E3B39" transform="translate(0,0)"/>
<path d="" fill="#3E3F3B" transform="translate(0,0)"/>
<path d="" fill="#434343" transform="translate(0,0)"/>
<path d="" fill="#3E403F" transform="translate(0,0)"/>
<path d="" fill="#413F3E" transform="translate(0,0)"/>
<path d="" fill="#484646" transform="translate(0,0)"/>
<path d="" fill="#3E3C3D" transform="translate(0,0)"/>
<path d="" fill="#393A37" transform="translate(0,0)"/>
<path d="" fill="#454342" transform="translate(0,0)"/>
<path d="" fill="#454444" transform="translate(0,0)"/>
<path d="" fill="#474544" transform="translate(0,0)"/>
<path d="" fill="#474342" transform="translate(0,0)"/>
<path d="" fill="#504F50" transform="translate(0,0)"/>
<path d="" fill="#4D4B4B" transform="translate(0,0)"/>
<path d="" fill="#4F4E4D" transform="translate(0,0)"/>
<path d="" fill="#424240" transform="translate(0,0)"/>
<path d="" fill="#4D4B49" transform="translate(0,0)"/>
<path d="" fill="#52504E" transform="translate(0,0)"/>
<path d="" fill="#4F4D4C" transform="translate(0,0)"/>
<path d="" fill="#504F4D" transform="translate(0,0)"/>
<path d="" fill="#4F4E4D" transform="translate(0,0)"/>
<path d="" fill="#535252" transform="translate(0,0)"/>
<path d="" fill="#5E5F5D" transform="translate(0,0)"/>
<path d="" fill="#484646" transform="translate(0,0)"/>
<path d="" fill="#494746" transform="translate(0,0)"/>
<path d="" fill="#42403F" transform="translate(0,0)"/>
<path d="" fill="#40403E" transform="translate(0,0)"/>
<path d="" fill="#403F3E" transform="translate(0,0)"/>
<path d="" fill="#454442" transform="translate(0,0)"/>
<path d="" fill="#424040" transform="translate(0,0)"/>
<path d="" fill="#413C3B" transform="translate(0,0)"/>
<path d="" fill="#4D4E4B" transform="translate(0,0)"/>
<path d="" fill="#424240" transform="translate(0,0)"/>
<path d="" fill="#43423E" transform="translate(0,0)"/>
<path d="" fill="#403F3D" transform="translate(0,0)"/>
<path d="" fill="#41413E" transform="translate(0,0)"/>
</svg>
